SplineFontDB: 3.0
FontName: Cinzel-Black
FullName: Cinzel-Black
FamilyName: Cinzel Black
Weight: Black
Copyright: Copyright (c) 2012 Natanael Gama (info@ndiscovered.com), with Reserved Font Name 'Cinzel'
Version: 1.001;PS 001.001;hotconv 1.0.56;makeotf.lib2.0.21325
ItalicAngle: 0
UnderlinePosition: -50
UnderlineWidth: 50
Ascent: 800
Descent: 200
sfntRevision: 0x00010041
LayerCount: 2
Layer: 0 1 "Back"  1
Layer: 1 1 "Fore"  0
XUID: [1021 310 1373224758 5456350]
FSType: 0
OS2Version: 3
OS2_WeightWidthSlopeOnly: 0
OS2_UseTypoMetrics: 1
CreationTime: 1336739604
ModificationTime: 1349490218
PfmFamily: 81
TTFWeight: 900
TTFWidth: 5
LineGap: 0
VLineGap: 0
Panose: 0 0 10 0 0 0 0 0 0 0
OS2TypoAscent: 976
OS2TypoAOffset: 0
OS2TypoDescent: -372
OS2TypoDOffset: 0
OS2TypoLinegap: 0
OS2WinAscent: 976
OS2WinAOffset: 0
OS2WinDescent: 372
OS2WinDOffset: 0
HheadAscent: 971
HheadAOffset: 0
HheadDescent: -372
HheadDOffset: 0
OS2SubXSize: 650
OS2SubYSize: 600
OS2SubXOff: 0
OS2SubYOff: 75
OS2SupXSize: 650
OS2SupYSize: 600
OS2SupXOff: 0
OS2SupYOff: 350
OS2StrikeYSize: 50
OS2StrikeYPos: 300
OS2Vendor: 'UKWN'
OS2CodePages: 20000093.00000000
OS2UnicodeRanges: 00000007.00000000.00000000.00000000
Lookup: 258 0 0 "'kern' Horizontal Kerning lookup 0"  {"'kern' Horizontal Kerning lookup 0 per glyph data 0"  "'kern' Horizontal Kerning lookup 0 kerning class 1"  } ['kern' ('DFLT' <'dflt' > 'grek' <'dflt' > 'latn' <'dflt' > ) ]
DEI: 91125
KernClass2: 64+ 44 "'kern' Horizontal Kerning lookup 0 kerning class 1" 
 30 T Tcedilla Tcaron Tbar uni021A
 73 U Ugrave Uacute Ucircumflex Udieresis Umacron Uring Uhungarumlaut Uogonek
 1 V
 4 nine
 37 W Wcircumflex Wgrave Wacute Wdieresis
 1 X
 37 Y Yacute Ycircumflex Ydieresis Ygrave
 49 comma period quotesinglbase quotedblbase ellipsis
 26 Z Zacute Zdotaccent Zcaron
 5 seven
 73 a agrave aacute acircumflex atilde adieresis aring amacron abreve aogonek
 1 b
 35 c ccedilla cacute cdotaccent ccaron
 4 five
 31 hyphen softhyphen endash emdash

StartChar: exclam
Encoding: 33 33 4
Width: 295
GlyphClass: 2
Flags: W
LayerCount: 2
Fore
SplineSet
227 363 m 1,0,-1
 182 230 l 1,1,-1
 112 230 l 1,2,-1
 67 363 l 1,3,-1
 45 702 l 1,4,-1
 250 702 l 1,5,-1
 227 363 l 1,0,-1
145.5 -14 m 128,-1,7
 108 -14 108 -14 81.5 12.5 c 128,-1,8
 55 39 55 39 55 76 c 128,-1,9
 55 113 55 113 81.5 139.5 c 128,-1,10
 108 166 108 166 145.5 166 c 128,-1,11
 183 166 183 166 209 139.5 c 128,-1,12
 235 113 235 113 235 76 c 128,-1,13
 235 39 235 39 209 12.5 c 128,-1,6
 183 -14 183 -14 145.5 -14 c 128,-1,7
EndSplineSet
EndChar

StartChar: quotedbl
Encoding: 34 34 5
Width: 394
GlyphClass: 2
Flags: W
LayerCount: 2
Fore
SplineSet
30 505 m 1,0,1
 64 590 64 590 64 643 c 0,2,3
 64 669 64 669 59 700 c 1,4,-1
 191 714 l 1,5,6
 191 710 191 710 191 698.5 c 128,-1,7
 191 687 191 687 185 660.5 c 128,-1,8
 179 634 179 634 164.5 601.5 c 128,-1,9
 150 569 150 569 119 540.5 c 128,-1,10
 88 512 88 512 47 500 c 1,11,-1
 30 505 l 1,0,1
204 505 m 1,12,13
 238 590 238 590 238 643 c 0,14,15
 238 669 238 669 233 700 c 1,16,-1
 364 714 l 1,17,18
 364 710 364 710 364 698.5 c 128,-1,19
 364 687 364 687 358.5 660.5 c 128,-1,20
 353 634 353 634 338 601.5 c 128,-1,21
 323 569 323 569 292.5 540.5 c 128,-1,22
 262 512 262 512 221 500 c 1,23,-1
 204 505 l 1,12,13
EndSplineSet
EndChar

StartChar: numbersign
Encoding: 35 35 6
Width: 600
GlyphClass: 2
Flags: W
LayerCount: 2
Fore
SplineSet
546 437 m 1,0,-1
 428 437 l 1,1,-1
 400 277 l 1,2,-1
 502 277 l 1,3,-1
 502 217 l 1,4,-1
 389 217 l 1,5,-1
 351 0 l 1,6,-1
 289 0 l 1,7,-1
 327 217 l 1,8,-1
 189 217 l 1,9,-1
 151 0 l 1,10,-1
 89 0 l 1,11,-1
 127 217 l 1,12,-1
 20 217 l 1,13,-1
 20 277 l 1,14,-1
 138 277 l 1,15,-1
 166 437 l 1,16,-1
 64 437 l 1,17,-1
 64 497 l 1,18,-1
 177 497 l 1,19,-1
 212 700 l 1,20,-1
 274 700 l 1,21,-1
 239 497 l 1,22,-1
 377 497 l 1,23,-1
 412 700 l 1,24,-1
 474 700 l 1,25,-1
 439 497 l 1,26,-1
 546 497 l 1,27,-1
 546 437 l 1,0,-1
338 277 m 1,28,-1
 366 437 l 1,29,-1
 228 437 l 1,30,-1
 200 277 l 1,31,-1
 338 277 l 1,28,-1
EndSplineSet
EndChar

StartChar: dollar
Encoding: 36 36 7
Width: 615
GlyphClass: 2
Flags: W
LayerCount: 2
Fore
SplineSet
521 54 m 128,-1,1
 446 -5 446 -5 321 -13 c 1,2,-1
 314 -102 l 1,3,-1
 266 -99 l 1,4,-1
 273 -14 l 1,5,6
 192 -13 192 -13 131.5 5 c 128,-1,7
 71 23 71 23 44 51 c 1,8,9
 35 73 35 73 35 98.5 c 128,-1,10
 35 124 35 124 39 148 c 0,11,12
 50 207 50 207 76 240 c 1,13,-1
 85 240 l 1,14,15
 84 234 84 234 84 227 c 0,16,17
 84 159 84 159 135 102 c 128,-1,18
 186 45 186 45 277 37 c 1,19,-1
 294 264 l 1,20,-1
 174 320 l 1,21,22
 105 351 105 351 74 407 c 0,23,24
 49 451 49 451 49 504 c 0,25,26
 49 612 49 612 122 668 c 0,27,28
 183 714 183 714 284 714 c 0,29,30
 301 714 301 714 328 713 c 1,31,-1
 334 788 l 1,32,-1
 382 787 l 1,33,-1
 376 710 l 1,34,35
 418 707 418 707 453 704 c 1,36,-1
 531 704 l 1,37,-1
 509 541 l 1,38,-1
 499 541 l 1,39,40
 499 616 499 616 426 648 c 0,41,42
 402 658 402 658 373 662 c 1,43,-1
 357 457 l 1,44,-1
 480 400 l 2,45,46
 596 347 596 347 596 230 c 128,-1,0
 596 113 596 113 521 54 c 128,-1,1
225.5 526 m 128,-1,48
 247 507 247 507 293 487 c 1,49,-1
 310 478 l 1,50,-1
 324 664 l 1,51,52
 252 659 252 659 221 621 c 0,53,54
 204 600 204 600 204 572.5 c 128,-1,47
 204 545 204 545 225.5 526 c 128,-1,48
341 243 m 1,55,-1
 325 37 l 1,56,57
 382 42 382 42 412.5 69.5 c 128,-1,58
 443 97 443 97 443 131 c 128,-1,59
 443 165 443 165 419 191 c 128,-1,60
 395 217 395 217 341 243 c 1,55,-1
EndSplineSet
EndChar

StartChar: percent
Encoding: 37 37 8
Width: 777
GlyphClass: 2
Flags: W
LayerCount: 2
Fore
SplineSet
363 642 m 1,0,1
 379 610 379 610 379 581.5 c 128,-1,2
 379 553 379 553 377 537 c 0,3,4
 368 454 368 454 312.5 407.5 c 128,-1,5
 257 361 257 361 171.5 361 c 128,-1,6
 86 361 86 361 48 410 c 0,7,8
 20 447 20 447 20 505 c 0,9,10
 20 614 20 614 89 670 c 0,11,12
 144 714 144 714 229 714 c 2,13,-1
 230 714 l 2,14,15
 232 714 232 714 249.5 714 c 128,-1,16
 267 714 267 714 294.5 707 c 128,-1,17
 322 700 322 700 336 691 c 0,18,19
 381 665 381 665 419 665 c 0,20,21
 461 665 461 665 523 698 c 0,22,23
 539 706 539 706 544 709 c 1,24,-1
 583 692 l 1,25,-1
 211 -19 l 1,26,-1
 166 0 l 1,27,-1
 512 653 l 1,28,29
 475 629 475 629 437 629 c 128,-1,30
 399 629 399 629 363 642 c 1,0,1
181.5 401.5 m 128,-1,32
 207 402 207 402 224.5 437.5 c 128,-1,33
 242 473 242 473 247.5 522 c 128,-1,34
 253 571 253 571 253 598 c 0,35,36
 253 674 253 674 225 674 c 128,-1,37
 197 674 197 674 177 611 c 0,38,39
 156 543 156 543 156 472 c 128,-1,31
 156 401 156 401 181.5 401.5 c 128,-1,32
450 295 m 1,40,41
 505 339 505 339 586 339 c 128,-1,42
 667 339 667 339 703 296 c 128,-1,43
 739 253 739 253 739 187 c 0,44,45
 739 86 739 86 679 36 c 128,-1,46
 619 -14 619 -14 533 -14 c 128,-1,47
 447 -14 447 -14 409 35 c 0,48,49
 381 72 381 72 381 129 c 0,50,51
 381 238 381 238 450 295 c 1,40,41
510 94 m 0,52,53
 510 26 510 26 537 26 c 0,54,55
 561 26 561 26 578.5 61.5 c 128,-1,56
 596 97 596 97 602 146.5 c 128,-1,57
 608 196 608 196 608 223 c 0,58,59
 608 299 608 299 579 299 c 0,60,61
 558 299 558 299 541.5 263 c 128,-1,62
 525 227 525 227 517.5 175 c 128,-1,63
 510 123 510 123 510 94 c 0,52,53
EndSplineSet
EndChar

StartChar: ampersand
Encoding: 38 38 9
Width: 911
GlyphClass: 2
Flags: W
LayerCount: 2
Fore
SplineSet
921 0 m 1,0,1
 836 -10 836 -10 756 -10 c 128,-1,2
 676 -10 676 -10 601 27 c 1,3,4
 520 -10 520 -10 401 -10 c 0,5,6
 237 -10 237 -10 134 44 c 0,7,8
 25 102 25 102 25 211 c 0,9,10
 25 319 25 319 127 374 c 0,11,12
 154 388 154 388 184 397 c 1,13,14
 141 466 141 466 141 523.5 c 128,-1,15
 141 581 141 581 165 618 c 128,-1,16
 189 655 189 655 229 675 c 0,17,18
 307 714 307 714 410 714 c 0,19,20
 481 714 481 714 541.5 696.5 c 128,-1,21
 602 679 602 679 625 643 c 1,22,-1
 578 480 l 1,23,-1
 569 480 l 1,24,25
 567 664 567 664 453 664 c 0,26,27
 391 664 391 664 364 615 c 0,28,29
 351 592 351 592 351 563 c 0,30,31
 351 511 351 511 391 462.5 c 128,-1,32
 431 414 431 414 527 331 c 2,33,-1
 661 216 l 1,34,35
 669 251 669 251 669 290.5 c 128,-1,36
 669 330 669 330 649.5 372.5 c 128,-1,37
 630 415 630 415 593 415 c 0,38,39
 592 415 592 415 592 415 c 1,40,-1
 577 415 l 1,41,-1
 577 425 l 1,42,-1
 833 425 l 1,43,-1
 833 415 l 1,44,-1
 819 415 l 2,45,46
 805 415 805 415 798 407.5 c 128,-1,47
 791 400 791 400 789 391.5 c 128,-1,48
 787 383 787 383 786 371 c 0,49,50
 774 230 774 230 733 152 c 1,51,52
 865 37 865 37 920 11 c 1,53,-1
 921 0 l 1,0,1
390.5 52 m 128,-1,55
 427 40 427 40 468.5 40 c 128,-1,56
 510 40 510 40 548 60 c 1,57,58
 505 91 505 91 438.5 146 c 128,-1,59
 372 201 372 201 367 205 c 0,60,61
 292 267 292 267 245 317 c 1,62,63
 237 292 237 292 237 273 c 0,64,65
 237 201 237 201 262 156 c 128,-1,66
 287 111 287 111 320.5 87.5 c 128,-1,54
 354 64 354 64 390.5 52 c 128,-1,55
EndSplineSet
EndChar

StartChar: quotesingle
Encoding: 39 39 10
Width: 220
GlyphClass: 2
Flags: W
LayerCount: 2
Fore
SplineSet
30 505 m 1,0,1
 64 590 64 590 64 643 c 0,2,3
 64 669 64 669 59 700 c 1,4,-1
 191 714 l 1,5,6
 191 710 191 710 191 698.5 c 128,-1,7
 191 687 191 687 185 660.5 c 128,-1,8
 179 634 179 634 164.5 601.5 c 128,-1,9
 150 569 150 569 119 540.5 c 128,-1,10
 88 512 88 512 47 500 c 1,11,-1
 30 505 l 1,0,1
EndSplineSet
EndChar

StartChar: parenleft
Encoding: 40 40 11
Width: 478
GlyphClass: 2
Flags: W
LayerCount: 2
Fore
SplineSet
290 354 m 0,0,1
 290 19 290 19 447 -91 c 1,2,-1
 441 -100 l 1,3,4
 351 -79 351 -79 282.5 -35 c 128,-1,5
 214 9 214 9 173 67 c 0,6,7
 90 183 90 183 90 334 c 0,8,9
 90 495 90 495 173 601 c 0,10,11
 261 712 261 712 443 732 c 1,12,-1
 449 724 l 1,13,14
 290 648 290 648 290 354 c 0,0,1
EndSplineSet
EndChar

StartChar: parenright
Encoding: 41 41 12
Width: 478
GlyphClass: 2
Flags: W
LayerCount: 2
Fore
SplineSet
32 -91 m 1,0,1
 189 19 189 19 189 354 c 0,2,3
 189 648 189 648 30 724 c 1,4,-1
 36 732 l 1,5,6
 218 712 218 712 305 601 c 0,7,8
 389 495 389 495 389 334 c 0,9,10
 389 183 389 183 306 67 c 0,11,12
 264 9 264 9 195.5 -35 c 128,-1,13
 127 -79 127 -79 38 -100 c 1,14,-1
 32 -91 l 1,0,1
EndSplineSet
EndChar

StartChar: asterisk
Encoding: 42 42 13
Width: 390
GlyphClass: 2
Flags: W
LayerCount: 2
Fore
SplineSet
202 605 m 1,0,-1
 269 574 l 1,1,-1
 328 516 l 1,2,-1
 293 474 l 1,3,-1
 242 454 l 1,4,-1
 204 527 l 1,5,-1
 195 600 l 1,6,-1
 187 527 l 1,7,-1
 150 454 l 1,8,-1
 99 474 l 1,9,-1
 64 516 l 1,10,-1
 122 574 l 1,11,-1
 188 605 l 1,12,-1
 116 591 l 1,13,-1
 35 604 l 1,14,-1
 38 658 l 1,15,-1
 68 704 l 1,16,-1
 141 667 l 1,17,-1
 191 614 l 1,18,-1
 156 678 l 1,19,-1
 142 759 l 1,20,-1
 195 773 l 1,21,-1
 248 759 l 1,22,-1
 236 678 l 1,23,-1
 200 613 l 1,24,-1
 250 667 l 1,25,-1
 323 705 l 1,26,-1
 353 659 l 1,27,-1
 356 604 l 1,28,-1
 274 591 l 1,29,-1
 202 605 l 1,0,-1
EndSplineSet
EndChar

StartChar: plus
Encoding: 43 43 14
Width: 481
GlyphClass: 2
Flags: W
LayerCount: 2
Fore
SplineSet
442 342 m 1,0,-1
 442 277 l 1,1,-1
 273 277 l 1,2,-1
 273 109 l 1,3,-1
 208 109 l 1,4,-1
 208 277 l 1,5,-1
 40 277 l 1,6,-1
 40 342 l 1,7,-1
 208 342 l 1,8,-1
 208 511 l 1,9,-1
 273 511 l 1,10,-1
 273 342 l 1,11,-1
 442 342 l 1,0,-1
EndSplineSet
EndChar

StartChar: comma
Encoding: 44 44 15
Width: 260
GlyphClass: 2
Flags: W
LayerCount: 2
Fore
SplineSet
41 -116 m 1,0,1
 71 -103 71 -103 82 -73 c 0,2,3
 86 -61 86 -61 86 -52 c 0,4,5
 86 -20 86 -20 60.5 9.5 c 128,-1,6
 35 39 35 39 35 76 c 0,7,8
 35 125 35 125 68 149 c 0,9,10
 90 166 90 166 111 166 c 0,11,12
 184 166 184 166 210 108 c 1,13,14
 225 71 225 71 225 35 c 128,-1,15
 225 -1 225 -1 209 -34 c 0,16,17
 175 -104 175 -104 113 -125 c 0,18,19
 92 -132 92 -132 75 -132 c 128,-1,20
 58 -132 58 -132 45 -129 c 1,21,-1
 41 -116 l 1,0,1
EndSplineSet
EndChar

StartChar: hyphen
Encoding: 45 45 16
Width: 380
GlyphClass: 2
Flags: W
LayerCount: 2
Fore
SplineSet
30 292 m 1,0,-1
 40 332 l 1,1,-1
 340 332 l 1,2,-1
 350 292 l 1,3,-1
 340 251 l 1,4,-1
 40 251 l 1,5,-1
 30 292 l 1,0,-1
EndSplineSet
EndChar

StartChar: period
Encoding: 46 46 17
Width: 250
GlyphClass: 2
Flags: W
LayerCount: 2
Fore
SplineSet
125 -14 m 128,-1,1
 88 -14 88 -14 61.5 12.5 c 128,-1,2
 35 39 35 39 35 76 c 128,-1,3
 35 113 35 113 61.5 139.5 c 128,-1,4
 88 166 88 166 125 166 c 128,-1,5
 162 166 162 166 188.5 139.5 c 128,-1,6
 215 113 215 113 215 76 c 128,-1,7
 215 39 215 39 188.5 12.5 c 128,-1,0
 162 -14 162 -14 125 -14 c 128,-1,1
EndSplineSet
EndChar

StartChar: slash
Encoding: 47 47 18
Width: 439
GlyphClass: 2
Flags: W
LayerCount: 2
Fore
SplineSet
10 14 m 1,0,-1
 371 723 l 1,1,-1
 430 696 l 1,2,-1
 69 -14 l 1,3,-1
 10 14 l 1,0,-1
EndSplineSet
EndChar

StartChar: zero
Encoding: 48 48 19
Width: 690
GlyphClass: 2
Flags: W
LayerCount: 2
Fore
SplineSet
345 714 m 128,-1,1
 490 714 490 714 572.5 615 c 128,-1,2
 655 516 655 516 655 350 c 128,-1,3
 655 184 655 184 572.5 85 c 128,-1,4
 490 -14 490 -14 345 -14 c 128,-1,5
 200 -14 200 -14 117.5 85 c 128,-1,6
 35 184 35 184 35 350 c 128,-1,7
 35 516 35 516 117.5 615 c 128,-1,0
 200 714 200 714 345 714 c 128,-1,1
345 664 m 0,8,9
 294 664 294 664 269.5 587.5 c 128,-1,10
 245 511 245 511 245 350 c 0,11,12
 245 85 245 85 314 44 c 0,13,14
 328 36 328 36 345 36 c 0,15,16
 397 36 397 36 421 112.5 c 128,-1,17
 445 189 445 189 445 350 c 0,18,19
 445 590 445 590 390 645 c 0,20,21
 371 664 371 664 345 664 c 0,8,9
EndSplineSet
EndChar

StartChar: one
Encoding: 49 49 20
Width: 424
GlyphClass: 2
Flags: W
LayerCount: 2
Fore
SplineSet
48 640 m 2,0,-1
 30 640 l 1,1,-1
 30 650 l 1,2,3
 90 653 90 653 175.5 669.5 c 128,-1,4
 261 686 261 686 308 714 c 1,5,-1
 318 714 l 1,6,-1
 318 64 l 2,7,8
 318 41 318 41 334 25.5 c 128,-1,9
 350 10 350 10 373 10 c 2,10,-1
 394 10 l 1,11,-1
 394 0 l 1,12,-1
 37 0 l 1,13,-1
 38 10 l 1,14,-1
 59 10 l 2,15,16
 81 10 81 10 97.5 26 c 128,-1,17
 114 42 114 42 114 64 c 2,18,-1
 114 571 l 2,19,20
 114 640 114 640 48 640 c 2,0,-1
EndSplineSet
EndChar

StartChar: two
Encoding: 50 50 21
Width: 658
GlyphClass: 2
Flags: W
LayerCount: 2
Fore
SplineSet
308 714 m 0,0,1
 373 714 373 714 437.5 690 c 128,-1,2
 502 666 502 666 540 619 c 128,-1,3
 578 572 578 572 578 509 c 0,4,5
 578 420 578 420 504 342 c 1,6,7
 446 279 446 279 359 222 c 0,8,9
 342 211 342 211 318 196 c 128,-1,10
 294 181 294 181 287 176 c 1,11,-1
 477 176 l 2,12,13
 522 176 522 176 555 201.5 c 128,-1,14
 588 227 588 227 614 281 c 1,15,-1
 624 281 l 1,16,-1
 556 0 l 1,17,-1
 36 0 l 1,18,-1
 36 10 l 1,19,20
 63 43 63 43 108.5 97.5 c 128,-1,21
 154 152 154 152 184.5 187.5 c 128,-1,22
 215 223 215 223 252 273 c 128,-1,23
 289 323 289 323 310 362 c 1,24,25
 363 454 363 454 363 530 c 0,26,27
 363 595 363 595 328 632 c 0,28,29
 298 664 298 664 247 664 c 0,30,31
 241 664 241 664 235 664 c 0,32,33
 106 653 106 653 107 456 c 1,34,-1
 97 456 l 1,35,-1
 30 636 l 1,36,37
 120 714 120 714 308 714 c 0,0,1
EndSplineSet
EndChar

StartChar: three
Encoding: 51 51 22
Width: 602
GlyphClass: 2
Flags: W
LayerCount: 2
Fore
SplineSet
279 712 m 0,0,1
 399 712 399 712 466 667 c 128,-1,2
 533 622 533 622 533 540 c 0,3,4
 533 475 533 475 492.5 436 c 128,-1,5
 452 397 452 397 398 395 c 1,6,7
 460 383 460 383 508 341 c 1,8,9
 562 292 562 292 562 203.5 c 128,-1,10
 562 115 562 115 511 51 c 0,11,12
 415 -70 415 -70 222 -70 c 0,13,14
 124 -70 124 -70 39 -32 c 1,15,-1
 41 -22 l 1,16,17
 46 -22 46 -22 52 -22 c 0,18,19
 127 -22 127 -22 194.5 5.5 c 128,-1,20
 262 33 262 33 304.5 89 c 128,-1,21
 347 145 347 145 347 216 c 0,22,23
 347 260 347 260 330.5 293.5 c 128,-1,24
 314 327 314 327 286 346 c 0,25,26
 232 383 232 383 162 384 c 1,27,-1
 164 394 l 1,28,29
 167 394 167 394 170 394 c 0,30,31
 236 394 236 394 282 440.5 c 128,-1,32
 328 487 328 487 328 548 c 0,33,34
 328 614 328 614 287 642 c 1,35,36
 259 663 259 663 220 663 c 0,37,38
 149 663 149 663 120 610 c 0,39,40
 97 567 97 567 97 485 c 0,41,42
 97 477 97 477 97 468 c 1,43,-1
 87 468 l 1,44,-1
 30 641 l 1,45,46
 69 673 69 673 134.5 692.5 c 128,-1,47
 200 712 200 712 279 712 c 0,0,1
EndSplineSet
EndChar

StartChar: four
Encoding: 52 52 23
Width: 643
GlyphClass: 2
Flags: W
LayerCount: 2
Fore
SplineSet
511 189 m 1,0,-1
 511 63 l 2,1,2
 511 41 511 41 527 25.5 c 128,-1,3
 543 10 543 10 566 10 c 2,4,-1
 577 10 l 1,5,-1
 577 0 l 1,6,-1
 239 0 l 1,7,-1
 240 10 l 1,8,-1
 250 10 l 2,9,10
 273 10 273 10 289 25 c 128,-1,11
 305 40 305 40 306 62 c 1,12,-1
 306 189 l 1,13,-1
 -15 189 l 1,14,-1
 -15 199 l 1,15,-1
 501 714 l 1,16,-1
 511 714 l 1,17,-1
 511 294 l 1,18,-1
 554 294 l 2,19,20
 580 294 580 294 594.5 303.5 c 128,-1,21
 609 313 609 313 619 334 c 1,22,-1
 629 334 l 1,23,-1
 598 189 l 1,24,-1
 511 189 l 1,0,-1
306 294 m 1,25,-1
 306 441 l 1,26,-1
 154 294 l 1,27,-1
 306 294 l 1,25,-1
EndSplineSet
EndChar

StartChar: five
Encoding: 53 53 24
Width: 591
GlyphClass: 2
Flags: W
LayerCount: 2
Fore
SplineSet
152 424 m 1,0,1
 223 440 223 440 276 440 c 128,-1,2
 329 440 329 440 369 429 c 0,3,4
 456 405 456 405 498.5 345.5 c 128,-1,5
 541 286 541 286 541 208 c 0,6,7
 541 140 541 140 512 87.5 c 128,-1,8
 483 35 483 35 439 3 c 0,9,10
 336 -73 336 -73 195 -73 c 0,11,12
 89 -73 89 -73 10 -31 c 1,13,-1
 12 -21 l 1,14,15
 16 -21 16 -21 30.5 -21 c 128,-1,16
 45 -21 45 -21 79 -15.5 c 128,-1,17
 113 -10 113 -10 155.5 4.5 c 128,-1,18
 198 19 198 19 233.5 41 c 128,-1,19
 269 63 269 63 294 98 c 0,20,21
 322 138 322 138 322 186.5 c 128,-1,22
 322 235 322 235 289 267 c 0,23,24
 253 301 253 301 192 301 c 128,-1,25
 131 301 131 301 59 274 c 1,26,-1
 50 280 l 1,27,-1
 133 664 l 1,28,-1
 431 689 l 1,29,30
 485 689 485 689 510 739 c 1,31,-1
 520 739 l 1,32,-1
 478 532 l 1,33,-1
 171 507 l 1,34,-1
 152 424 l 1,0,1
EndSplineSet
EndChar

StartChar: six
Encoding: 54 54 25
Width: 675
GlyphClass: 2
Flags: W
LayerCount: 2
Fore
SplineSet
334 419 m 128,-1,1
 359 438 359 438 388.5 445 c 128,-1,2
 418 452 418 452 435 452 c 0,3,4
 489 452 489 452 522 436 c 128,-1,5
 555 420 555 420 581 394 c 0,6,7
 635 341 635 341 635 240 c 0,8,9
 635 128 635 128 563 58 c 0,10,11
 487 -15 487 -15 336 -15 c 0,12,13
 40 -15 40 -15 40 315 c 0,14,15
 40 533 40 533 168 647 c 0,16,17
 273 741 273 741 461 741 c 0,18,19
 508 741 508 741 559 734 c 1,20,-1
 563 727 l 1,21,22
 473 699 473 699 434 676 c 128,-1,23
 395 653 395 653 373 637 c 128,-1,24
 351 621 351 621 335 600 c 128,-1,25
 319 579 319 579 307 560.5 c 128,-1,26
 295 542 295 542 287.5 516 c 128,-1,27
 280 490 280 490 275.5 468.5 c 128,-1,28
 271 447 271 447 268 415 c 1,29,30
 265 365 265 365 265 302.5 c 128,-1,31
 265 240 265 240 266.5 204 c 128,-1,32
 268 168 268 168 273 135.5 c 128,-1,33
 278 103 278 103 288 84 c 0,34,35
 308 45 308 45 349 45 c 0,36,37
 409 45 409 45 423 118 c 0,38,39
 430 155 430 155 430 226 c 0,40,41
 430 355 430 355 380 376 c 0,42,43
 367 381 367 381 348.5 381 c 128,-1,44
 330 381 330 381 305 365 c 1,45,-1
 298 373 l 1,46,0
 309 400 309 400 334 419 c 128,-1,1
EndSplineSet
EndChar

StartChar: seven
Encoding: 55 55 26
Width: 572
GlyphClass: 2
Flags: W
LayerCount: 2
Fore
SplineSet
90 525 m 2,0,1
 61 525 61 525 44 510.5 c 128,-1,2
 27 496 27 496 15 465 c 1,3,-1
 5 465 l 1,4,-1
 33 698 l 1,5,-1
 563 698 l 1,6,-1
 435 403 l 2,7,8
 406 337 406 337 363 208 c 128,-1,9
 320 79 320 79 298 0 c 1,10,-1
 128 0 l 1,11,12
 159 50 159 50 237 186 c 128,-1,13
 315 322 315 322 358 414 c 2,14,-1
 410 525 l 1,15,-1
 90 525 l 2,0,1
EndSplineSet
EndChar

StartChar: eight
Encoding: 56 56 27
Width: 636
GlyphClass: 2
Flags: W
LayerCount: 2
Fore
SplineSet
611 200 m 0,0,1
 611 97 611 97 527 41.5 c 128,-1,2
 443 -14 443 -14 298 -14 c 0,3,4
 96 -14 96 -14 42 87 c 0,5,6
 25 119 25 119 25 159 c 0,7,8
 25 226 25 226 64 266 c 128,-1,9
 103 306 103 306 160 326 c 1,10,11
 68 398 68 398 68 500 c 128,-1,12
 68 602 68 602 137 658 c 128,-1,13
 206 714 206 714 311 714 c 128,-1,14
 416 714 416 714 489 666 c 128,-1,15
 562 618 562 618 562 544 c 0,16,17
 562 493 562 493 524.5 458.5 c 128,-1,18
 487 424 487 424 430 410 c 1,19,20
 547 349 547 349 578 306 c 0,21,22
 611 260 611 260 611 200 c 0,0,1
253 640 m 128,-1,24
 233 617 233 617 233 578 c 128,-1,25
 233 539 233 539 261 512 c 128,-1,26
 289 485 289 485 372 441 c 1,27,28
 396 486 396 486 396 547 c 0,29,30
 396 601 396 601 373 631 c 0,31,32
 349 663 349 663 311 663 c 128,-1,23
 273 663 273 663 253 640 c 128,-1,24
322 35 m 0,33,34
 361 35 361 35 394 58 c 128,-1,35
 427 81 427 81 427 117.5 c 128,-1,36
 427 154 427 154 393 185 c 128,-1,37
 359 216 359 216 294 249 c 128,-1,38
 229 282 229 282 217 289 c 1,39,40
 194 248 194 248 194 184 c 128,-1,41
 194 120 194 120 223 81 c 0,42,43
 257 35 257 35 322 35 c 0,33,34
EndSplineSet
EndChar

StartChar: nine
Encoding: 57 57 28
Width: 675
GlyphClass: 2
Flags: W
LayerCount: 2
Fore
SplineSet
341 277 m 128,-1,1
 316 258 316 258 286.5 251 c 128,-1,2
 257 244 257 244 240 244 c 0,3,4
 186 244 186 244 153 260 c 128,-1,5
 120 276 120 276 94 302 c 0,6,7
 40 355 40 355 40 457 c 0,8,9
 40 594 40 594 144 662 c 0,10,11
 218 711 218 711 339 711 c 0,12,13
 635 711 635 711 635 381 c 0,14,15
 635 163 635 163 506 49 c 0,16,17
 402 -44 402 -44 214 -44 c 0,18,19
 167 -44 167 -44 116 -38 c 1,20,-1
 112 -31 l 1,21,22
 202 -3 202 -3 241 20 c 128,-1,23
 280 43 280 43 302 59 c 128,-1,24
 324 75 324 75 340 96 c 128,-1,25
 356 117 356 117 368 135.5 c 128,-1,26
 380 154 380 154 387.5 180 c 128,-1,27
 395 206 395 206 399.5 227.5 c 128,-1,28
 404 249 404 249 406 281 c 0,29,30
 410 331 410 331 410 400.5 c 128,-1,31
 410 470 410 470 407 512 c 128,-1,32
 404 554 404 554 395 587.5 c 128,-1,33
 386 621 386 621 369 635.5 c 128,-1,34
 352 650 352 650 327.5 650 c 128,-1,35
 303 650 303 650 288 640.5 c 128,-1,36
 273 631 273 631 264.5 616.5 c 128,-1,37
 256 602 256 602 252 577 c 0,38,39
 245 541 245 541 245 470 c 0,40,41
 245 341 245 341 295 320 c 0,42,43
 308 315 308 315 326.5 315 c 128,-1,44
 345 315 345 315 370 331 c 1,45,-1
 377 323 l 1,46,0
 366 296 366 296 341 277 c 128,-1,1
EndSplineSet
EndChar

StartChar: colon
Encoding: 58 58 29
Width: 250
GlyphClass: 2
Flags: W
LayerCount: 2
Fore
SplineSet
125 369 m 128,-1,1
 88 369 88 369 61.5 395 c 128,-1,2
 35 421 35 421 35 458.5 c 128,-1,3
 35 496 35 496 61.5 522.5 c 128,-1,4
 88 549 88 549 125 549 c 128,-1,5
 162 549 162 549 188.5 522.5 c 128,-1,6
 215 496 215 496 215 458.5 c 128,-1,7
 215 421 215 421 188.5 395 c 128,-1,0
 162 369 162 369 125 369 c 128,-1,1
125 -14 m 128,-1,9
 88 -14 88 -14 61.5 12.5 c 128,-1,10
 35 39 35 39 35 76 c 128,-1,11
 35 113 35 113 61.5 139.5 c 128,-1,12
 88 166 88 166 125 166 c 128,-1,13
 162 166 162 166 188.5 139.5 c 128,-1,14
 215 113 215 113 215 76 c 128,-1,15
 215 39 215 39 188.5 12.5 c 128,-1,8
 162 -14 162 -14 125 -14 c 128,-1,9
EndSplineSet
EndChar

StartChar: semicolon
Encoding: 59 59 30
Width: 260
GlyphClass: 2
Flags: W
LayerCount: 2
Fore
SplineSet
125 397 m 128,-1,1
 88 397 88 397 61.5 423.5 c 128,-1,2
 35 450 35 450 35 487.5 c 128,-1,3
 35 525 35 525 61.5 551 c 128,-1,4
 88 577 88 577 125 577 c 128,-1,5
 162 577 162 577 188.5 551 c 128,-1,6
 215 525 215 525 215 487.5 c 128,-1,7
 215 450 215 450 188.5 423.5 c 128,-1,0
 162 397 162 397 125 397 c 128,-1,1
41 -116 m 1,8,9
 71 -103 71 -103 82 -73 c 0,10,11
 86 -61 86 -61 86 -52 c 0,12,13
 86 -20 86 -20 60.5 9.5 c 128,-1,14
 35 39 35 39 35 76 c 0,15,16
 35 125 35 125 68 149 c 0,17,18
 90 166 90 166 111 166 c 0,19,20
 184 166 184 166 210 108 c 1,21,22
 225 71 225 71 225 35 c 128,-1,23
 225 -1 225 -1 209 -34 c 0,24,25
 175 -104 175 -104 113 -125 c 0,26,27
 92 -132 92 -132 75 -132 c 128,-1,28
 58 -132 58 -132 45 -129 c 1,29,-1
 41 -116 l 1,8,9
EndSplineSet
EndChar

StartChar: less
Encoding: 60 60 31
Width: 501
GlyphClass: 2
Flags: W
LayerCount: 2
Fore
SplineSet
442 526 m 1,0,-1
 442 455 l 1,1,-1
 133 310 l 1,2,-1
 442 164 l 1,3,-1
 442 93 l 1,4,-1
 40 280 l 1,5,-1
 40 339 l 1,6,-1
 442 526 l 1,0,-1
EndSplineSet
EndChar

StartChar: equal
Encoding: 61 61 32
Width: 481
GlyphClass: 2
Flags: W
LayerCount: 2
Fore
SplineSet
40 354 m 1,0,-1
 40 419 l 1,1,-1
 442 419 l 1,2,-1
 442 354 l 1,3,-1
 40 354 l 1,0,-1
40 179 m 1,4,-1
 40 244 l 1,5,-1
 442 244 l 1,6,-1
 442 179 l 1,7,-1
 40 179 l 1,4,-1
EndSplineSet
EndChar

StartChar: greater
Encoding: 62 62 33
Width: 481
GlyphClass: 2
Flags: W
LayerCount: 2
Fore
SplineSet
40 526 m 1,0,-1
 442 339 l 1,1,-1
 442 280 l 1,2,-1
 40 93 l 1,3,-1
 40 164 l 1,4,-1
 349 310 l 1,5,-1
 40 455 l 1,6,-1
 40 526 l 1,0,-1
EndSplineSet
EndChar

StartChar: question
Encoding: 63 63 34
Width: 493
GlyphClass: 2
Flags: W
LayerCount: 2
Fore
SplineSet
248 539 m 0,0,1
 248 664 248 664 157 664 c 0,2,3
 60 664 60 664 60 510 c 1,4,-1
 50 510 l 1,5,-1
 0 625 l 1,6,7
 23 665 23 665 81.5 689.5 c 128,-1,8
 140 714 140 714 221 714 c 0,9,10
 338 714 338 714 400.5 668 c 128,-1,11
 463 622 463 622 463 537 c 0,12,13
 463 479 463 479 430.5 438 c 128,-1,14
 398 397 398 397 316 337 c 0,15,16
 264 299 264 299 258 278 c 0,17,18
 250 251 250 251 265 221 c 1,19,-1
 256 215 l 1,20,21
 191 232 191 232 166 281 c 0,22,23
 155 302 155 302 155 317.5 c 128,-1,24
 155 333 155 333 156.5 347 c 128,-1,25
 158 361 158 361 169 379.5 c 128,-1,26
 180 398 180 398 193 412 c 128,-1,27
 206 426 206 426 219 442 c 0,28,29
 248 478 248 478 248 539 c 0,0,1
289 12.5 m 128,-1,31
 263 -14 263 -14 225.5 -14 c 128,-1,32
 188 -14 188 -14 161.5 12.5 c 128,-1,33
 135 39 135 39 135 76 c 128,-1,34
 135 113 135 113 161.5 139.5 c 128,-1,35
 188 166 188 166 225.5 166 c 128,-1,36
 263 166 263 166 289 139.5 c 128,-1,37
 315 113 315 113 315 76 c 128,-1,30
 315 39 315 39 289 12.5 c 128,-1,31
EndSplineSet
EndChar

StartChar: at
Encoding: 64 64 35
Width: 998
GlyphClass: 2
Flags: W
LayerCount: 2
Fore
SplineSet
84 114 m 0,0,1
 20 169 20 169 20 267 c 0,2,3
 20 325 20 325 47 395 c 1,4,5
 88 495 88 495 177 568 c 128,-1,6
 266 641 266 641 385 673 c 0,7,8
 463 694 463 694 525 694 c 0,9,10
 778 694 778 694 891 563 c 0,11,12
 974 466 974 466 974 327 c 0,13,14
 974 162 974 162 875 41.5 c 128,-1,15
 776 -79 776 -79 607 -115 c 0,16,17
 558 -126 558 -126 503 -126 c 0,18,19
 371 -126 371 -126 208 -63 c 1,20,-1
 204 -53 l 1,21,22
 311 -97 311 -97 406 -97 c 0,23,24
 532 -97 532 -97 631 -34 c 1,25,26
 713 20 713 20 762 113 c 1,27,28
 820 220 820 220 820 341 c 128,-1,29
 820 462 820 462 776 535 c 0,30,31
 726 619 726 619 625 642 c 1,32,33
 586 649 586 649 564 649 c 128,-1,34
 542 649 542 649 537 649 c 0,35,36
 450 647 450 647 355 582 c 0,37,38
 262 518 262 518 202 390 c 1,39,40
 150 282 150 282 150 199 c 0,41,42
 150 156 150 156 166 137.5 c 128,-1,43
 182 119 182 119 200 118 c 128,-1,44
 218 117 218 117 231.5 122 c 128,-1,45
 245 127 245 127 257 135 c 128,-1,46
 269 143 269 143 281.5 155 c 128,-1,47
 294 167 294 167 305 179.5 c 128,-1,48
 316 192 316 192 327.5 207.5 c 128,-1,49
 339 223 339 223 349 236 c 0,50,51
 374 272 374 272 389 291 c 2,52,-1
 516 464 l 1,53,54
 562 521 562 521 571 541 c 1,55,-1
 577 541 l 1,56,-1
 661 137 l 2,57,58
 670 90 670 90 701 90 c 2,59,-1
 706 90 l 1,60,-1
 704 83 l 1,61,-1
 466 83 l 1,62,-1
 467 90 l 1,63,-1
 474 90 l 2,64,65
 489 90 489 90 502.5 102 c 128,-1,66
 516 114 516 114 516 123.5 c 128,-1,67
 516 133 516 133 515 137 c 2,68,-1
 507 190 l 1,69,-1
 371 190 l 1,70,71
 323 128 323 128 286 101 c 0,72,73
 246 73 246 73 189 73 c 128,-1,74
 132 73 132 73 84 114 c 0,0,1
483 346 m 1,75,-1
 398 225 l 1,76,-1
 502 225 l 1,77,-1
 483 346 l 1,75,-1
EndSplineSet
EndChar

StartChar: A
Encoding: 65 65 36
Width: 720
GlyphClass: 2
Flags: W
LayerCount: 2
Fore
SplineSet
752 10 m 2,0,-1
 760 10 l 1,1,-1
 760 0 l 1,2,-1
 381 0 l 1,3,-1
 381 10 l 1,4,-1
 390 10 l 2,5,6
 412 10 412 10 423 23.5 c 128,-1,7
 434 37 434 37 434 48.5 c 128,-1,8
 434 60 434 60 429 73 c 2,9,-1
 390 166 l 1,10,-1
 176 166 l 1,11,-1
 136 73 l 2,12,13
 131 60 131 60 131 52 c 128,-1,14
 131 44 131 44 134.5 34.5 c 128,-1,15
 138 25 138 25 149.5 17.5 c 128,-1,16
 161 10 161 10 174 10 c 2,17,-1
 183 10 l 1,18,-1
 183 0 l 1,19,-1
 -40 0 l 1,20,-1
 -40 10 l 1,21,-1
 -31 10 l 2,22,23
 -8 10 -8 10 14.5 23.5 c 128,-1,24
 37 37 37 37 52 64 c 1,25,-1
 285 575 l 1,26,27
 338 687 338 687 342 724 c 1,28,-1
 351 724 l 1,29,-1
 668 65 l 1,30,31
 700 10 700 10 752 10 c 2,0,-1
198 216 m 1,32,-1
 369 216 l 1,33,-1
 285 416 l 1,34,-1
 198 216 l 1,32,-1
EndSplineSet
EndChar

StartChar: B
Encoding: 66 66 37
Width: 731
GlyphClass: 2
Flags: W
LayerCount: 2
Fore
SplineSet
394 0 m 2,0,-1
 30 0 l 1,1,-1
 30 10 l 1,2,-1
 43 10 l 2,3,4
 79 10 79 10 98 41 c 0,5,6
 106 55 106 55 107 72 c 1,7,-1
 107 628 l 1,8,9
 106 664 106 664 75 682 c 0,10,11
 60 690 60 690 43 690 c 2,12,-1
 30 690 l 1,13,-1
 30 700 l 1,14,-1
 378 700 l 2,15,16
 656 700 656 700 656 526 c 0,17,18
 656 425 656 425 574 391 c 0,19,20
 551 382 551 382 525 381 c 1,21,22
 602 377 602 377 654.5 328.5 c 128,-1,23
 707 280 707 280 707 200 c 0,24,25
 707 100 707 100 622 50 c 128,-1,26
 537 0 537 0 394 0 c 2,0,-1
326 52 m 2,27,28
 391 52 391 52 431.5 91 c 128,-1,29
 472 130 472 130 472 209.5 c 128,-1,30
 472 289 472 289 440 329.5 c 128,-1,31
 408 370 408 370 346 370 c 1,32,-1
 346 379 l 1,33,34
 441 379 441 379 441 514.5 c 128,-1,35
 441 650 441 650 325 650 c 1,36,37
 325 650 325 650 325 650 c 1,38,-1
 312 650 l 1,39,-1
 312 52 l 1,40,-1
 325 52 l 2,41,42
 326 52 326 52 326 52 c 2,27,28
EndSplineSet
EndChar

StartChar: C
Encoding: 67 67 38
Width: 793
GlyphClass: 2
Flags: W
LayerCount: 2
Fore
SplineSet
35 351 m 0,0,1
 35 464 35 464 87 546 c 128,-1,2
 139 628 139 628 237.5 671 c 128,-1,3
 336 714 336 714 479 714 c 128,-1,4
 622 714 622 714 730 668 c 1,5,-1
 720 477 l 1,6,-1
 711 477 l 1,7,8
 682 578 682 578 627 621 c 128,-1,9
 572 664 572 664 490 664 c 0,10,11
 379 664 379 664 317 582 c 128,-1,12
 255 500 255 500 255 353.5 c 128,-1,13
 255 207 255 207 312.5 123 c 128,-1,14
 370 39 370 39 472 36 c 1,15,16
 590 36 590 36 643 92 c 0,17,18
 693 144 693 144 721 292 c 1,19,-1
 729 292 l 1,20,-1
 753 110 l 1,21,22
 679 -14 679 -14 473.5 -13.5 c 128,-1,23
 268 -13 268 -13 151.5 82.5 c 128,-1,24
 35 178 35 178 35 351 c 0,0,1
EndSplineSet
EndChar

StartChar: D
Encoding: 68 68 39
Width: 842
GlyphClass: 2
Flags: W
LayerCount: 2
Fore
SplineSet
808 350 m 128,-1,1
 808 185 808 185 702.5 92.5 c 128,-1,2
 597 0 597 0 409 0 c 2,3,-1
 30 0 l 1,4,-1
 30 10 l 1,5,-1
 43 10 l 2,6,7
 69 10 69 10 87.5 28.5 c 128,-1,8
 106 47 106 47 107 73 c 1,9,-1
 107 633 l 2,10,11
 107 657 107 657 87.5 673.5 c 128,-1,12
 68 690 68 690 43 690 c 2,13,-1
 31 690 l 1,14,-1
 30 700 l 1,15,-1
 409 700 l 2,16,17
 597 700 597 700 702.5 607.5 c 128,-1,0
 808 515 808 515 808 350 c 128,-1,1
312 650 m 1,18,-1
 312 50 l 1,19,-1
 389 50 l 2,20,21
 482 50 482 50 535 129.5 c 128,-1,22
 588 209 588 209 588 350 c 128,-1,23
 588 491 588 491 535 570.5 c 128,-1,24
 482 650 482 650 389 650 c 2,25,-1
 312 650 l 1,18,-1
EndSplineSet
EndChar

StartChar: E
Encoding: 69 69 40
Width: 667
GlyphClass: 2
Flags: W
LayerCount: 2
Fore
SplineSet
43 10 m 2,0,1
 69 10 69 10 87.5 28.5 c 128,-1,2
 106 47 106 47 107 73 c 1,3,-1
 107 627 l 1,4,5
 106 659 106 659 80 678 c 0,6,7
 64 690 64 690 43 690 c 2,8,-1
 30 690 l 1,9,-1
 30 700 l 1,10,-1
 473 700 l 2,11,12
 504 700 504 700 540.5 706 c 128,-1,13
 577 712 577 712 592 718 c 1,14,-1
 592 512 l 1,15,-1
 582 512 l 1,16,-1
 582 520 l 2,17,18
 582 600 582 600 524 632 c 0,19,20
 496 648 496 648 457 649 c 1,21,-1
 312 649 l 1,22,-1
 312 370 l 1,23,-1
 421 370 l 1,24,25
 469 371 469 371 499 401.5 c 128,-1,26
 529 432 529 432 529 480 c 2,27,-1
 529 484 l 1,28,-1
 539 484 l 1,29,-1
 539 206 l 1,30,-1
 529 206 l 1,31,-1
 529 211 l 2,32,33
 529 258 529 258 499 288.5 c 128,-1,34
 469 319 469 319 422 320 c 1,35,-1
 312 320 l 1,36,-1
 312 51 l 1,37,-1
 435 51 l 2,38,39
 508 51 508 51 564 99 c 128,-1,40
 620 147 620 147 643 232 c 1,41,-1
 653 232 l 1,42,-1
 615 0 l 1,43,-1
 30 0 l 1,44,-1
 30 10 l 1,45,-1
 43 10 l 2,0,1
EndSplineSet
EndChar

StartChar: F
Encoding: 70 70 41
Width: 631
GlyphClass: 2
Flags: W
LayerCount: 2
Fore
SplineSet
312 649 m 1,0,-1
 312 370 l 1,1,-1
 421 370 l 1,2,3
 469 371 469 371 499 401.5 c 128,-1,4
 529 432 529 432 529 479 c 2,5,-1
 529 484 l 1,6,-1
 539 484 l 1,7,-1
 539 206 l 1,8,-1
 529 206 l 1,9,-1
 529 211 l 2,10,11
 529 258 529 258 499 288.5 c 128,-1,12
 469 319 469 319 422 320 c 1,13,-1
 312 320 l 1,14,-1
 312 73 l 2,15,16
 312 47 312 47 331 28.5 c 128,-1,17
 350 10 350 10 376 10 c 2,18,-1
 389 10 l 1,19,-1
 389 0 l 1,20,-1
 30 0 l 1,21,-1
 30 10 l 1,22,-1
 43 10 l 2,23,24
 69 10 69 10 87.5 28.5 c 128,-1,25
 106 47 106 47 107 73 c 1,26,-1
 107 627 l 1,27,28
 106 653 106 653 87.5 671.5 c 128,-1,29
 69 690 69 690 43 690 c 2,30,-1
 30 690 l 1,31,-1
 30 700 l 1,32,-1
 473 700 l 2,33,34
 516 700 516 700 549 707 c 128,-1,35
 582 714 582 714 592 718 c 1,36,-1
 592 512 l 1,37,-1
 582 512 l 1,38,-1
 582 520 l 2,39,40
 582 600 582 600 524 632 c 0,41,42
 496 648 496 648 457 649 c 1,43,-1
 312 649 l 1,0,-1
EndSplineSet
EndChar

StartChar: G
Encoding: 71 71 42
Width: 861
GlyphClass: 2
Flags: W
LayerCount: 2
Fore
SplineSet
425 -14 m 0,0,1
 246 -14 246 -14 140.5 83.5 c 128,-1,2
 35 181 35 181 35 351.5 c 128,-1,3
 35 522 35 522 141 618 c 128,-1,4
 247 714 247 714 435 714 c 0,5,6
 516 714 516 714 602 700.5 c 128,-1,7
 688 687 688 687 733 668 c 1,8,-1
 723 477 l 1,9,-1
 714 477 l 1,10,11
 662 664 662 664 485 664 c 0,12,13
 255 664 255 664 255 342 c 0,14,15
 255 196 255 196 302.5 116 c 128,-1,16
 350 36 350 36 447 36 c 0,17,18
 500 36 500 36 539.5 64.5 c 128,-1,19
 579 93 579 93 579 143 c 2,20,-1
 580 280 l 2,21,22
 580 302 580 302 566.5 313.5 c 128,-1,23
 553 325 553 325 529 325 c 2,24,-1
 513 325 l 1,25,-1
 513 335 l 1,26,-1
 849 335 l 1,27,-1
 849 325 l 1,28,-1
 834 325 l 2,29,30
 809 325 809 325 796 313.5 c 128,-1,31
 783 302 783 302 784 280 c 1,32,-1
 784 115 l 1,33,34
 728 44 728 44 581 6 c 0,35,36
 505 -14 505 -14 425 -14 c 0,0,1
EndSplineSet
EndChar

StartChar: H
Encoding: 72 72 43
Width: 893
GlyphClass: 2
Flags: W
LayerCount: 2
Fore
SplineSet
517 10 m 2,0,1
 543 10 543 10 561.5 28 c 128,-1,2
 580 46 580 46 581 72 c 1,3,-1
 581 325 l 1,4,-1
 312 325 l 1,5,-1
 312 73 l 1,6,7
 313 36 313 36 344 18 c 0,8,9
 359 10 359 10 376 10 c 2,10,-1
 389 10 l 1,11,-1
 389 0 l 1,12,-1
 30 0 l 1,13,-1
 30 10 l 1,14,-1
 43 10 l 2,15,16
 69 10 69 10 87.5 28.5 c 128,-1,17
 106 47 106 47 107 73 c 1,18,-1
 107 628 l 1,19,20
 106 654 106 654 87.5 672 c 128,-1,21
 69 690 69 690 43 690 c 2,22,-1
 30 690 l 1,23,-1
 30 700 l 1,24,-1
 389 700 l 1,25,-1
 389 690 l 1,26,-1
 376 690 l 2,27,28
 350 690 350 690 331.5 672 c 128,-1,29
 313 654 313 654 312 628 c 1,30,-1
 312 375 l 1,31,-1
 581 375 l 1,32,-1
 581 628 l 1,33,34
 580 654 580 654 561.5 672 c 128,-1,35
 543 690 543 690 517 690 c 2,36,-1
 504 690 l 1,37,-1
 504 700 l 1,38,-1
 863 700 l 1,39,-1
 863 690 l 1,40,-1
 850 690 l 2,41,42
 814 690 814 690 795 659 c 1,43,44
 787 644 787 644 786 627 c 1,45,-1
 786 73 l 1,46,47
 787 47 787 47 805.5 28.5 c 128,-1,48
 824 10 824 10 850 10 c 2,49,-1
 863 10 l 1,50,-1
 863 0 l 1,51,-1
 504 0 l 1,52,-1
 504 10 l 1,53,-1
 517 10 l 2,0,1
EndSplineSet
EndChar

StartChar: I
Encoding: 73 73 44
Width: 418
GlyphClass: 2
Flags: W
LayerCount: 2
Fore
SplineSet
43 10 m 2,0,1
 69 10 69 10 87.5 28.5 c 128,-1,2
 106 47 106 47 107 73 c 1,3,-1
 107 628 l 1,4,5
 106 654 106 654 87.5 672 c 128,-1,6
 69 690 69 690 43 690 c 2,7,-1
 30 690 l 1,8,-1
 30 700 l 1,9,-1
 389 700 l 1,10,-1
 389 690 l 1,11,-1
 376 690 l 2,12,13
 350 690 350 690 331.5 672 c 128,-1,14
 313 654 313 654 312 628 c 1,15,-1
 312 73 l 2,16,17
 312 47 312 47 331 28.5 c 128,-1,18
 350 10 350 10 376 10 c 2,19,-1
 389 10 l 1,20,-1
 389 0 l 1,21,-1
 30 0 l 1,22,-1
 30 10 l 1,23,-1
 43 10 l 2,0,1
EndSplineSet
EndChar

StartChar: J
Encoding: 74 74 45
Width: 424
GlyphClass: 2
Flags: W
LayerCount: 2
Fore
SplineSet
381 690 m 2,0,1
 345 690 345 690 326 659 c 0,2,3
 318 645 318 645 317 627 c 1,4,-1
 317 50 l 2,5,6
 317 -32 317 -32 270.5 -94 c 128,-1,7
 224 -156 224 -156 150 -183 c 0,8,9
 97 -203 97 -203 40 -203 c 0,10,11
 18 -203 18 -203 -5 -200 c 1,12,-1
 -5 -191 l 1,13,14
 112 -138 112 -138 112 53 c 2,15,-1
 112 627 l 1,16,17
 111 653 111 653 92.5 671.5 c 128,-1,18
 74 690 74 690 48 690 c 2,19,-1
 35 690 l 1,20,-1
 35 700 l 1,21,-1
 394 700 l 1,22,-1
 394 690 l 1,23,-1
 381 690 l 2,0,1
EndSplineSet
EndChar

StartChar: K
Encoding: 75 75 46
Width: 822
GlyphClass: 2
Flags: W
LayerCount: 2
Fore
SplineSet
43 10 m 2,0,1
 69 10 69 10 87.5 28.5 c 128,-1,2
 106 47 106 47 107 73 c 1,3,-1
 107 628 l 1,4,5
 106 654 106 654 87.5 672 c 128,-1,6
 69 690 69 690 43 690 c 2,7,-1
 30 690 l 1,8,-1
 30 700 l 1,9,-1
 389 700 l 1,10,-1
 389 690 l 1,11,-1
 376 690 l 2,12,13
 350 690 350 690 331.5 672 c 128,-1,14
 313 654 313 654 312 628 c 1,15,-1
 312 73 l 2,16,17
 312 47 312 47 331 28.5 c 128,-1,18
 350 10 350 10 376 10 c 2,19,-1
 389 10 l 1,20,-1
 389 0 l 1,21,-1
 30 0 l 1,22,-1
 30 10 l 1,23,-1
 43 10 l 2,0,1
848 0 m 1,24,-1
 740 0 l 2,25,26
 556 0 556 0 483 100 c 0,27,28
 453 140 453 140 398.5 228.5 c 128,-1,29
 344 317 344 317 344 318 c 2,30,-1
 583 644 l 2,31,32
 590 654 590 654 590 662 c 128,-1,33
 590 670 590 670 587 676 c 0,34,35
 580 691 580 691 559 691 c 2,36,-1
 549 691 l 1,37,-1
 549 700 l 1,38,-1
 790 700 l 1,39,-1
 790 691 l 1,40,-1
 786 691 l 2,41,42
 719 691 719 691 676 642 c 1,43,-1
 507 438 l 1,44,-1
 741 86 l 2,45,46
 790 12 790 12 848 10 c 1,47,-1
 848 0 l 1,24,-1
EndSplineSet
EndChar

StartChar: L
Encoding: 76 76 47
Width: 652
GlyphClass: 2
Flags: W
LayerCount: 2
Fore
SplineSet
43 10 m 2,0,1
 69 10 69 10 87.5 28.5 c 128,-1,2
 106 47 106 47 107 73 c 1,3,-1
 107 627 l 1,4,5
 106 664 106 664 75 682 c 0,6,7
 60 690 60 690 43 690 c 2,8,-1
 30 690 l 1,9,-1
 30 700 l 1,10,-1
 389 700 l 1,11,-1
 389 690 l 1,12,-1
 376 690 l 2,13,14
 350 690 350 690 331 671.5 c 128,-1,15
 312 653 312 653 312 627 c 2,16,-1
 312 51 l 1,17,-1
 435 51 l 2,18,19
 508 51 508 51 564 99 c 128,-1,20
 620 147 620 147 643 232 c 1,21,-1
 653 232 l 1,22,-1
 615 0 l 1,23,-1
 30 0 l 1,24,-1
 30 10 l 1,25,-1
 43 10 l 2,0,1
EndSplineSet
EndChar

StartChar: M
Encoding: 77 77 48
Width: 968
GlyphClass: 2
Flags: W
LayerCount: 2
Fore
SplineSet
978 10 m 2,0,-1
 994 10 l 1,1,-1
 994 0 l 1,2,-1
 639 0 l 1,3,-1
 639 9 l 1,4,-1
 655 9 l 2,5,6
 671 9 671 9 682.5 22.5 c 128,-1,7
 694 36 694 36 694 52 c 1,8,-1
 656 344 l 1,9,-1
 486 92 l 2,10,11
 469 68 469 68 456 34 c 128,-1,12
 443 0 443 0 444 -24 c 1,13,-1
 435 -24 l 1,14,-1
 175 335 l 1,15,-1
 140 52 l 1,16,17
 140 36 140 36 151.5 22.5 c 128,-1,18
 163 9 163 9 179 9 c 2,19,-1
 195 9 l 1,20,-1
 195 0 l 1,21,-1
 -25 0 l 1,22,-1
 -25 10 l 1,23,-1
 -9 10 l 2,24,25
 19 10 19 10 39.5 27 c 128,-1,26
 60 44 60 44 64 73 c 2,27,-1
 152 714 l 1,28,-1
 161 714 l 1,29,-1
 497 255 l 1,30,-1
 805 714 l 1,31,-1
 814 714 l 1,32,-1
 905 73 l 1,33,34
 912 33 912 33 945 17 c 0,35,36
 960 10 960 10 978 10 c 2,0,-1
EndSplineSet
EndChar

StartChar: N
Encoding: 78 78 49
Width: 881
GlyphClass: 2
Flags: W
LayerCount: 2
Fore
SplineSet
843 690 m 2,0,1
 818 690 818 690 800 672.5 c 128,-1,2
 782 655 782 655 781 630 c 1,3,-1
 781 114 l 2,4,5
 781 40 781 40 791 0 c 1,6,-1
 794 -14 l 1,7,-1
 785 -14 l 1,8,-1
 306 412 l 1,9,-1
 306 71 l 2,10,11
 306 35 306 35 337 18 c 0,12,13
 351 10 351 10 367 10 c 2,14,-1
 386 10 l 1,15,-1
 386 0 l 1,16,-1
 20 0 l 1,17,-1
 20 10 l 1,18,-1
 39 10 l 2,19,20
 64 10 64 10 82 27.5 c 128,-1,21
 100 45 100 45 100 71 c 2,22,-1
 100 590 l 2,23,24
 100 660 100 660 90 701 c 1,25,-1
 87 715 l 1,26,-1
 97 715 l 1,27,-1
 576 289 l 1,28,-1
 576 629 l 1,29,30
 575 655 575 655 557 672.5 c 128,-1,31
 539 690 539 690 514 690 c 2,32,-1
 495 690 l 1,33,-1
 495 700 l 1,34,-1
 861 700 l 1,35,-1
 861 690 l 1,36,-1
 843 690 l 2,0,1
EndSplineSet
EndChar

StartChar: O
Encoding: 79 79 50
Width: 905
GlyphClass: 2
Flags: W
LayerCount: 2
Fore
SplineSet
450 714 m 0,0,1
 579 714 579 714 672.5 671 c 128,-1,2
 766 628 766 628 816 545.5 c 128,-1,3
 866 463 866 463 866 350 c 0,4,5
 866 179 866 179 755 82.5 c 128,-1,6
 644 -14 644 -14 450 -14 c 128,-1,7
 256 -14 256 -14 145.5 82.5 c 128,-1,8
 35 179 35 179 35 350 c 128,-1,9
 35 521 35 521 145.5 617.5 c 128,-1,10
 256 714 256 714 450 714 c 0,0,1
450.5 36 m 128,-1,12
 542 36 542 36 593.5 119 c 128,-1,13
 645 202 645 202 645 350 c 128,-1,14
 645 498 645 498 593.5 581 c 128,-1,15
 542 664 542 664 450.5 664 c 128,-1,16
 359 664 359 664 307.5 581 c 128,-1,17
 256 498 256 498 256 350 c 128,-1,18
 256 202 256 202 307.5 119 c 128,-1,11
 359 36 359 36 450.5 36 c 128,-1,12
EndSplineSet
EndChar

StartChar: P
Encoding: 80 80 51
Width: 707
GlyphClass: 2
Flags: W
LayerCount: 2
Fore
SplineSet
693 495 m 0,0,1
 693 449 693 449 674.5 406 c 128,-1,2
 656 363 656 363 621 334 c 0,3,4
 558 283 558 283 487 283 c 0,5,6
 415 283 415 283 351 329 c 1,7,-1
 351 339 l 1,8,9
 387 345 387 345 405.5 358.5 c 128,-1,10
 424 372 424 372 435 383 c 0,11,12
 460 410 460 410 468.5 446 c 128,-1,13
 477 482 477 482 477 497 c 0,14,15
 477 576 477 576 443 613 c 128,-1,16
 409 650 409 650 352 650 c 2,17,-1
 317 650 l 1,18,-1
 317 73 l 1,19,20
 318 47 318 47 336.5 28.5 c 128,-1,21
 355 10 355 10 381 10 c 2,22,-1
 394 10 l 1,23,-1
 394 0 l 1,24,-1
 35 0 l 1,25,-1
 35 10 l 1,26,-1
 48 10 l 2,27,28
 84 10 84 10 103 41 c 0,29,30
 112 56 112 56 112 73 c 2,31,-1
 112 633 l 1,32,33
 109 657 109 657 91 673.5 c 128,-1,34
 73 690 73 690 48 690 c 2,35,-1
 36 690 l 1,36,-1
 35 700 l 1,37,-1
 416 700 l 2,38,39
 553 700 553 700 626 643 c 1,40,41
 693 592 693 592 693 495 c 0,0,1
EndSplineSet
EndChar

StartChar: Q
Encoding: 81 81 52
Width: 912
GlyphClass: 2
Flags: W
LayerCount: 2
Fore
SplineSet
1269 -264 m 0,0,1
 1197 -306 1197 -306 1093 -306 c 0,2,3
 1057 -306 1057 -306 985 -289.5 c 128,-1,4
 913 -273 913 -273 843 -234.5 c 128,-1,5
 773 -196 773 -196 715 -155 c 128,-1,6
 657 -114 657 -114 621 -86 c 128,-1,7
 585 -58 585 -58 540 -36.5 c 128,-1,8
 495 -15 495 -15 453 -14 c 0,9,10
 260 -13 260 -13 150 83 c 128,-1,11
 40 179 40 179 40 350 c 128,-1,12
 40 521 40 521 150.5 617.5 c 128,-1,13
 261 714 261 714 455 714 c 0,14,15
 584 714 584 714 677.5 671 c 128,-1,16
 771 628 771 628 821 545.5 c 128,-1,17
 871 463 871 463 871 350 c 0,18,19
 871 178 871 178 760 82 c 0,20,21
 706 35 706 35 629 11 c 1,22,23
 713 -3 713 -3 776 -24.5 c 128,-1,24
 839 -46 839 -46 921 -76 c 0,25,26
 1056 -125 1056 -125 1170 -125 c 128,-1,27
 1284 -125 1284 -125 1369 -64 c 1,28,-1
 1376 -67 l 1,29,30
 1376 -131 1376 -131 1348.5 -182.5 c 128,-1,31
 1321 -234 1321 -234 1269 -264 c 0,0,1
261 350 m 128,-1,33
 261 202 261 202 312.5 119 c 128,-1,34
 364 36 364 36 455.5 36 c 128,-1,35
 547 36 547 36 598.5 119 c 128,-1,36
 650 202 650 202 650 350 c 128,-1,37
 650 498 650 498 598.5 581 c 128,-1,38
 547 664 547 664 455.5 664 c 128,-1,39
 364 664 364 664 312.5 581 c 128,-1,32
 261 498 261 498 261 350 c 128,-1,33
EndSplineSet
EndChar

StartChar: R
Encoding: 82 82 53
Width: 793
GlyphClass: 2
Flags: W
LayerCount: 2
Fore
SplineSet
675 590 m 0,0,1
 691 555 691 555 691 517.5 c 128,-1,2
 691 480 691 480 683 451.5 c 128,-1,3
 675 423 675 423 658 395 c 0,4,5
 621 335 621 335 531 321 c 1,6,7
 570 310 570 310 601 282 c 1,8,9
 634 254 634 254 663 204 c 0,10,11
 738 76 738 76 778 39 c 0,12,13
 808 11 808 11 854 10 c 1,14,-1
 854 0 l 1,15,-1
 729 0 l 2,16,17
 599 0 599 0 543 29 c 0,18,19
 463 70 463 70 429 170 c 0,20,21
 420 199 420 199 413.5 231 c 128,-1,22
 407 263 407 263 402.5 277.5 c 128,-1,23
 398 292 398 292 392 304.5 c 128,-1,24
 386 317 386 317 379 324 c 0,25,26
 367 336 367 336 351 342 c 1,27,-1
 351 352 l 1,28,-1
 367 352 l 2,29,30
 425 352 425 352 454 405 c 0,31,32
 469 433 469 433 472.5 465.5 c 128,-1,33
 476 498 476 498 476 506 c 128,-1,34
 476 514 476 514 476 516 c 0,35,36
 469 648 469 648 362 648 c 2,37,-1
 318 648 l 1,38,-1
 318 73 l 2,39,40
 318 47 318 47 337 28.5 c 128,-1,41
 356 10 356 10 382 10 c 2,42,-1
 394 10 l 1,43,-1
 394 0 l 1,44,-1
 35 0 l 1,45,-1
 35 10 l 1,46,-1
 48 10 l 2,47,48
 74 10 74 10 92.5 28 c 128,-1,49
 111 46 111 46 112 72 c 1,50,-1
 112 627 l 1,51,52
 111 664 111 664 80 682 c 0,53,54
 65 690 65 690 48 690 c 2,55,-1
 35 690 l 1,56,-1
 35 700 l 1,57,-1
 426 700 l 2,58,59
 622 700 622 700 675 590 c 0,0,1
EndSplineSet
EndChar

StartChar: S
Encoding: 83 83 54
Width: 645
GlyphClass: 2
Flags: W
LayerCount: 2
Fore
SplineSet
520 45.5 m 128,-1,1
 434 -14 434 -14 291 -14 c 0,2,3
 208 -14 208 -14 145 4.5 c 128,-1,4
 82 23 82 23 54 51 c 1,5,6
 45 73 45 73 45 98.5 c 128,-1,7
 45 124 45 124 49 148 c 0,8,9
 60 207 60 207 86 240 c 1,10,-1
 95 240 l 1,11,12
 94 234 94 234 94 227 c 0,13,14
 94 153 94 153 152.5 94.5 c 128,-1,15
 211 36 211 36 312 36 c 0,16,17
 380 36 380 36 416.5 64.5 c 128,-1,18
 453 93 453 93 453 129.5 c 128,-1,19
 453 166 453 166 428 192 c 128,-1,20
 403 218 403 218 347 244 c 2,21,-1
 184 320 l 1,22,23
 115 351 115 351 84 407 c 0,24,25
 59 451 59 451 59 504 c 0,26,27
 59 612 59 612 132 668 c 0,28,29
 193 714 193 714 294 714 c 0,30,31
 360 714 360 714 463 704 c 1,32,-1
 541 704 l 1,33,-1
 519 541 l 1,34,-1
 509 541 l 1,35,36
 509 596 509 596 466 630 c 128,-1,37
 423 664 423 664 356.5 664 c 128,-1,38
 290 664 290 664 253.5 641 c 128,-1,39
 217 618 217 618 214 580 c 0,40,41
 210 533 210 533 274 500 c 0,42,43
 285 494 285 494 303 487 c 1,44,-1
 490 400 l 2,45,46
 606 347 606 347 606 226 c 128,-1,0
 606 105 606 105 520 45.5 c 128,-1,1
EndSplineSet
EndChar

StartChar: T
Encoding: 84 84 55
Width: 698
GlyphClass: 2
Flags: W
LayerCount: 2
Fore
SplineSet
452 651 m 1,0,-1
 452 72 l 1,1,2
 453 46 453 46 471.5 28 c 128,-1,3
 490 10 490 10 516 10 c 2,4,-1
 529 10 l 1,5,-1
 529 0 l 1,6,-1
 170 0 l 1,7,-1
 170 10 l 1,8,-1
 183 10 l 2,9,10
 209 10 209 10 227.5 28 c 128,-1,11
 246 46 246 46 247 71 c 1,12,-1
 247 651 l 1,13,-1
 148 651 l 1,14,15
 88 650 88 650 54 615.5 c 128,-1,16
 20 581 20 581 20 521 c 2,17,-1
 20 514 l 1,18,-1
 10 513 l 1,19,-1
 10 719 l 1,20,21
 24 713 24 713 60.5 707 c 128,-1,22
 97 701 97 701 128 701 c 2,23,-1
 571 701 l 2,24,25
 602 701 602 701 638 707 c 128,-1,26
 674 713 674 713 689 719 c 1,27,-1
 689 513 l 1,28,-1
 679 514 l 1,29,-1
 679 521 l 2,30,31
 679 602 679 602 619 635 c 0,32,33
 590 650 590 650 550 651 c 1,34,-1
 452 651 l 1,0,-1
EndSplineSet
EndChar

StartChar: U
Encoding: 85 85 56
Width: 845
GlyphClass: 2
Flags: W
LayerCount: 2
Fore
SplineSet
825 690 m 1,0,-1
 809 690 l 2,1,2
 788 690 788 690 772.5 676.5 c 128,-1,3
 757 663 757 663 756 643 c 1,4,-1
 756 257 l 2,5,6
 756 130 756 130 677.5 58 c 128,-1,7
 599 -14 599 -14 456 -14 c 0,8,9
 277 -14 277 -14 188 56 c 128,-1,10
 99 126 99 126 99 256 c 2,11,-1
 99 640 l 2,12,13
 99 662 99 662 83.5 676 c 128,-1,14
 68 690 68 690 46 690 c 2,15,-1
 30 690 l 1,16,-1
 30 700 l 1,17,-1
 373 700 l 1,18,-1
 373 690 l 1,19,-1
 357 690 l 2,20,21
 335 690 335 690 320 676.5 c 128,-1,22
 305 663 305 663 304 642 c 1,23,-1
 304 260 l 2,24,25
 304 155 304 155 352 96 c 128,-1,26
 400 37 400 37 486 37 c 128,-1,27
 572 37 572 37 620.5 92.5 c 128,-1,28
 669 148 669 148 669 247 c 2,29,-1
 669 642 l 1,30,31
 668 663 668 663 653 676.5 c 128,-1,32
 638 690 638 690 616 690 c 2,33,-1
 600 690 l 1,34,-1
 600 700 l 1,35,-1
 825 700 l 1,36,-1
 825 690 l 1,0,-1
EndSplineSet
EndChar

StartChar: V
Encoding: 86 86 57
Width: 720
GlyphClass: 2
Flags: W
LayerCount: 2
Fore
SplineSet
760 690 m 1,0,-1
 751 690 l 2,1,2
 699 690 699 690 668 636 c 1,3,-1
 435 125 l 1,4,5
 382 13 382 13 378 -24 c 1,6,-1
 369 -24 l 1,7,-1
 52 635 l 1,8,9
 21 690 21 690 -32 690 c 2,10,-1
 -40 690 l 1,11,-1
 -40 700 l 1,12,-1
 339 700 l 1,13,-1
 339 690 l 1,14,-1
 330 690 l 2,15,16
 309 690 309 690 298.5 676.5 c 128,-1,17
 288 663 288 663 288 651 c 128,-1,18
 288 639 288 639 292 627 c 2,19,-1
 435 284 l 1,20,-1
 584 627 l 2,21,22
 590 640 590 640 590 651.5 c 128,-1,23
 590 663 590 663 579 676.5 c 128,-1,24
 568 690 568 690 546 690 c 2,25,-1
 537 690 l 1,26,-1
 537 700 l 1,27,-1
 760 700 l 1,28,-1
 760 690 l 1,0,-1
EndSplineSet
EndChar

StartChar: W
Encoding: 87 87 58
Width: 964
GlyphClass: 2
Flags: W
LayerCount: 2
Fore
SplineSet
1004 690 m 1,0,-1
 996 690 l 2,1,2
 971 690 971 690 946 675.5 c 128,-1,3
 921 661 921 661 910 633 c 1,4,-1
 740 89 l 2,5,6
 725 42 725 42 725 -5 c 0,7,8
 725 -14 725 -14 726 -22 c 1,9,-1
 716 -22 l 1,10,-1
 485 413 l 1,11,-1
 327 89 l 1,12,13
 301 33 301 33 300 -22 c 1,14,-1
 291 -22 l 1,15,-1
 44 633 l 1,16,17
 30 662 30 662 6.5 676 c 128,-1,18
 -17 690 -17 690 -42 690 c 2,19,-1
 -50 690 l 1,20,-1
 -50 700 l 1,21,-1
 309 700 l 1,22,-1
 309 690 l 1,23,-1
 300 690 l 2,24,25
 270 690 270 690 260 662 c 1,26,27
 259 656 259 656 259 648 c 128,-1,28
 259 640 259 640 263 628 c 2,29,-1
 372 356 l 1,30,-1
 545 716 l 1,31,-1
 554 715 l 1,32,-1
 753 347 l 1,33,-1
 833 628 l 1,34,35
 835 639 835 639 835 647.5 c 128,-1,36
 835 656 835 656 832 666 c 128,-1,37
 829 676 829 676 819 683 c 128,-1,38
 809 690 809 690 795 690 c 2,39,-1
 786 690 l 1,40,-1
 786 700 l 1,41,-1
 1004 700 l 1,42,-1
 1004 690 l 1,0,-1
EndSplineSet
EndChar

StartChar: X
Encoding: 88 88 59
Width: 773
GlyphClass: 2
Flags: W
LayerCount: 2
Fore
SplineSet
419 10 m 2,0,1
 440 10 440 10 453 31 c 0,2,3
 459 41 459 41 459 51 c 128,-1,4
 459 61 459 61 453 72 c 1,5,-1
 321 273 l 1,6,-1
 179 72 l 1,7,8
 162 42 162 42 189 20 c 0,9,10
 201 10 201 10 214 10 c 2,11,-1
 227 10 l 1,12,-1
 227 0 l 1,13,-1
 -33 0 l 1,14,-1
 -33 10 l 1,15,-1
 -19 10 l 2,16,17
 35 10 35 10 80 67 c 1,18,-1
 279 339 l 1,19,-1
 88 632 l 1,20,21
 71 656 71 656 44 673 c 128,-1,22
 17 690 17 690 -13 690 c 2,23,-1
 -27 690 l 1,24,-1
 -27 700 l 1,25,-1
 375 700 l 1,26,-1
 375 690 l 1,27,-1
 363 690 l 2,28,29
 341 690 341 690 329 669 c 1,30,31
 322 659 322 659 322 648.5 c 128,-1,32
 322 638 322 638 328 628 c 2,33,-1
 445 451 l 1,34,-1
 558 628 l 2,35,36
 564 638 564 638 564 648.5 c 128,-1,37
 564 659 564 659 558 669 c 0,38,39
 545 690 545 690 523 690 c 2,40,-1
 511 690 l 1,41,-1
 510 700 l 1,42,-1
 769 700 l 1,43,-1
 769 690 l 1,44,-1
 755 690 l 2,45,46
 726 690 726 690 700 673.5 c 128,-1,47
 674 657 674 657 656 632 c 1,48,-1
 489 383 l 1,49,-1
 695 68 l 2,50,51
 711 44 711 44 738.5 27 c 128,-1,52
 766 10 766 10 796 10 c 2,53,-1
 810 10 l 1,54,-1
 810 0 l 1,55,-1
 406 0 l 1,56,-1
 406 10 l 1,57,-1
 419 10 l 2,0,1
EndSplineSet
EndChar

StartChar: Y
Encoding: 89 89 60
Width: 729
GlyphClass: 2
Flags: W
LayerCount: 2
Fore
SplineSet
775 690 m 1,0,-1
 761 690 l 2,1,2
 731 690 731 690 703.5 673 c 128,-1,3
 676 656 676 656 660 631 c 2,4,-1
 464 322 l 1,5,-1
 464 73 l 2,6,7
 464 47 464 47 482.5 28.5 c 128,-1,8
 501 10 501 10 528 10 c 2,9,-1
 540 10 l 1,10,-1
 540 0 l 1,11,-1
 182 0 l 1,12,-1
 182 10 l 1,13,-1
 195 10 l 2,14,15
 221 10 221 10 239.5 28 c 128,-1,16
 258 46 258 46 259 72 c 1,17,-1
 259 322 l 1,18,-1
 68 633 l 2,19,20
 43 672 43 672 -1 685 c 0,21,22
 -16 690 -16 690 -31 690 c 2,23,-1
 -45 690 l 1,24,-1
 -45 700 l 1,25,-1
 341 700 l 1,26,-1
 341 690 l 1,27,-1
 329 690 l 2,28,29
 307 690 307 690 295 670 c 0,30,31
 288 659 288 659 288 648.5 c 128,-1,32
 288 638 288 638 294 628 c 2,33,-1
 431 381 l 1,34,-1
 573 628 l 2,35,36
 579 638 579 638 579 648 c 128,-1,37
 579 658 579 658 572 669 c 0,38,39
 559 690 559 690 538 690 c 2,40,-1
 526 690 l 1,41,-1
 526 700 l 1,42,-1
 775 700 l 1,43,-1
 775 690 l 1,0,-1
EndSplineSet
EndChar

StartChar: Z
Encoding: 90 90 61
Width: 668
GlyphClass: 2
Flags: W
LayerCount: 2
Fore
SplineSet
49 719 m 1,0,1
 64 713 64 713 101.5 707 c 128,-1,2
 139 701 139 701 154.5 701 c 128,-1,3
 170 701 170 701 170 701 c 1,4,-1
 515 701 l 2,5,6
 557 701 557 701 586 706 c 128,-1,7
 615 711 615 711 621 714 c 1,8,-1
 621 705 l 1,9,-1
 285 50 l 1,10,-1
 426 50 l 2,11,12
 499 50 499 50 555 98.5 c 128,-1,13
 611 147 611 147 634 232 c 1,14,-1
 644 232 l 1,15,-1
 606 0 l 1,16,-1
 35 0 l 1,17,-1
 35 9 l 1,18,-1
 367 651 l 1,19,-1
 187 651 l 1,20,21
 127 650 127 650 93 615.5 c 128,-1,22
 59 581 59 581 59 521 c 2,23,-1
 59 513 l 1,24,-1
 49 513 l 1,25,-1
 49 719 l 1,0,1
EndSplineSet
EndChar

StartChar: bracketleft
Encoding: 91 91 62
Width: 472
GlyphClass: 2
Flags: W
LayerCount: 2
Fore
SplineSet
120 -90 m 1,0,-1
 120 722 l 1,1,-1
 429 722 l 1,2,-1
 429 712 l 1,3,-1
 325 662 l 1,4,-1
 325 -30 l 1,5,-1
 432 -80 l 1,6,-1
 432 -90 l 1,7,-1
 120 -90 l 1,0,-1
EndSplineSet
EndChar

StartChar: backslash
Encoding: 92 92 63
Width: 439
GlyphClass: 2
Flags: W
LayerCount: 2
Fore
SplineSet
10 696 m 1,0,-1
 69 723 l 1,1,-1
 430 14 l 1,2,-1
 371 -14 l 1,3,-1
 10 696 l 1,0,-1
EndSplineSet
EndChar

StartChar: bracketright
Encoding: 93 93 64
Width: 472
GlyphClass: 2
Flags: W
LayerCount: 2
Fore
SplineSet
43 722 m 1,0,-1
 352 722 l 1,1,-1
 352 -90 l 1,2,-1
 40 -90 l 1,3,-1
 40 -80 l 1,4,-1
 147 -30 l 1,5,-1
 147 662 l 1,6,-1
 43 712 l 1,7,-1
 43 722 l 1,0,-1
EndSplineSet
EndChar

StartChar: asciicircum
Encoding: 94 94 65
Width: 572
GlyphClass: 2
Flags: W
LayerCount: 2
Fore
SplineSet
253 381 m 1,0,-1
 321 381 l 1,1,-1
 538 172 l 1,2,-1
 449 172 l 1,3,-1
 287 325 l 1,4,-1
 124 172 l 1,5,-1
 35 172 l 1,6,-1
 253 381 l 1,0,-1
EndSplineSet
EndChar

StartChar: underscore
Encoding: 95 95 66
Width: 500
GlyphClass: 2
Flags: W
LayerCount: 2
Fore
SplineSet
0 -110 m 1,0,-1
 0 -60 l 1,1,-1
 500 -60 l 1,2,-1
 500 -110 l 1,3,-1
 0 -110 l 1,0,-1
EndSplineSet
EndChar

StartChar: grave
Encoding: 96 96 67
Width: 600
GlyphClass: 2
Flags: W
LayerCount: 2
Fore
SplineSet
294 750 m 1,0,-1
 287 743 l 1,1,2
 234 749 234 749 169 776 c 128,-1,3
 104 803 104 803 54 836 c 1,4,5
 75 909 75 909 139 936 c 1,6,7
 182 899 182 899 228.5 846.5 c 128,-1,8
 275 794 275 794 294 750 c 1,0,-1
EndSplineSet
EndChar

StartChar: a
Encoding: 97 97 68
Width: 632
GlyphClass: 2
Flags: W
LayerCount: 2
Fore
SplineSet
668 10 m 2,0,-1
 676 10 l 1,1,-1
 676 0 l 1,2,-1
 324 0 l 1,3,-1
 324 10 l 1,4,-1
 332 10 l 2,5,6
 352 10 352 10 361.5 20.5 c 128,-1,7
 371 31 371 31 371 40.5 c 128,-1,8
 371 50 371 50 366 61 c 2,9,-1
 337 127 l 1,10,-1
 152 127 l 1,11,-1
 122 58 l 2,12,13
 118 49 118 49 118 40 c 128,-1,14
 118 31 118 31 127.5 20.5 c 128,-1,15
 137 10 137 10 157 10 c 2,16,-1
 164 10 l 1,17,-1
 164 0 l 1,18,-1
 -42 0 l 1,19,-1
 -42 10 l 1,20,-1
 -34 10 l 2,21,22
 -13 10 -13 10 8.5 22 c 128,-1,23
 30 34 30 34 42 59 c 2,24,-1
 248 503 l 2,25,26
 297 610 297 610 300 636 c 1,27,-1
 308 636 l 1,28,-1
 590 61 l 2,29,30
 616 10 616 10 668 10 c 2,0,-1
171 172 m 1,31,-1
 317 172 l 1,32,-1
 244 340 l 1,33,-1
 171 172 l 1,31,-1
EndSplineSet
EndChar

StartChar: b
Encoding: 98 98 69
Width: 626
GlyphClass: 2
Flags: W
LayerCount: 2
Fore
SplineSet
552 525 m 0,0,1
 571 494 571 494 571 442.5 c 128,-1,2
 571 391 571 391 539 359 c 128,-1,3
 507 327 507 327 462 327 c 1,4,5
 524 324 524 324 567.5 283.5 c 128,-1,6
 611 243 611 243 611 173 c 0,7,8
 611 85 611 85 538 42.5 c 128,-1,9
 465 0 465 0 341 0 c 2,10,-1
 23 0 l 1,11,-1
 23 10 l 1,12,-1
 34 10 l 2,13,14
 56 10 56 10 71 25 c 128,-1,15
 86 40 86 40 86 62 c 2,16,-1
 86 538 l 2,17,18
 86 560 86 560 71 575 c 128,-1,19
 56 590 56 590 34 590 c 2,20,-1
 23 590 l 1,21,-1
 23 600 l 1,22,-1
 334 600 l 2,23,24
 506 600 506 600 552 525 c 0,0,1
359 81.5 m 128,-1,26
 390 115 390 115 390 182 c 128,-1,27
 390 249 390 249 371.5 283 c 128,-1,28
 353 317 353 317 308 317 c 0,29,30
 307 317 307 317 306 317 c 1,31,-1
 306 325 l 1,32,33
 343 325 343 325 356.5 353 c 128,-1,34
 370 381 370 381 370 435 c 0,35,36
 370 555 370 555 281 555 c 2,37,-1
 278 555 l 1,38,-1
 278 46 l 1,39,25
 328 48 328 48 359 81.5 c 128,-1,26
EndSplineSet
EndChar

StartChar: c
Encoding: 99 99 70
Width: 668
GlyphClass: 2
Flags: W
LayerCount: 2
Fore
SplineSet
124 70 m 128,-1,1
 23 151 23 151 23 299.5 c 128,-1,2
 23 448 23 448 123 530 c 128,-1,3
 223 612 223 612 404 612 c 0,4,5
 531 612 531 612 622 576 c 1,6,-1
 609 406 l 1,7,-1
 602 406 l 1,8,9
 576 494 576 494 531.5 530.5 c 128,-1,10
 487 567 487 567 421 567 c 0,11,12
 322 567 322 567 274.5 496.5 c 128,-1,13
 227 426 227 426 227 304 c 128,-1,14
 227 182 227 182 273 110 c 1,15,16
 319 36 319 36 404 33 c 1,17,18
 474 33 474 33 510 54 c 0,19,20
 549 76 549 76 569 122 c 0,21,22
 588 166 588 166 606 250 c 1,23,-1
 613 250 l 1,24,-1
 639 90 l 1,25,26
 579 -12 579 -12 402 -11.5 c 128,-1,0
 225 -11 225 -11 124 70 c 128,-1,1
EndSplineSet
EndChar

StartChar: d
Encoding: 100 100 71
Width: 741
GlyphClass: 2
Flags: W
LayerCount: 2
Fore
SplineSet
717 299.5 m 128,-1,1
 717 157 717 157 623 78.5 c 128,-1,2
 529 0 529 0 359 0 c 2,3,-1
 19 0 l 1,4,-1
 19 10 l 1,5,-1
 31 10 l 2,6,7
 54 10 54 10 70.5 26 c 128,-1,8
 87 42 87 42 87 64 c 2,9,-1
 87 539 l 1,10,11
 85 561 85 561 69 575.5 c 128,-1,12
 53 590 53 590 30 590 c 2,13,-1
 18 590 l 1,14,-1
 18 600 l 1,15,-1
 359 600 l 2,16,17
 529 600 529 600 623 521 c 128,-1,0
 717 442 717 442 717 299.5 c 128,-1,1
283 555 m 1,18,-1
 283 46 l 1,19,-1
 340 46 l 2,20,21
 420 46 420 46 466 113 c 128,-1,22
 512 180 512 180 512 300 c 0,23,24
 512 462 512 462 432 525 c 0,25,26
 393 555 393 555 340 555 c 2,27,-1
 283 555 l 1,18,-1
EndSplineSet
EndChar

StartChar: e
Encoding: 101 101 72
Width: 575
GlyphClass: 2
Flags: W
LayerCount: 2
Fore
SplineSet
21 0 m 1,0,-1
 21 10 l 1,1,-1
 32 10 l 2,2,3
 53 10 53 10 64 21 c 0,4,5
 84 40 84 40 84 62 c 2,6,-1
 84 537 l 2,7,8
 84 560 84 560 68.5 575 c 128,-1,9
 53 590 53 590 32 590 c 2,10,-1
 21 590 l 1,11,-1
 21 600 l 1,12,-1
 411 600 l 2,13,14
 436 600 436 600 467 605 c 128,-1,15
 498 610 498 610 510 615 c 1,16,-1
 510 426 l 1,17,-1
 500 426 l 1,18,-1
 500 431 l 2,19,20
 500 489 500 489 469.5 521 c 128,-1,21
 439 553 439 553 383 554 c 1,22,-1
 280 554 l 1,23,-1
 280 319 l 1,24,-1
 357 319 l 1,25,26
 401 320 401 320 428.5 348.5 c 128,-1,27
 456 377 456 377 456 422 c 2,28,-1
 456 424 l 1,29,-1
 466 424 l 1,30,-1
 466 166 l 1,31,-1
 456 166 l 1,32,-1
 456 170 l 2,33,34
 456 214 456 214 428.5 243 c 128,-1,35
 401 272 401 272 357 272 c 2,36,-1
 280 272 l 1,37,-1
 280 46 l 1,38,-1
 376 46 l 2,39,40
 436 46 436 46 485 90 c 128,-1,41
 534 134 534 134 552 210 c 1,42,-1
 561 210 l 1,43,-1
 533 0 l 1,44,-1
 21 0 l 1,0,-1
EndSplineSet
EndChar

StartChar: f
Encoding: 102 102 73
Width: 542
GlyphClass: 2
Flags: W
LayerCount: 2
Fore
SplineSet
510 424 m 1,0,-1
 500 424 l 1,1,-1
 500 430 l 2,2,3
 500 508 500 508 446 538 c 0,4,5
 419 553 419 553 381 554 c 1,6,-1
 280 554 l 1,7,-1
 280 319 l 1,8,-1
 356 319 l 1,9,10
 401 320 401 320 428.5 348.5 c 128,-1,11
 456 377 456 377 456 422 c 2,12,-1
 456 424 l 1,13,-1
 466 424 l 1,14,-1
 466 166 l 1,15,-1
 456 166 l 1,16,-1
 456 170 l 2,17,18
 456 214 456 214 428.5 243 c 128,-1,19
 401 272 401 272 356 272 c 2,20,-1
 280 272 l 1,21,-1
 280 62 l 1,22,23
 281 31 281 31 306 17 c 0,24,25
 318 10 318 10 333 10 c 2,26,-1
 343 10 l 1,27,-1
 343 0 l 1,28,-1
 21 0 l 1,29,-1
 21 10 l 1,30,-1
 32 10 l 2,31,32
 53 10 53 10 68.5 25 c 128,-1,33
 84 40 84 40 84 62 c 2,34,-1
 84 537 l 2,35,36
 84 560 84 560 68.5 575 c 128,-1,37
 53 590 53 590 32 590 c 2,38,-1
 21 590 l 1,39,-1
 21 600 l 1,40,-1
 411 600 l 2,41,42
 436 600 436 600 467 605 c 128,-1,43
 498 610 498 610 510 615 c 1,44,-1
 510 424 l 1,0,-1
EndSplineSet
EndChar

StartChar: g
Encoding: 103 103 74
Width: 723
GlyphClass: 2
Flags: W
LayerCount: 2
Fore
SplineSet
354.5 -12 m 128,-1,1
 254 -12 254 -12 180 25 c 128,-1,2
 106 62 106 62 65 133 c 128,-1,3
 24 204 24 204 24 302 c 0,4,5
 24 448 24 448 113.5 530 c 128,-1,6
 203 612 203 612 365 612 c 0,7,8
 433 612 433 612 509 601.5 c 128,-1,9
 585 591 585 591 622 576 c 1,10,-1
 608 406 l 1,11,-1
 601 406 l 1,12,13
 556 567 556 567 416 567 c 0,14,15
 319 567 319 567 273.5 497.5 c 128,-1,16
 228 428 228 428 228 292 c 0,17,18
 228 33 228 33 377 33 c 0,19,20
 418 33 418 33 444.5 56.5 c 128,-1,21
 471 80 471 80 471 113 c 0,22,23
 471 120 471 120 470 128 c 1,24,-1
 470 240 l 2,25,26
 470 259 470 259 459 269.5 c 128,-1,27
 448 280 448 280 428 280 c 2,28,-1
 414 280 l 1,29,-1
 414 288 l 1,30,-1
 719 288 l 1,31,-1
 719 280 l 1,32,-1
 707 280 l 2,33,34
 664 280 664 280 664 240 c 2,35,-1
 664 98 l 1,36,37
 633 56 633 56 544 22 c 128,-1,0
 455 -12 455 -12 354.5 -12 c 128,-1,1
EndSplineSet
EndChar

StartChar: h
Encoding: 104 104 75
Width: 754
GlyphClass: 2
Flags: W
LayerCount: 2
Fore
SplineSet
670 538 m 2,0,-1
 670 62 l 2,1,2
 670 31 670 31 696 17 c 0,3,4
 708 10 708 10 722 10 c 2,5,-1
 733 10 l 1,6,-1
 733 0 l 1,7,-1
 412 0 l 1,8,-1
 412 10 l 1,9,-1
 422 10 l 2,10,11
 444 10 444 10 459 25 c 128,-1,12
 474 40 474 40 475 62 c 1,13,-1
 475 278 l 1,14,-1
 280 278 l 1,15,-1
 280 62 l 1,16,17
 281 40 281 40 296 25 c 128,-1,18
 311 10 311 10 333 10 c 2,19,-1
 343 10 l 1,20,-1
 343 0 l 1,21,-1
 21 0 l 1,22,-1
 21 10 l 1,23,-1
 32 10 l 2,24,25
 53 10 53 10 68.5 25 c 128,-1,26
 84 40 84 40 84 62 c 2,27,-1
 84 538 l 2,28,29
 84 560 84 560 68.5 575 c 128,-1,30
 53 590 53 590 32 590 c 2,31,-1
 21 590 l 1,32,-1
 21 600 l 1,33,-1
 343 600 l 1,34,-1
 343 590 l 1,35,-1
 333 590 l 2,36,37
 311 590 311 590 296 575 c 128,-1,38
 281 560 281 560 280 538 c 1,39,-1
 280 324 l 1,40,-1
 475 324 l 1,41,-1
 475 538 l 1,42,43
 474 560 474 560 459 575 c 128,-1,44
 444 590 444 590 422 590 c 2,45,-1
 412 590 l 1,46,-1
 412 600 l 1,47,-1
 734 600 l 1,48,-1
 734 590 l 1,49,-1
 723 590 l 2,50,51
 701 590 701 590 685.5 575.5 c 128,-1,52
 670 561 670 561 670 538 c 2,0,-1
EndSplineSet
EndChar

StartChar: i
Encoding: 105 105 76
Width: 363
GlyphClass: 2
Flags: W
LayerCount: 2
Fore
SplineSet
331 10 m 2,0,-1
 342 10 l 1,1,-1
 342 0 l 1,2,-1
 21 0 l 1,3,-1
 21 10 l 1,4,-1
 32 10 l 2,5,6
 53 10 53 10 68 25 c 128,-1,7
 83 40 83 40 83 62 c 2,8,-1
 83 538 l 2,9,10
 83 560 83 560 68 575 c 128,-1,11
 53 590 53 590 32 590 c 2,12,-1
 21 590 l 1,13,-1
 21 600 l 1,14,-1
 341 600 l 1,15,-1
 341 590 l 1,16,-1
 331 590 l 2,17,18
 301 590 301 590 287 565 c 0,19,20
 280 553 280 553 279 538 c 1,21,-1
 279 62 l 1,22,23
 280 40 280 40 295 25 c 128,-1,24
 310 10 310 10 331 10 c 2,0,-1
EndSplineSet
EndChar

StartChar: j
Encoding: 106 106 77
Width: 361
GlyphClass: 2
Flags: W
LayerCount: 2
Fore
SplineSet
330 590 m 2,0,1
 309 590 309 590 293.5 574.5 c 128,-1,2
 278 559 278 559 276 537 c 1,3,-1
 276 51 l 2,4,5
 276 -24 276 -24 233.5 -79.5 c 128,-1,6
 191 -135 191 -135 126 -159 c 1,7,8
 79 -175 79 -175 44 -175 c 128,-1,9
 9 -175 9 -175 -13 -172 c 1,10,-1
 -13 -163 l 1,11,12
 48 -134 48 -134 66 -70 c 0,13,14
 80 -18 80 -18 80 54 c 2,15,-1
 80 535 l 2,16,17
 80 558 80 558 64 574 c 128,-1,18
 48 590 48 590 26 590 c 2,19,-1
 16 590 l 1,20,-1
 15 600 l 1,21,-1
 341 600 l 1,22,-1
 341 590 l 1,23,-1
 330 590 l 2,0,1
EndSplineSet
EndChar

StartChar: k
Encoding: 107 107 78
Width: 705
GlyphClass: 2
Flags: W
LayerCount: 2
Fore
SplineSet
335 10 m 2,0,-1
 345 10 l 1,1,-1
 345 0 l 1,2,-1
 23 0 l 1,3,-1
 23 10 l 1,4,-1
 33 10 l 2,5,6
 55 10 55 10 70 25 c 128,-1,7
 85 40 85 40 86 62 c 1,8,-1
 86 539 l 1,9,10
 85 561 85 561 69.5 576 c 128,-1,11
 54 591 54 591 33 591 c 2,12,-1
 22 591 l 1,13,-1
 22 601 l 1,14,-1
 345 601 l 1,15,-1
 345 591 l 1,16,-1
 335 591 l 2,17,18
 313 591 313 591 297.5 576 c 128,-1,19
 282 561 282 561 282 538 c 2,20,-1
 282 62 l 2,21,22
 282 40 282 40 297.5 25 c 128,-1,23
 313 10 313 10 335 10 c 2,0,-1
635 0 m 1,24,-1
 624 0 l 2,25,26
 469 0 469 0 404 90 c 0,27,28
 376 128 376 128 341.5 197.5 c 128,-1,29
 307 267 307 267 307 268 c 2,30,-1
 506 552 l 2,31,32
 517 567 517 567 510.5 579.5 c 128,-1,33
 504 592 504 592 487 592 c 2,34,-1
 479 592 l 1,35,-1
 479 600 l 1,36,-1
 683 600 l 1,37,-1
 683 592 l 1,38,-1
 679 592 l 2,39,40
 627 592 627 592 592 555 c 1,41,-1
 458 387 l 1,42,-1
 647 78 l 2,43,44
 689 10 689 10 738 8 c 1,45,-1
 738 0 l 1,46,-1
 635 0 l 1,24,-1
EndSplineSet
EndChar

StartChar: l
Encoding: 108 108 79
Width: 557
GlyphClass: 2
Flags: W
LayerCount: 2
Fore
SplineSet
533 0 m 1,0,-1
 21 0 l 1,1,-1
 21 10 l 1,2,-1
 32 10 l 2,3,4
 53 10 53 10 68.5 25 c 128,-1,5
 84 40 84 40 84 62 c 2,6,-1
 84 538 l 2,7,8
 84 560 84 560 68.5 575 c 128,-1,9
 53 590 53 590 32 590 c 2,10,-1
 21 590 l 1,11,-1
 21 600 l 1,12,-1
 344 600 l 1,13,-1
 344 590 l 1,14,-1
 333 590 l 2,15,16
 298 590 298 590 285 559 c 0,17,18
 280 549 280 549 280 538 c 2,19,-1
 280 46 l 1,20,-1
 376 46 l 2,21,22
 436 46 436 46 484.5 90 c 128,-1,23
 533 134 533 134 552 210 c 1,24,-1
 562 210 l 1,25,-1
 533 0 l 1,0,-1
EndSplineSet
EndChar

StartChar: m
Encoding: 109 109 80
Width: 854
GlyphClass: 2
Flags: W
LayerCount: 2
Fore
SplineSet
549 0 m 1,0,-1
 549 10 l 1,1,-1
 563 10 l 2,2,3
 581 10 581 10 589 22.5 c 128,-1,4
 597 35 597 35 596 48 c 2,5,-1
 563 272 l 1,6,-1
 425 79 l 2,7,8
 410 58 410 58 399 30 c 128,-1,9
 388 2 388 2 388 -8.5 c 128,-1,10
 388 -19 388 -19 388 -22 c 1,11,-1
 380 -22 l 1,12,-1
 155 258 l 1,13,-1
 128 48 l 2,14,15
 127 38 127 38 133 28 c 0,16,17
 143 10 143 10 161 10 c 2,18,-1
 175 10 l 1,19,-1
 175 0 l 1,20,-1
 -19 0 l 1,21,-1
 -19 10 l 1,22,-1
 -6 10 l 2,23,24
 19 10 19 10 37 23.5 c 128,-1,25
 55 37 55 37 58 62 c 2,26,-1
 136 612 l 1,27,-1
 144 612 l 1,28,-1
 442 237 l 1,29,-1
 709 612 l 1,30,-1
 718 612 l 1,31,-1
 798 57 l 1,32,33
 804 35 804 35 820.5 22.5 c 128,-1,34
 837 10 837 10 859 10 c 2,35,-1
 873 10 l 1,36,-1
 873 0 l 1,37,-1
 549 0 l 1,0,-1
EndSplineSet
EndChar

StartChar: n
Encoding: 110 110 81
Width: 779
GlyphClass: 2
Flags: W
LayerCount: 2
Fore
SplineSet
768 590 m 1,0,-1
 751 590 l 2,1,2
 728 590 728 590 712 576 c 128,-1,3
 696 562 696 562 696 541 c 2,4,-1
 696 97 l 2,5,6
 696 32 696 32 705 -1 c 2,7,-1
 708 -12 l 1,8,-1
 699 -12 l 1,9,-1
 279 341 l 1,10,-1
 279 60 l 1,11,12
 280 39 280 39 295.5 24.5 c 128,-1,13
 311 10 311 10 334 10 c 2,14,-1
 350 10 l 1,15,-1
 350 0 l 1,16,-1
 12 0 l 1,17,-1
 12 10 l 1,18,-1
 28 10 l 2,19,20
 51 10 51 10 67 24.5 c 128,-1,21
 83 39 83 39 83 60 c 2,22,-1
 83 507 l 2,23,24
 83 567 83 567 74 602 c 2,25,-1
 71 613 l 1,26,-1
 80 613 l 1,27,-1
 499 259 l 1,28,-1
 499 540 l 2,29,30
 499 561 499 561 483.5 575.5 c 128,-1,31
 468 590 468 590 445 590 c 2,32,-1
 428 590 l 1,33,-1
 428 600 l 1,34,-1
 768 600 l 1,35,-1
 768 590 l 1,0,-1
EndSplineSet
EndChar

StartChar: o
Encoding: 111 111 82
Width: 779
GlyphClass: 2
Flags: W
LayerCount: 2
Fore
SplineSet
121.5 530 m 128,-1,1
 218 612 218 612 389.5 612 c 128,-1,2
 561 612 561 612 657.5 530 c 128,-1,3
 754 448 754 448 754 300 c 128,-1,4
 754 152 754 152 657.5 70 c 128,-1,5
 561 -12 561 -12 389.5 -12 c 128,-1,6
 218 -12 218 -12 121.5 70 c 128,-1,7
 25 152 25 152 25 300 c 128,-1,0
 25 448 25 448 121.5 530 c 128,-1,1
270 102.5 m 128,-1,9
 311 33 311 33 389 33 c 128,-1,10
 467 33 467 33 508 102.5 c 128,-1,11
 549 172 549 172 549 299 c 0,12,13
 549 472 549 472 477 535 c 0,14,15
 441 567 441 567 389 567 c 0,16,17
 311 567 311 567 270 497.5 c 128,-1,18
 229 428 229 428 229 300 c 128,-1,8
 229 172 229 172 270 102.5 c 128,-1,9
EndSplineSet
EndChar

StartChar: p
Encoding: 112 112 83
Width: 607
GlyphClass: 2
Flags: W
LayerCount: 2
Fore
SplineSet
307 282 m 1,0,-1
 307 290 l 1,1,2
 343 295 343 295 368 345 c 0,3,4
 388 386 388 386 388 436 c 0,5,6
 388 510 388 510 342 541 c 0,7,8
 321 555 321 555 292 555 c 2,9,-1
 280 555 l 1,10,-1
 280 62 l 1,11,12
 281 39 281 39 295 24.5 c 128,-1,13
 309 10 309 10 332 10 c 2,14,-1
 342 10 l 1,15,-1
 342 0 l 1,16,-1
 22 0 l 1,17,-1
 22 10 l 1,18,-1
 33 10 l 2,19,20
 54 10 54 10 69 25 c 128,-1,21
 84 40 84 40 84 62 c 2,22,-1
 84 539 l 1,23,24
 83 561 83 561 68 575.5 c 128,-1,25
 53 590 53 590 32 590 c 2,26,-1
 21 590 l 1,27,-1
 21 600 l 1,28,-1
 357 600 l 2,29,30
 500 600 500 600 557 531 c 0,31,32
 592 488 592 488 592 423 c 0,33,34
 592 384 592 384 577.5 346 c 128,-1,35
 563 308 563 308 533 283 c 0,36,37
 481 239 481 239 421 239 c 128,-1,38
 361 239 361 239 307 282 c 1,0,-1
EndSplineSet
EndChar

StartChar: q
Encoding: 113 113 84
Width: 760
GlyphClass: 2
Flags: W
LayerCount: 2
Fore
SplineSet
1138 -51 m 1,0,-1
 1144 -54 l 1,1,2
 1144 -57 1144 -57 1144 -61 c 0,3,4
 1144 -160 1144 -160 1083 -218 c 0,5,6
 1024 -273 1024 -273 923 -273 c 0,7,8
 809 -273 809 -273 677 -196 c 0,9,10
 612 -159 612 -159 538 -96 c 0,11,12
 472 -39 472 -39 440 -25.5 c 128,-1,13
 408 -12 408 -12 381 -12 c 2,14,-1
 378 -12 l 2,15,16
 211 -12 211 -12 118 70 c 128,-1,17
 25 152 25 152 25 300 c 128,-1,18
 25 448 25 448 118.5 530 c 128,-1,19
 212 612 212 612 379.5 612 c 128,-1,20
 547 612 547 612 640.5 530 c 128,-1,21
 734 448 734 448 734 299 c 0,22,23
 734 155 734 155 645 74 c 0,24,25
 602 34 602 34 539 12 c 1,26,27
 609 2 609 2 657 -14.5 c 128,-1,28
 705 -31 705 -31 782 -59 c 0,29,30
 1008 -142 1008 -142 1138 -51 c 1,0,-1
268 497.5 m 128,-1,32
 230 428 230 428 230 299.5 c 128,-1,33
 230 171 230 171 268 102 c 128,-1,34
 306 33 306 33 379.5 33 c 128,-1,35
 453 33 453 33 491 102 c 128,-1,36
 529 171 529 171 529 299 c 0,37,38
 529 496 529 496 445 549 c 0,39,40
 416 567 416 567 379 567 c 0,41,31
 306 567 306 567 268 497.5 c 128,-1,32
EndSplineSet
EndChar

StartChar: r
Encoding: 114 114 85
Width: 678
GlyphClass: 2
Flags: W
LayerCount: 2
Fore
SplineSet
604 435 m 0,0,1
 604 383 604 383 579 339 c 0,2,3
 550 288 550 288 476 275 c 1,4,5
 511 266 511 266 540.5 239.5 c 128,-1,6
 570 213 570 213 579.5 196 c 128,-1,7
 589 179 589 179 599 158 c 0,8,9
 658 43 658 43 692 21 c 0,10,11
 710 10 710 10 737 10 c 1,12,-1
 737 0 l 1,13,-1
 619 0 l 2,14,15
 520 0 520 0 490 13 c 0,16,17
 449 31 449 31 430.5 53.5 c 128,-1,18
 412 76 412 76 395 106 c 0,19,20
 368 152 368 152 351 237 c 0,21,22
 341 282 341 282 318 294 c 1,23,-1
 318 302 l 1,24,-1
 323 302 l 2,25,26
 351 302 351 302 372 327.5 c 128,-1,27
 393 353 393 353 399 411 c 0,28,29
 399 412 399 412 399 417 c 0,30,31
 404 462 404 462 391 491.5 c 128,-1,32
 378 521 378 521 368 531 c 128,-1,33
 358 541 358 541 342 546 c 0,34,35
 325 552 325 552 311 552 c 2,36,-1
 291 552 l 1,37,-1
 291 62 l 2,38,39
 291 37 291 37 307.5 23.5 c 128,-1,40
 324 10 324 10 344 10 c 2,41,-1
 353 10 l 1,42,-1
 353 0 l 1,43,-1
 32 0 l 1,44,-1
 32 10 l 1,45,-1
 43 10 l 2,46,47
 64 10 64 10 79 25 c 128,-1,48
 94 40 94 40 94 62 c 2,49,-1
 94 538 l 2,50,51
 94 560 94 560 79.5 575 c 128,-1,52
 65 590 65 590 44 590 c 2,53,-1
 32 590 l 1,54,-1
 32 600 l 1,55,-1
 376 600 l 2,56,57
 604 600 604 600 604 435 c 0,0,1
EndSplineSet
EndChar

StartChar: s
Encoding: 115 115 86
Width: 549
GlyphClass: 2
Flags: W
LayerCount: 2
Fore
SplineSet
514 202 m 0,0,1
 514 92 514 92 435 37 c 0,2,3
 365 -12 365 -12 241 -12 c 0,4,5
 167 -12 167 -12 117.5 4.5 c 128,-1,6
 68 21 68 21 49 45 c 1,7,8
 40 66 40 66 40 89 c 128,-1,9
 40 112 40 112 44 133 c 0,10,11
 55 186 55 186 79 216 c 1,12,-1
 85 216 l 1,13,14
 85 211 85 211 85 207 c 0,15,16
 85 140 85 140 133 87 c 0,17,18
 182 34 182 34 268 34 c 0,19,20
 319 34 319 34 345 57 c 128,-1,21
 371 80 371 80 371 110 c 128,-1,22
 371 140 371 140 347.5 163 c 128,-1,23
 324 186 324 186 271 209 c 1,24,-1
 166 258 l 1,25,26
 102 285 102 285 72 337 c 0,27,28
 49 377 49 377 49 425 c 0,29,30
 49 441 49 441 51 457 c 0,31,32
 73 612 73 612 241 612 c 0,33,34
 297 612 297 612 392 603 c 1,35,-1
 459 603 l 1,36,-1
 435 457 l 1,37,-1
 429 457 l 1,38,39
 429 506 429 506 393.5 535.5 c 128,-1,40
 358 565 358 565 305 565 c 0,41,42
 203 565 203 565 196 499 c 0,43,44
 193 467 193 467 220 448 c 0,45,46
 241 434 241 434 278 419 c 1,47,-1
 407 360 l 1,48,49
 460 337 460 337 487 296 c 128,-1,50
 514 255 514 255 514 202 c 0,0,1
EndSplineSet
EndChar

StartChar: t
Encoding: 116 116 87
Width: 613
GlyphClass: 2
Flags: W
LayerCount: 2
Fore
SplineSet
606 428 m 1,0,-1
 596 428 l 1,1,-1
 596 433 l 1,2,3
 597 510 597 510 542 539 c 1,4,5
 516 554 516 554 478 554 c 2,6,-1
 404 554 l 1,7,-1
 404 62 l 2,8,9
 404 40 404 40 419.5 25 c 128,-1,10
 435 10 435 10 457 10 c 2,11,-1
 467 10 l 1,12,-1
 467 0 l 1,13,-1
 146 0 l 1,14,-1
 146 10 l 1,15,-1
 156 10 l 2,16,17
 177 10 177 10 192.5 25 c 128,-1,18
 208 40 208 40 208 62 c 2,19,-1
 208 554 l 1,20,-1
 135 554 l 1,21,22
 49 553 49 553 25 484 c 0,23,24
 17 461 17 461 17 433 c 2,25,-1
 17 428 l 1,26,-1
 7 428 l 1,27,-1
 7 616 l 1,28,29
 20 611 20 611 51 606 c 128,-1,30
 82 601 82 601 107 601 c 2,31,-1
 506 601 l 2,32,33
 532 601 532 601 565 606 c 128,-1,34
 598 611 598 611 606 616 c 1,35,-1
 606 428 l 1,0,-1
EndSplineSet
EndChar

StartChar: u
Encoding: 117 117 88
Width: 708
GlyphClass: 2
Flags: W
LayerCount: 2
Fore
SplineSet
697 592 m 1,0,-1
 684 592 l 2,1,2
 666 592 666 592 653 579.5 c 128,-1,3
 640 567 640 567 640 549 c 2,4,-1
 640 223 l 2,5,6
 640 112 640 112 574 50 c 128,-1,7
 508 -12 508 -12 386 -12 c 0,8,9
 76 -12 76 -12 76 221 c 2,10,-1
 76 549 l 2,11,12
 76 578 76 578 49 589 c 0,13,14
 41 592 41 592 32 592 c 2,15,-1
 19 592 l 1,16,-1
 19 600 l 1,17,-1
 329 600 l 1,18,-1
 329 592 l 1,19,-1
 315 592 l 2,20,21
 297 592 297 592 284.5 580 c 128,-1,22
 272 568 272 568 272 549 c 2,23,-1
 272 223 l 2,24,25
 272 103 272 103 339 58 c 0,26,27
 372 36 372 36 418 36 c 0,28,29
 486 36 486 36 523 82 c 128,-1,30
 560 128 560 128 561 212 c 1,31,-1
 561 549 l 1,32,33
 560 568 560 568 547.5 580 c 128,-1,34
 535 592 535 592 517 592 c 2,35,-1
 504 592 l 1,36,-1
 504 600 l 1,37,-1
 697 600 l 1,38,-1
 697 592 l 1,0,-1
EndSplineSet
EndChar

StartChar: v
Encoding: 118 118 89
Width: 620
GlyphClass: 2
Flags: W
LayerCount: 2
Fore
SplineSet
663 590 m 1,0,-1
 655 590 l 2,1,2
 606 590 606 590 581 544 c 1,3,-1
 379 122 l 2,4,5
 330 18 330 18 327 -12 c 1,6,-1
 319 -12 l 1,7,-1
 38 545 l 1,8,9
 12 590 12 590 -35 590 c 2,10,-1
 -42 590 l 1,11,-1
 -42 600 l 1,12,-1
 309 600 l 1,13,-1
 309 591 l 1,14,-1
 301 591 l 2,15,16
 282 591 282 591 272.5 579.5 c 128,-1,17
 263 568 263 568 263 558 c 128,-1,18
 263 548 263 548 267 538 c 2,19,-1
 383 281 l 1,20,-1
 499 538 l 2,21,22
 504 549 504 549 504 559 c 128,-1,23
 504 569 504 569 495 580 c 128,-1,24
 486 591 486 591 466 591 c 2,25,-1
 458 591 l 1,26,-1
 458 600 l 1,27,-1
 663 600 l 1,28,-1
 663 590 l 1,0,-1
EndSplineSet
EndChar

StartChar: w
Encoding: 119 119 90
Width: 851
GlyphClass: 2
Flags: W
LayerCount: 2
Fore
SplineSet
883 590 m 1,0,-1
 876 590 l 2,1,2
 855 590 855 590 835 580 c 128,-1,3
 815 570 815 570 804 549 c 1,4,-1
 657 87 l 2,5,6
 644 48 644 48 644 22.5 c 128,-1,7
 644 -3 644 -3 644 -10 c 1,8,-1
 636 -10 l 1,9,-1
 430 338 l 1,10,-1
 296 84 l 2,11,12
 272 37 272 37 272 -10 c 1,13,-1
 264 -10 l 1,14,-1
 48 542 l 1,15,16
 37 567 37 567 16.5 578.5 c 128,-1,17
 -4 590 -4 590 -25 590 c 2,18,-1
 -32 590 l 1,19,-1
 -32 600 l 1,20,-1
 297 600 l 1,21,-1
 297 590 l 1,22,-1
 288 590 l 2,23,24
 271 590 271 590 262 579.5 c 128,-1,25
 253 569 253 569 253 560 c 128,-1,26
 253 551 253 551 255 543 c 1,27,-1
 347 335 l 1,28,-1
 492 613 l 1,29,-1
 499 613 l 1,30,-1
 671 325 l 1,31,-1
 733 539 l 2,32,33
 735 548 735 548 735 558 c 128,-1,34
 735 568 735 568 726.5 579 c 128,-1,35
 718 590 718 590 699 590 c 2,36,-1
 692 590 l 1,37,-1
 692 600 l 1,38,-1
 883 600 l 1,39,-1
 883 590 l 1,0,-1
EndSplineSet
EndChar

StartChar: x
Encoding: 120 120 91
Width: 666
GlyphClass: 2
Flags: W
LayerCount: 2
Fore
SplineSet
691 0 m 1,0,-1
 334 0 l 1,1,-1
 334 10 l 1,2,-1
 344 10 l 2,3,4
 362 10 362 10 370 22.5 c 128,-1,5
 378 35 378 35 378 43.5 c 128,-1,6
 378 52 378 52 373 60 c 2,7,-1
 275 221 l 1,8,-1
 159 60 l 2,9,10
 153 51 153 51 153 42.5 c 128,-1,11
 153 34 153 34 160.5 22 c 128,-1,12
 168 10 168 10 187 10 c 2,13,-1
 197 10 l 1,14,-1
 197 0 l 1,15,-1
 -24 0 l 1,16,-1
 -24 10 l 1,17,-1
 -12 10 l 2,18,19
 32 10 32 10 67 52 c 1,20,-1
 238 281 l 1,21,-1
 75 549 l 1,22,23
 62 567 62 567 40 579.5 c 128,-1,24
 18 592 18 592 -5 592 c 2,25,-1
 -16 592 l 1,26,-1
 -16 602 l 1,27,-1
 339 602 l 1,28,-1
 339 592 l 1,29,-1
 329 592 l 2,30,31
 310 592 310 592 300 576 c 0,32,33
 290 558 290 558 300 542 c 2,34,-1
 392 391 l 1,35,-1
 489 542 l 2,36,37
 494 551 494 551 494 559.5 c 128,-1,38
 494 568 494 568 486.5 580 c 128,-1,39
 479 592 479 592 461 592 c 2,40,-1
 451 592 l 1,41,-1
 451 602 l 1,42,-1
 667 602 l 1,43,-1
 667 592 l 1,44,-1
 655 592 l 2,45,46
 606 592 606 592 575 548 c 1,47,-1
 430 330 l 1,48,-1
 598 55 l 1,49,50
 611 36 611 36 633 23 c 128,-1,51
 655 10 655 10 680 10 c 2,52,-1
 691 10 l 1,53,-1
 691 0 l 1,0,-1
EndSplineSet
EndChar

StartChar: y
Encoding: 121 121 92
Width: 633
GlyphClass: 2
Flags: W
LayerCount: 2
Fore
SplineSet
684 590 m 1,0,-1
 671 590 l 2,1,2
 645 590 645 590 622.5 576.5 c 128,-1,3
 600 563 600 563 586 543 c 1,4,-1
 417 279 l 1,5,-1
 417 62 l 1,6,7
 418 40 418 40 433.5 25 c 128,-1,8
 449 10 449 10 472 10 c 2,9,-1
 483 10 l 1,10,-1
 483 0 l 1,11,-1
 155 0 l 1,12,-1
 155 10 l 1,13,-1
 167 10 l 2,14,15
 189 10 189 10 205 25 c 128,-1,16
 221 40 221 40 221 62 c 2,17,-1
 221 278 l 1,18,-1
 49 543 l 2,19,20
 30 571 30 571 5.5 580.5 c 128,-1,21
 -19 590 -19 590 -36 590 c 2,22,-1
 -48 590 l 1,23,-1
 -48 600 l 1,24,-1
 302 600 l 1,25,-1
 302 590 l 1,26,-1
 292 590 l 2,27,28
 273 590 273 590 265 577.5 c 128,-1,29
 257 565 257 565 257 556 c 128,-1,30
 257 547 257 547 262 539 c 2,31,-1
 386 329 l 1,32,-1
 507 539 l 2,33,34
 512 547 512 547 512 555.5 c 128,-1,35
 512 564 512 564 503.5 577 c 128,-1,36
 495 590 495 590 477 590 c 2,37,-1
 466 590 l 1,38,-1
 466 600 l 1,39,-1
 684 600 l 1,40,-1
 684 590 l 1,0,-1
EndSplineSet
EndChar

StartChar: z
Encoding: 122 122 93
Width: 606
GlyphClass: 2
Flags: W
LayerCount: 2
Fore
SplineSet
25 0 m 1,0,-1
 25 8 l 1,1,-1
 326 555 l 1,2,-1
 168 555 l 2,3,4
 111 555 111 555 79.5 522.5 c 128,-1,5
 48 490 48 490 48 432 c 2,6,-1
 48 428 l 1,7,-1
 38 428 l 1,8,-1
 38 616 l 1,9,10
 50 611 50 611 83.5 606 c 128,-1,11
 117 601 117 601 144 601 c 2,12,-1
 482 601 l 2,13,14
 519 601 519 601 545.5 605 c 128,-1,15
 572 609 572 609 577 612 c 1,16,-1
 577 605 l 1,17,-1
 287 45 l 1,18,-1
 395 45 l 2,19,20
 463 45 463 45 515 89 c 128,-1,21
 567 133 567 133 588 210 c 1,22,-1
 598 210 l 1,23,-1
 562 0 l 1,24,-1
 25 0 l 1,0,-1
EndSplineSet
EndChar

StartChar: braceleft
Encoding: 123 123 94
Width: 407
GlyphClass: 2
Flags: W
LayerCount: 2
Fore
SplineSet
309 110 m 1,0,-1
 303 1 l 1,1,2
 303 -34 303 -34 310 -49 c 0,3,4
 325 -81 325 -81 368 -92 c 1,5,-1
 366 -100 l 1,6,7
 166 -100 166 -100 117 30 c 0,8,9
 104 66 104 66 104 106.5 c 128,-1,10
 104 147 104 147 115.5 202 c 128,-1,11
 127 257 127 257 127 272 c 128,-1,12
 127 287 127 287 125 292 c 0,13,14
 118 311 118 311 85 314 c 1,15,-1
 85 324 l 1,16,17
 120 325 120 325 128 340 c 0,18,19
 130 344 130 344 130 353.5 c 128,-1,20
 130 363 130 363 125.5 386 c 128,-1,21
 121 409 121 409 112.5 450 c 128,-1,22
 104 491 104 491 104 527.5 c 128,-1,23
 104 564 104 564 120 602 c 0,24,25
 157 685 157 685 258 716 c 0,26,27
 313 733 313 733 385 733 c 2,28,-1
 386 733 l 1,29,-1
 388 725 l 1,30,31
 337 712 337 712 323 678 c 0,32,33
 309 645 309 645 309 599 c 2,34,-1
 309 536 l 2,35,36
 309 444 309 444 293 404 c 0,37,38
 280 370 280 370 269.5 360.5 c 128,-1,39
 259 351 259 351 252.5 346 c 128,-1,40
 246 341 246 341 234 336 c 128,-1,41
 222 331 222 331 214.5 329 c 128,-1,42
 207 327 207 327 192.5 323 c 128,-1,43
 178 319 178 319 171 316 c 1,44,45
 238 297 238 297 258 278 c 0,46,47
 286 250 286 250 294 225 c 0,48,49
 309 172 309 172 309 110 c 1,0,-1
EndSplineSet
EndChar

StartChar: bar
Encoding: 124 124 95
Width: 265
GlyphClass: 2
Flags: W
LayerCount: 2
Fore
SplineSet
100 -180 m 1,0,-1
 100 700 l 1,1,-1
 165 700 l 1,2,-1
 165 -180 l 1,3,-1
 100 -180 l 1,0,-1
EndSplineSet
EndChar

StartChar: braceright
Encoding: 125 125 96
Width: 407
GlyphClass: 2
Flags: W
LayerCount: 2
Fore
SplineSet
20 725 m 1,0,1
 22 733 22 733 22 733 c 1,2,3
 168 733 168 733 238 669 c 0,4,5
 304 609 304 609 304 521 c 0,6,7
 304 491 304 491 295 450 c 0,8,9
 278 364 278 364 278 354 c 128,-1,10
 278 344 278 344 280 340 c 0,11,12
 287 325 287 325 323 324 c 1,13,-1
 323 314 l 1,14,15
 290 311 290 311 283 292 c 0,16,17
 281 288 281 288 281 273 c 128,-1,18
 281 258 281 258 292.5 202.5 c 128,-1,19
 304 147 304 147 304 106.5 c 128,-1,20
 304 66 304 66 290.5 30.5 c 128,-1,21
 277 -5 277 -5 248 -36 c 0,22,23
 186 -100 186 -100 42 -100 c 1,24,-1
 40 -92 l 1,25,26
 83 -81 83 -81 97 -51 c 0,27,28
 105 -34 105 -34 105 1 c 1,29,-1
 98 110 l 1,30,31
 98 213 98 213 129 254 c 0,32,33
 141 269 141 269 150 277.5 c 128,-1,34
 159 286 159 286 177 295 c 0,35,36
 199 305 199 305 237 316 c 1,37,38
 229 319 229 319 214.5 323 c 128,-1,39
 200 327 200 327 193 329 c 128,-1,40
 186 331 186 331 173.5 336 c 128,-1,41
 161 341 161 341 155 346 c 128,-1,42
 149 351 149 351 139.5 359.5 c 128,-1,43
 130 368 130 368 125 378.5 c 128,-1,44
 120 389 120 389 114 404 c 128,-1,45
 108 419 108 419 105 438 c 0,46,47
 98 483 98 483 98 536 c 2,48,-1
 99 599 l 2,49,50
 99 641 99 641 95 653 c 128,-1,51
 91 665 91 665 85 678.5 c 128,-1,52
 79 692 79 692 71 699 c 0,53,54
 49 717 49 717 20 725 c 1,0,1
EndSplineSet
EndChar

StartChar: asciitilde
Encoding: 126 126 97
Width: 494
GlyphClass: 2
Flags: W
LayerCount: 2
Fore
SplineSet
461 363 m 1,0,1
 468 336 468 336 468 319 c 128,-1,2
 468 302 468 302 464 282 c 128,-1,3
 460 262 460 262 441 242 c 0,4,5
 404 204 404 204 346 204 c 0,6,7
 307 204 307 204 257 238 c 0,8,9
 235 252 235 252 215 267 c 0,10,11
 164 303 164 303 138 303 c 128,-1,12
 112 303 112 303 99 281 c 0,13,14
 92 268 92 268 92 249.5 c 128,-1,15
 92 231 92 231 97 209 c 1,16,-1
 32 209 l 1,17,18
 27 232 27 232 27 253 c 0,19,20
 27 296 27 296 50 324 c 0,21,22
 85 368 85 368 142 368 c 0,23,24
 166 368 166 368 197.5 353 c 128,-1,25
 229 338 229 338 253 319 c 1,26,27
 321 269 321 269 350 269 c 128,-1,28
 379 269 379 269 395 292 c 0,29,30
 403 304 403 304 403 321.5 c 128,-1,31
 403 339 403 339 393 363 c 1,32,-1
 461 363 l 1,0,1
EndSplineSet
EndChar

StartChar: exclamdown
Encoding: 161 161 98
Width: 295
GlyphClass: 2
Flags: W
LayerCount: 2
Fore
SplineSet
149.5 716 m 128,-1,1
 187 716 187 716 213.5 689.5 c 128,-1,2
 240 663 240 663 240 625.5 c 128,-1,3
 240 588 240 588 213.5 562 c 128,-1,4
 187 536 187 536 149.5 536 c 128,-1,5
 112 536 112 536 86 562 c 128,-1,6
 60 588 60 588 60 625.5 c 128,-1,7
 60 663 60 663 86 689.5 c 128,-1,0
 112 716 112 716 149.5 716 c 128,-1,1
68 339 m 1,8,-1
 113 472 l 1,9,-1
 183 472 l 1,10,-1
 228 339 l 1,11,-1
 250 0 l 1,12,-1
 45 0 l 1,13,-1
 68 339 l 1,8,-1
EndSplineSet
EndChar

StartChar: cent
Encoding: 162 162 99
Width: 578
GlyphClass: 2
Flags: W
LayerCount: 2
Fore
SplineSet
15 348 m 0,0,1
 15 482 15 482 116 552 c 0,2,3
 209 617 209 617 356 617 c 0,4,5
 358 617 358 617 361 617 c 1,6,-1
 368 701 l 1,7,-1
 415 700 l 1,8,-1
 408 615 l 1,9,10
 488 608 488 608 542 586 c 1,11,-1
 531 439 l 1,12,-1
 525 439 l 1,13,14
 491 555 491 555 405 571 c 1,15,-1
 368 121 l 1,16,17
 423 123 423 123 445 137 c 128,-1,18
 467 151 467 151 478 163.5 c 128,-1,19
 489 176 489 176 498 198 c 0,20,21
 514 234 514 234 528 304 c 1,22,-1
 534 304 l 1,23,-1
 557 166 l 1,24,25
 507 81 507 81 364 78 c 1,26,-1
 357 -9 l 1,27,-1
 311 -6 l 1,28,-1
 318 79 l 1,29,30
 176 88 176 88 95.5 158.5 c 128,-1,31
 15 229 15 229 15 348 c 0,0,1
322 125 m 1,32,-1
 358 573 l 1,33,34
 201 567 201 567 202 351 c 1,35,36
 201 154 201 154 322 125 c 1,32,-1
EndSplineSet
EndChar

StartChar: sterling
Encoding: 163 163 100
Width: 620
GlyphClass: 2
Flags: W
LayerCount: 2
Fore
SplineSet
571 24 m 1,0,1
 525 3 525 3 468 -3.5 c 128,-1,2
 411 -10 411 -10 384 -10 c 0,3,4
 337 -10 337 -10 257.5 7 c 128,-1,5
 178 24 178 24 159 24 c 128,-1,6
 140 24 140 24 129.5 23.5 c 128,-1,7
 119 23 119 23 83 10.5 c 128,-1,8
 47 -2 47 -2 40 -10 c 1,9,-1
 30 -10 l 1,10,-1
 30 0 l 1,11,12
 86 110 86 110 102 205 c 0,13,14
 110 258 110 258 112 319 c 1,15,-1
 30 319 l 1,16,-1
 48 375 l 1,17,-1
 112 375 l 1,18,19
 112 381 112 381 112 387 c 0,20,21
 112 698 112 698 388 714 c 0,22,23
 403 715 403 715 438 715 c 128,-1,24
 473 715 473 715 520.5 700.5 c 128,-1,25
 568 686 568 686 591 657 c 1,26,-1
 543 515 l 1,27,-1
 533 515 l 1,28,29
 530 594 530 594 505.5 629 c 128,-1,30
 481 664 481 664 429 664 c 0,31,32
 325 664 325 664 317 527 c 0,33,34
 315 496 315 496 315 458.5 c 128,-1,35
 315 421 315 421 317 375 c 1,36,-1
 498 375 l 1,37,-1
 477 319 l 1,38,-1
 319 319 l 1,39,40
 318 198 318 198 279 144 c 0,41,42
 245 97 245 97 183 79 c 1,43,44
 194 82 194 82 204.5 82 c 128,-1,45
 215 82 215 82 228.5 81.5 c 128,-1,46
 242 81 242 81 256 79 c 128,-1,47
 270 77 270 77 296 73 c 0,48,49
 341 67 341 67 367 67 c 128,-1,50
 393 67 393 67 423.5 72.5 c 128,-1,51
 454 78 454 78 489 95 c 0,52,53
 562 131 562 131 606 219 c 1,54,-1
 616 219 l 1,55,-1
 571 24 l 1,0,1
EndSplineSet
EndChar

StartChar: currency
Encoding: 164 164 101
Width: 541
GlyphClass: 2
Flags: W
LayerCount: 2
Fore
SplineSet
410 193 m 1,0,1
 350 139 350 139 270 139 c 128,-1,2
 190 139 190 139 130 191 c 1,3,-1
 71 132 l 1,4,-1
 50 154 l 1,5,-1
 109 212 l 1,6,7
 56 272 56 272 56 352.5 c 128,-1,8
 56 433 56 433 110 493 c 1,9,-1
 50 553 l 1,10,-1
 71 574 l 1,11,-1
 131 514 l 1,12,13
 191 565 191 565 270 565 c 128,-1,14
 349 565 349 565 409 513 c 1,15,-1
 470 574 l 1,16,-1
 492 553 l 1,17,-1
 430 492 l 1,18,19
 482 432 482 432 482 352.5 c 128,-1,20
 482 273 482 273 431 214 c 1,21,-1
 492 154 l 1,22,-1
 470 132 l 1,23,-1
 410 193 l 1,0,1
269.5 169 m 128,-1,25
 345 169 345 169 398.5 222.5 c 128,-1,26
 452 276 452 276 452 352 c 128,-1,27
 452 428 452 428 398.5 481.5 c 128,-1,28
 345 535 345 535 269.5 535 c 128,-1,29
 194 535 194 535 140 481.5 c 128,-1,30
 86 428 86 428 86 352 c 128,-1,31
 86 276 86 276 140 222.5 c 128,-1,24
 194 169 194 169 269.5 169 c 128,-1,25
EndSplineSet
EndChar

StartChar: yen
Encoding: 165 165 102
Width: 729
GlyphClass: 2
Flags: W
LayerCount: 2
Fore
SplineSet
775 690 m 1,0,-1
 761 690 l 2,1,2
 731 690 731 690 703.5 673 c 128,-1,3
 676 656 676 656 660 631 c 2,4,-1
 529 425 l 1,5,-1
 623 425 l 1,6,-1
 623 375 l 1,7,-1
 497 375 l 1,8,-1
 464 322 l 1,9,-1
 464 315 l 1,10,-1
 623 315 l 1,11,-1
 623 265 l 1,12,-1
 464 265 l 1,13,-1
 464 73 l 2,14,15
 464 47 464 47 482.5 28.5 c 128,-1,16
 501 10 501 10 528 10 c 2,17,-1
 540 10 l 1,18,-1
 540 0 l 1,19,-1
 182 0 l 1,20,-1
 182 10 l 1,21,-1
 195 10 l 2,22,23
 221 10 221 10 239.5 28 c 128,-1,24
 258 46 258 46 259 72 c 1,25,-1
 259 265 l 1,26,-1
 97 265 l 1,27,-1
 97 315 l 1,28,-1
 259 315 l 1,29,-1
 259 322 l 1,30,-1
 226 375 l 1,31,-1
 97 375 l 1,32,-1
 97 425 l 1,33,-1
 196 425 l 1,34,-1
 68 633 l 2,35,36
 43 672 43 672 -1 685 c 0,37,38
 -16 690 -16 690 -31 690 c 2,39,-1
 -45 690 l 1,40,-1
 -45 700 l 1,41,-1
 341 700 l 1,42,-1
 341 690 l 1,43,-1
 329 690 l 2,44,45
 307 690 307 690 295 670 c 0,46,47
 288 659 288 659 288 648.5 c 128,-1,48
 288 638 288 638 294 628 c 2,49,-1
 431 381 l 1,50,-1
 573 628 l 2,51,52
 579 638 579 638 579 648 c 128,-1,53
 579 658 579 658 572 669 c 0,54,55
 559 690 559 690 538 690 c 2,56,-1
 526 690 l 1,57,-1
 526 700 l 1,58,-1
 775 700 l 1,59,-1
 775 690 l 1,0,-1
EndSplineSet
EndChar

StartChar: brokenbar
Encoding: 166 166 103
Width: 265
GlyphClass: 2
Flags: W
LayerCount: 2
Fore
SplineSet
100 350 m 1,0,-1
 100 700 l 1,1,-1
 165 700 l 1,2,-1
 165 350 l 1,3,-1
 100 350 l 1,0,-1
100 -180 m 1,4,-1
 100 170 l 1,5,-1
 165 170 l 1,6,-1
 165 -180 l 1,7,-1
 100 -180 l 1,4,-1
EndSplineSet
EndChar

StartChar: section
Encoding: 167 167 104
Width: 536
GlyphClass: 2
Flags: W
LayerCount: 2
Fore
SplineSet
331 716 m 0,0,1
 415 716 415 716 461 678 c 1,2,3
 488 654 488 654 488 632.5 c 128,-1,4
 488 611 488 611 474 591 c 1,5,6
 454 559 454 559 427 559 c 0,7,8
 410 559 410 559 385 577.5 c 128,-1,9
 360 596 360 596 344 612 c 0,10,11
 311 646 311 646 279 655 c 0,12,13
 275 656 275 656 267.5 656 c 128,-1,14
 260 656 260 656 247 646.5 c 128,-1,15
 234 637 234 637 234 622.5 c 128,-1,16
 234 608 234 608 241.5 592.5 c 128,-1,17
 249 577 249 577 261.5 560 c 128,-1,18
 274 543 274 543 292 523.5 c 128,-1,19
 310 504 310 504 325.5 488 c 128,-1,20
 341 472 341 472 359 455 c 0,21,22
 433 380 433 380 469 301 c 0,23,24
 512 206 512 206 512 125 c 0,25,26
 512 12 512 12 447 -65 c 0,27,28
 410 -108 410 -108 351.5 -133.5 c 128,-1,29
 293 -159 293 -159 228.5 -159 c 128,-1,30
 164 -159 164 -159 117 -141 c 0,31,32
 44 -113 44 -113 44 -65 c 0,33,34
 44 -50 44 -50 53 -32 c 1,35,36
 75 4 75 4 104 4 c 0,37,38
 123 4 123 4 151 -15 c 128,-1,39
 179 -34 179 -34 197 -51 c 0,40,41
 235 -86 235 -86 269 -95 c 0,42,43
 273 -96 273 -96 281 -96 c 128,-1,44
 289 -96 289 -96 302 -85.5 c 128,-1,45
 315 -75 315 -75 315 -60 c 128,-1,46
 315 -45 315 -45 295.5 -18 c 128,-1,47
 276 9 276 9 219.5 63.5 c 128,-1,48
 163 118 163 118 145 136 c 0,49,50
 93 187 93 187 64 245 c 0,51,52
 26 319 26 319 26 399 c 0,53,54
 26 545 26 545 137 644 c 0,55,56
 217 716 217 716 331 716 c 0,0,1
145 583 m 1,57,58
 119 526 119 526 119 468 c 0,59,60
 119 430 119 430 148 375 c 0,61,62
 164 343 164 343 193 312.5 c 128,-1,63
 222 282 222 282 250 253.5 c 128,-1,64
 278 225 278 225 295 206.5 c 128,-1,65
 312 188 312 188 337 156 c 128,-1,66
 362 124 362 124 374 99 c 0,67,68
 397 51 397 51 397 5 c 0,69,70
 397 -8 397 -8 395 -21 c 1,71,72
 418 26 418 26 418 77 c 0,73,74
 418 156 418 156 322 264 c 0,75,76
 308 279 308 279 279 310 c 128,-1,77
 250 341 250 341 236 357 c 128,-1,78
 222 373 222 373 202 398 c 128,-1,79
 182 423 182 423 174 439 c 0,80,81
 151 488 151 488 148 518.5 c 128,-1,82
 145 549 145 549 145 564.5 c 128,-1,83
 145 580 145 580 145 583 c 1,57,58
EndSplineSet
EndChar

StartChar: dieresis
Encoding: 168 168 105
Width: 600
GlyphClass: 2
Flags: W
LayerCount: 2
Fore
SplineSet
149.5 665 m 128,-1,1
 119 665 119 665 97.5 687 c 128,-1,2
 76 709 76 709 76 739.5 c 128,-1,3
 76 770 76 770 97.5 791.5 c 128,-1,4
 119 813 119 813 149.5 813 c 128,-1,5
 180 813 180 813 201.5 791.5 c 128,-1,6
 223 770 223 770 223 739.5 c 128,-1,7
 223 709 223 709 201.5 687 c 128,-1,0
 180 665 180 665 149.5 665 c 128,-1,1
411.5 665 m 128,-1,9
 381 665 381 665 359.5 687 c 128,-1,10
 338 709 338 709 338 739.5 c 128,-1,11
 338 770 338 770 359.5 791.5 c 128,-1,12
 381 813 381 813 411.5 813 c 128,-1,13
 442 813 442 813 463.5 791.5 c 128,-1,14
 485 770 485 770 485 739.5 c 128,-1,15
 485 709 485 709 463.5 687 c 128,-1,8
 442 665 442 665 411.5 665 c 128,-1,9
EndSplineSet
EndChar

StartChar: copyright
Encoding: 169 169 106
Width: 848
GlyphClass: 2
Flags: W
LayerCount: 2
Fore
SplineSet
424 714 m 128,-1,1
 575 714 575 714 681.5 607.5 c 128,-1,2
 788 501 788 501 788 350 c 128,-1,3
 788 199 788 199 681.5 92.5 c 128,-1,4
 575 -14 575 -14 424 -14 c 128,-1,5
 273 -14 273 -14 166.5 92.5 c 128,-1,6
 60 199 60 199 60 350 c 128,-1,7
 60 501 60 501 166.5 607.5 c 128,-1,0
 273 714 273 714 424 714 c 128,-1,1
644.5 570.5 m 128,-1,9
 553 662 553 662 424 662 c 128,-1,10
 295 662 295 662 203.5 570.5 c 128,-1,11
 112 479 112 479 112 350 c 128,-1,12
 112 221 112 221 203.5 129.5 c 128,-1,13
 295 38 295 38 424 38 c 128,-1,14
 553 38 553 38 644.5 129.5 c 128,-1,15
 736 221 736 221 736 350 c 256,16,8
 736 479 736 479 644.5 570.5 c 128,-1,9
353.5 217 m 128,-1,18
 386 169 386 169 449 169 c 128,-1,19
 512 169 512 169 555 209.5 c 128,-1,20
 598 250 598 250 610 326 c 1,21,-1
 616 326 l 1,22,-1
 639 218 l 1,23,24
 561 127 561 127 434 127 c 1,25,26
 326 128 326 128 255.5 191.5 c 128,-1,27
 185 255 185 255 185 350.5 c 128,-1,28
 185 446 185 446 256 509.5 c 128,-1,29
 327 573 327 573 436 573 c 0,30,31
 482 573 482 573 532 561.5 c 128,-1,32
 582 550 582 550 617 530 c 1,33,-1
 611 410 l 1,34,-1
 605 410 l 1,35,36
 553 532 553 532 442 532 c 0,37,38
 385 532 385 532 353 484 c 128,-1,39
 321 436 321 436 321 350.5 c 128,-1,17
 321 265 321 265 353.5 217 c 128,-1,18
EndSplineSet
EndChar

StartChar: ordfeminine
Encoding: 170 170 107
Width: 390
GlyphClass: 2
Flags: W
LayerCount: 2
Fore
SplineSet
395 377 m 1,0,-1
 190 377 l 1,1,-1
 190 381 l 1,2,-1
 195 381 l 2,3,4
 205 381 205 381 211.5 388 c 128,-1,5
 218 395 218 395 215 406 c 1,6,-1
 199 439 l 1,7,-1
 99 439 l 1,8,-1
 84 409 l 2,9,10
 78 397 78 397 85 389 c 128,-1,11
 92 381 92 381 103 381 c 2,12,-1
 108 381 l 1,13,-1
 108 377 l 1,14,-1
 -5 377 l 1,15,-1
 -5 381 l 1,16,-1
 -1 381 l 2,17,18
 25 381 25 381 40 404 c 1,19,-1
 155 635 l 1,20,21
 183 698 183 698 185 710 c 1,22,-1
 189 710 l 1,23,-1
 351 404 l 1,24,25
 367 381 367 381 391 381 c 2,26,-1
 395 381 l 1,27,-1
 395 377 l 1,0,-1
111 465 m 1,28,-1
 186 465 l 1,29,-1
 149 542 l 1,30,-1
 111 465 l 1,28,-1
EndSplineSet
EndChar

StartChar: guillemotleft
Encoding: 171 171 108
Width: 541
GlyphClass: 2
Flags: W
LayerCount: 2
Fore
SplineSet
265 490 m 1,0,-1
 273 485 l 1,1,-1
 195 292 l 1,2,-1
 274 95 l 1,3,-1
 265 88 l 1,4,-1
 40 292 l 1,5,-1
 265 490 l 1,0,-1
473 490 m 1,6,-1
 481 485 l 1,7,-1
 403 292 l 1,8,-1
 482 95 l 1,9,-1
 473 88 l 1,10,-1
 248 292 l 1,11,-1
 473 490 l 1,6,-1
EndSplineSet
EndChar

StartChar: logicalnot
Encoding: 172 172 109
Width: 600
GlyphClass: 2
Flags: W
LayerCount: 2
Fore
SplineSet
40 407 m 1,0,-1
 562 407 l 1,1,-1
 562 195 l 1,2,-1
 497 195 l 1,3,-1
 497 342 l 1,4,-1
 40 342 l 1,5,-1
 40 407 l 1,0,-1
EndSplineSet
EndChar

StartChar: softhyphen
Encoding: 173 173 110
Width: 380
GlyphClass: 2
Flags: W
LayerCount: 2
Fore
SplineSet
30 292 m 1,0,-1
 40 332 l 1,1,-1
 340 332 l 1,2,-1
 350 292 l 1,3,-1
 340 251 l 1,4,-1
 40 251 l 1,5,-1
 30 292 l 1,0,-1
EndSplineSet
EndChar

StartChar: registered
Encoding: 174 174 111
Width: 245
GlyphClass: 2
Flags: W
LayerCount: 2
Fore
SplineSet
123 701 m 128,-1,1
 170 701 170 701 203 668 c 128,-1,2
 236 635 236 635 236 588 c 128,-1,3
 236 541 236 541 203 508 c 128,-1,4
 170 475 170 475 123 475 c 128,-1,5
 76 475 76 475 43 508 c 128,-1,6
 10 541 10 541 10 588 c 128,-1,7
 10 635 10 635 43 668 c 128,-1,0
 76 701 76 701 123 701 c 128,-1,1
122.5 499 m 128,-1,9
 161 499 161 499 186.5 524.5 c 128,-1,10
 212 550 212 550 212 588 c 128,-1,11
 212 626 212 626 186.5 651.5 c 128,-1,12
 161 677 161 677 122.5 677 c 128,-1,13
 84 677 84 677 59 651.5 c 128,-1,14
 34 626 34 626 34 588 c 128,-1,15
 34 550 34 550 59 524.5 c 128,-1,8
 84 499 84 499 122.5 499 c 128,-1,9
170 617 m 0,16,17
 170 588 170 588 139 584 c 1,18,19
 150 582 150 582 164.5 559 c 128,-1,20
 179 536 179 536 190 532 c 1,21,-1
 190 530 l 1,22,-1
 171 530 l 2,23,24
 155 530 155 530 149 534.5 c 128,-1,25
 143 539 143 539 140 540.5 c 128,-1,26
 137 542 137 542 133.5 548.5 c 128,-1,27
 130 555 130 555 129 556.5 c 128,-1,28
 128 558 128 558 124 566 c 0,29,30
 115 588 115 588 112 588 c 1,31,-1
 112 590 l 1,32,-1
 122 590 l 1,33,34
 139 591 139 591 138 616 c 128,-1,35
 137 641 137 641 117 640 c 1,36,-1
 107 640 l 1,37,-1
 107 543 l 2,38,39
 107 532 107 532 117 532 c 2,40,-1
 120 532 l 1,41,-1
 120 530 l 1,42,-1
 63 530 l 1,43,-1
 63 532 l 1,44,-1
 65 532 l 2,45,46
 75 532 75 532 76 542 c 1,47,-1
 76 637 l 1,48,49
 75 648 75 648 65 648 c 2,50,-1
 63 648 l 1,51,-1
 63 650 l 1,52,-1
 107 650 l 1,53,-1
 126 650 l 2,54,55
 156 650 156 650 166 631 c 0,56,57
 170 625 170 625 170 617 c 0,16,17
EndSplineSet
EndChar

StartChar: macron
Encoding: 175 175 112
Width: 600
GlyphClass: 2
Flags: W
LayerCount: 2
Fore
SplineSet
150 703 m 1,0,-1
 150 788 l 1,1,-1
 440 788 l 1,2,-1
 440 703 l 1,3,-1
 150 703 l 1,0,-1
EndSplineSet
EndChar

StartChar: degree
Encoding: 176 176 113
Width: 237
GlyphClass: 2
Flags: W
LayerCount: 2
Fore
SplineSet
118.5 664 m 128,-1,1
 159 664 159 664 188 635.5 c 128,-1,2
 217 607 217 607 217 566 c 128,-1,3
 217 525 217 525 188 496 c 128,-1,4
 159 467 159 467 118.5 467 c 128,-1,5
 78 467 78 467 49 496 c 128,-1,6
 20 525 20 525 20 566 c 128,-1,7
 20 607 20 607 49 635.5 c 128,-1,0
 78 664 78 664 118.5 664 c 128,-1,1
118.5 606 m 128,-1,9
 102 606 102 606 90 594.5 c 128,-1,10
 78 583 78 583 78 566 c 128,-1,11
 78 549 78 549 90 537.5 c 128,-1,12
 102 526 102 526 118.5 526 c 128,-1,13
 135 526 135 526 147 537.5 c 128,-1,14
 159 549 159 549 159 566 c 128,-1,15
 159 583 159 583 147 594.5 c 128,-1,8
 135 606 135 606 118.5 606 c 128,-1,9
EndSplineSet
EndChar

StartChar: plusminus
Encoding: 177 177 114
Width: 481
GlyphClass: 2
Flags: W
LayerCount: 2
Fore
SplineSet
273 412 m 1,0,-1
 442 412 l 1,1,-1
 442 347 l 1,2,-1
 273 347 l 1,3,-1
 273 179 l 1,4,-1
 208 179 l 1,5,-1
 208 347 l 1,6,-1
 40 347 l 1,7,-1
 40 412 l 1,8,-1
 208 412 l 1,9,-1
 208 581 l 1,10,-1
 273 581 l 1,11,-1
 273 412 l 1,0,-1
40 50 m 1,12,-1
 40 115 l 1,13,-1
 442 115 l 1,14,-1
 442 50 l 1,15,-1
 40 50 l 1,12,-1
EndSplineSet
EndChar

StartChar: twosuperior
Encoding: 178 178 115
Width: 419
GlyphClass: 2
Flags: W
LayerCount: 2
Fore
SplineSet
156 687 m 0,0,1
 85 687 85 687 85 559 c 1,2,-1
 79 559 l 1,3,-1
 30 674 l 1,4,5
 84 719 84 719 193 719 c 0,6,7
 295 719 295 719 341 667 c 0,8,9
 364 642 364 642 364 609.5 c 128,-1,10
 364 577 364 577 348.5 548.5 c 128,-1,11
 333 520 333 520 308 498 c 0,12,13
 261 456 261 456 212 434 c 1,14,-1
 305 434 l 2,15,16
 356 434 356 434 384 496 c 1,17,-1
 389 496 l 1,18,-1
 348 308 l 1,19,-1
 38 308 l 1,20,-1
 38 313 l 1,21,22
 50 330 50 330 73.5 361 c 128,-1,23
 97 392 97 392 109.5 409.5 c 128,-1,24
 122 427 122 427 141 454 c 128,-1,25
 160 481 160 481 170.5 500 c 128,-1,26
 181 519 181 519 192 542 c 0,27,28
 212 585 212 585 212 620.5 c 128,-1,29
 212 656 212 656 196 671.5 c 128,-1,30
 180 687 180 687 156 687 c 0,0,1
EndSplineSet
EndChar

StartChar: threesuperior
Encoding: 179 179 116
Width: 373
GlyphClass: 2
Flags: W
LayerCount: 2
Fore
SplineSet
168 714 m 0,0,1
 297 714 297 714 320 646 c 0,2,3
 325 632 325 632 325 617 c 0,4,5
 325 581 325 581 304.5 562.5 c 128,-1,6
 284 544 284 544 254 543 c 1,7,8
 343 524 343 524 343 435 c 0,9,10
 343 383 343 383 311 347 c 0,11,12
 260 290 260 290 163 290 c 0,13,14
 87 290 87 290 27 323 c 1,15,-1
 28 328 l 1,16,17
 32 328 32 328 35 328 c 0,18,19
 101 328 101 328 148.5 358.5 c 128,-1,20
 196 389 196 389 196 440.5 c 128,-1,21
 196 492 196 492 166 514.5 c 128,-1,22
 136 537 136 537 100 538 c 1,23,-1
 101 543 l 1,24,25
 103 543 103 543 106 543 c 0,26,27
 140 543 140 543 163 568.5 c 128,-1,28
 186 594 186 594 186 625 c 0,29,30
 186 663 186 663 162 676 c 0,31,32
 148 684 148 684 136 684 c 0,33,34
 90 684 90 684 76 652 c 0,35,36
 65 627 65 627 65 576 c 0,37,38
 65 571 65 571 65 565 c 1,39,-1
 60 565 l 1,40,-1
 20 676 l 1,41,42
 70 714 70 714 168 714 c 0,0,1
EndSplineSet
EndChar

StartChar: acute
Encoding: 180 180 117
Width: 600
GlyphClass: 2
Flags: W
LayerCount: 2
Fore
SplineSet
211 743 m 1,0,-1
 204 750 l 1,1,2
 223 794 223 794 269 846.5 c 128,-1,3
 315 899 315 899 358 936 c 1,4,5
 422 909 422 909 444 836 c 1,6,7
 394 803 394 803 328.5 776 c 128,-1,8
 263 749 263 749 211 743 c 1,0,-1
EndSplineSet
EndChar

StartChar: paragraph
Encoding: 182 182 118
Width: 540
GlyphClass: 2
Flags: W
LayerCount: 2
Fore
SplineSet
432 147 m 2,0,1
 432 92 432 92 413.5 50.5 c 128,-1,2
 395 9 395 9 364 -13 c 1,3,-1
 355 -5 l 1,4,5
 380 37 380 37 381 85 c 0,6,7
 382 100 382 100 382 145 c 2,8,-1
 382 650 l 1,9,-1
 299 650 l 1,10,-1
 299 0 l 2,11,12
 299 -91 299 -91 256 -149 c 0,13,14
 232 -182 232 -182 193 -199 c 1,15,-1
 186 -190 l 1,16,17
 227 -148 227 -148 237 -114.5 c 128,-1,18
 247 -81 247 -81 247 -47 c 128,-1,19
 247 -13 247 -13 246 0 c 1,20,-1
 246 333 l 1,21,22
 161 333 161 333 105.5 383 c 128,-1,23
 50 433 50 433 50 516 c 128,-1,24
 50 599 50 599 106.5 649.5 c 128,-1,25
 163 700 163 700 246 700 c 2,26,-1
 428 700 l 1,27,28
 428 700 428 700 435 700 c 128,-1,29
 442 700 442 700 444 700 c 128,-1,30
 446 700 446 700 452.5 700.5 c 128,-1,31
 459 701 459 701 463 702.5 c 128,-1,32
 467 704 467 704 473.5 705.5 c 128,-1,33
 480 707 480 707 485.5 710.5 c 128,-1,34
 491 714 491 714 497 718 c 0,35,36
 509 726 509 726 523 743 c 1,37,-1
 530 737 l 1,38,39
 523 695 523 695 480 667 c 0,40,41
 458 653 458 653 432 651 c 1,42,-1
 432 147 l 2,0,1
EndSplineSet
EndChar

StartChar: periodcentered
Encoding: 183 183 119
Width: 250
GlyphClass: 2
Flags: W
LayerCount: 2
Fore
SplineSet
125 265 m 128,-1,1
 88 265 88 265 61.5 291.5 c 128,-1,2
 35 318 35 318 35 355 c 128,-1,3
 35 392 35 392 61.5 418.5 c 128,-1,4
 88 445 88 445 125 445 c 128,-1,5
 162 445 162 445 188.5 418.5 c 128,-1,6
 215 392 215 392 215 355 c 128,-1,7
 215 318 215 318 188.5 291.5 c 128,-1,0
 162 265 162 265 125 265 c 128,-1,1
EndSplineSet
EndChar

StartChar: cedilla
Encoding: 184 184 120
Width: 600
GlyphClass: 2
Flags: W
LayerCount: 2
Fore
SplineSet
284 -48 m 1,0,1
 298 -43 298 -43 308 -43 c 128,-1,2
 318 -43 318 -43 328.5 -43 c 128,-1,3
 339 -43 339 -43 359 -48.5 c 128,-1,4
 379 -54 379 -54 391 -69 c 128,-1,5
 403 -84 403 -84 403 -96 c 0,6,7
 403 -142 403 -142 371 -169 c 0,8,9
 330 -205 330 -205 271 -205 c 0,10,11
 244 -205 244 -205 214 -196 c 1,12,-1
 215 -186 l 1,13,14
 252 -186 252 -186 285.5 -165.5 c 128,-1,15
 319 -145 319 -145 319 -105 c 0,16,17
 319 -89 319 -89 303 -77 c 0,18,19
 287 -66 287 -66 264 -66 c 128,-1,20
 241 -66 241 -66 222 -72 c 1,21,-1
 217 -62 l 1,22,-1
 265 1 l 1,23,-1
 327 1 l 1,24,-1
 284 -48 l 1,0,1
EndSplineSet
EndChar

StartChar: onesuperior
Encoding: 185 185 121
Width: 292
GlyphClass: 2
Flags: W
LayerCount: 2
Fore
SplineSet
262 314 m 1,0,-1
 262 308 l 1,1,-1
 34 308 l 1,2,-1
 34 314 l 1,3,-1
 45 314 l 2,4,5
 58 314 58 314 66.5 322.5 c 128,-1,6
 75 331 75 331 75 343 c 2,7,-1
 75 632 l 2,8,9
 75 649 75 649 68 662 c 128,-1,10
 61 675 61 675 34 675 c 2,11,-1
 30 675 l 1,12,-1
 30 680 l 1,13,14
 62 681 62 681 123.5 690.5 c 128,-1,15
 185 700 185 700 216 715 c 1,16,-1
 221 715 l 1,17,-1
 221 343 l 2,18,19
 221 331 221 331 230 322.5 c 128,-1,20
 239 314 239 314 251 314 c 2,21,-1
 262 314 l 1,0,-1
EndSplineSet
EndChar

StartChar: ordmasculine
Encoding: 186 186 122
Width: 400
GlyphClass: 2
Flags: W
LayerCount: 2
Fore
SplineSet
66 667 m 128,-1,1
 112 710 112 710 200 710 c 128,-1,2
 288 710 288 710 334 667 c 128,-1,3
 380 624 380 624 380 543.5 c 128,-1,4
 380 463 380 463 334 420 c 128,-1,5
 288 377 288 377 200 377 c 128,-1,6
 112 377 112 377 66 420 c 128,-1,7
 20 463 20 463 20 543.5 c 128,-1,0
 20 624 20 624 66 667 c 128,-1,1
200 403 m 0,8,9
 231 403 231 403 245 438 c 128,-1,10
 259 473 259 473 259 525.5 c 128,-1,11
 259 578 259 578 256 603.5 c 128,-1,12
 253 629 253 629 246 647 c 0,13,14
 232 684 232 684 200 684 c 0,15,16
 140 684 140 684 140 543.5 c 128,-1,17
 140 403 140 403 200 403 c 0,8,9
EndSplineSet
EndChar

StartChar: guillemotright
Encoding: 187 187 123
Width: 541
GlyphClass: 2
Flags: W
LayerCount: 2
Fore
SplineSet
69 88 m 1,0,-1
 60 95 l 1,1,-1
 139 292 l 1,2,-1
 61 485 l 1,3,-1
 69 490 l 1,4,-1
 294 292 l 1,5,-1
 69 88 l 1,0,-1
277 88 m 1,6,-1
 268 95 l 1,7,-1
 347 292 l 1,8,-1
 269 485 l 1,9,-1
 277 490 l 1,10,-1
 502 292 l 1,11,-1
 277 88 l 1,6,-1
EndSplineSet
EndChar

StartChar: onequarter
Encoding: 188 188 124
Width: 769
GlyphClass: 2
Flags: W
LayerCount: 2
Fore
SplineSet
597 723 m 1,0,-1
 644 691 l 1,1,-1
 167 -20 l 1,2,-1
 119 11 l 1,3,-1
 597 723 l 1,0,-1
65 632 m 2,4,5
 65 675 65 675 24 675 c 2,6,-1
 20 675 l 1,7,-1
 20 680 l 1,8,9
 52 681 52 681 113.5 690.5 c 128,-1,10
 175 700 175 700 206 715 c 1,11,-1
 211 715 l 1,12,-1
 211 343 l 2,13,14
 211 331 211 331 220 322.5 c 128,-1,15
 229 314 229 314 241 314 c 2,16,-1
 253 314 l 1,17,-1
 253 308 l 1,18,-1
 24 308 l 1,19,-1
 24 314 l 1,20,-1
 35 314 l 2,21,22
 48 314 48 314 56.5 322.5 c 128,-1,23
 65 331 65 331 65 343 c 2,24,-1
 65 632 l 2,4,5
667 92 m 1,25,-1
 667 38 l 2,26,27
 667 25 667 25 677 15.5 c 128,-1,28
 687 6 687 6 700 6 c 2,29,-1
 707 6 l 1,30,-1
 707 0 l 1,31,-1
 483 0 l 1,32,-1
 483 6 l 1,33,-1
 490 6 l 2,34,35
 503 6 503 6 513 15 c 128,-1,36
 523 24 523 24 523 37 c 2,37,-1
 523 92 l 1,38,-1
 329 92 l 1,39,-1
 329 98 l 1,40,-1
 661 408 l 1,41,-1
 667 408 l 1,42,-1
 667 164 l 1,43,-1
 693 164 l 2,44,45
 722 164 722 164 734 192 c 1,46,-1
 740 192 l 1,47,-1
 719 92 l 1,48,-1
 667 92 l 1,25,-1
523 165 m 1,49,-1
 523 231 l 1,50,-1
 448 165 l 1,51,-1
 523 165 l 1,49,-1
EndSplineSet
EndChar

StartChar: onehalf
Encoding: 189 189 125
Width: 850
GlyphClass: 2
Flags: W
LayerCount: 2
Fore
SplineSet
575 723 m 1,0,-1
 622 691 l 1,1,-1
 145 -20 l 1,2,-1
 97 11 l 1,3,-1
 575 723 l 1,0,-1
24 675 m 2,4,-1
 20 675 l 1,5,-1
 20 680 l 1,6,7
 52 681 52 681 113.5 690.5 c 128,-1,8
 175 700 175 700 206 715 c 1,9,-1
 211 715 l 1,10,-1
 211 343 l 2,11,12
 211 331 211 331 220 322.5 c 128,-1,13
 229 314 229 314 241 314 c 2,14,-1
 252 314 l 1,15,-1
 252 308 l 1,16,-1
 24 308 l 1,17,-1
 24 314 l 1,18,-1
 35 314 l 2,19,20
 48 314 48 314 56.5 322.5 c 128,-1,21
 65 331 65 331 65 343 c 2,22,-1
 65 632 l 2,23,24
 65 675 65 675 24 675 c 2,4,-1
577 380 m 0,25,26
 506 380 506 380 505 251 c 1,27,-1
 500 251 l 1,28,-1
 451 366 l 1,29,30
 505 412 505 412 614 412 c 0,31,32
 687 412 687 412 736 381.5 c 128,-1,33
 785 351 785 351 785 299 c 0,34,35
 785 221 785 221 680 152 c 0,36,37
 656 137 656 137 633 126 c 1,38,-1
 726 126 l 2,39,40
 777 126 777 126 805 188 c 1,41,-1
 810 188 l 1,42,-1
 769 0 l 1,43,-1
 459 0 l 1,44,-1
 459 5 l 1,45,46
 471 21 471 21 500 60 c 128,-1,47
 529 99 529 99 542 117 c 128,-1,48
 555 135 555 135 576.5 168 c 128,-1,49
 598 201 598 201 608 221 c 0,50,51
 633 277 633 277 633 312.5 c 128,-1,52
 633 348 633 348 616.5 364 c 128,-1,53
 600 380 600 380 577 380 c 0,25,26
EndSplineSet
EndChar

StartChar: threequarters
Encoding: 190 190 126
Width: 839
GlyphClass: 2
Flags: W
LayerCount: 2
Fore
SplineSet
666 723 m 1,0,-1
 713 691 l 1,1,-1
 236 -20 l 1,2,-1
 188 11 l 1,3,-1
 666 723 l 1,0,-1
289.5 689 m 128,-1,5
 329 664 329 664 329 622.5 c 128,-1,6
 329 581 329 581 308.5 562.5 c 128,-1,7
 288 544 288 544 259 543 c 1,8,9
 348 524 348 524 348 435 c 0,10,11
 348 383 348 383 316 347 c 0,12,13
 264 290 264 290 167 290 c 0,14,15
 92 290 92 290 32 323 c 1,16,-1
 33 328 l 1,17,18
 36 328 36 328 40 328 c 0,19,20
 106 328 106 328 153.5 358.5 c 128,-1,21
 201 389 201 389 201 440.5 c 128,-1,22
 201 492 201 492 171 514.5 c 128,-1,23
 141 537 141 537 105 538 c 1,24,-1
 106 543 l 1,25,26
 108 543 108 543 110 543 c 0,27,28
 145 543 145 543 167.5 568.5 c 128,-1,29
 190 594 190 594 190 625 c 0,30,31
 190 663 190 663 167 676 c 0,32,33
 152 684 152 684 141 684 c 0,34,35
 95 684 95 684 80 652 c 1,36,37
 70 627 70 627 70 576 c 0,38,39
 70 571 70 571 70 565 c 1,40,-1
 64 565 l 1,41,-1
 25 676 l 1,42,43
 75 714 75 714 162.5 714 c 128,-1,4
 250 714 250 714 289.5 689 c 128,-1,5
747 92 m 1,44,-1
 747 38 l 2,45,46
 747 20 747 20 764 10 c 0,47,48
 771 6 771 6 780 6 c 2,49,-1
 787 6 l 1,50,-1
 787 0 l 1,51,-1
 563 0 l 1,52,-1
 563 6 l 1,53,-1
 570 6 l 2,54,55
 583 6 583 6 592.5 15 c 128,-1,56
 602 24 602 24 603 37 c 1,57,-1
 603 92 l 1,58,-1
 409 92 l 1,59,-1
 409 98 l 1,60,-1
 741 409 l 1,61,-1
 747 409 l 1,62,-1
 747 165 l 1,63,-1
 773 165 l 2,64,65
 802 165 802 165 814 192 c 1,66,-1
 820 192 l 1,67,-1
 799 92 l 1,68,-1
 747 92 l 1,44,-1
603 165 m 1,69,-1
 603 231 l 1,70,-1
 528 165 l 1,71,-1
 603 165 l 1,69,-1
EndSplineSet
EndChar

StartChar: questiondown
Encoding: 191 191 127
Width: 523
GlyphClass: 2
Flags: W
LayerCount: 2
Fore
SplineSet
204 687.5 m 128,-1,1
 230 714 230 714 267.5 714 c 128,-1,2
 305 714 305 714 331.5 687.5 c 128,-1,3
 358 661 358 661 358 624 c 128,-1,4
 358 587 358 587 331.5 560.5 c 128,-1,5
 305 534 305 534 267.5 534 c 128,-1,6
 230 534 230 534 204 560.5 c 128,-1,7
 178 587 178 587 178 624 c 256,8,0
 178 661 178 661 204 687.5 c 128,-1,1
245 161 m 0,9,10
 245 36 245 36 336 36 c 0,11,12
 433 36 433 36 433 190 c 1,13,-1
 443 190 l 1,14,-1
 493 75 l 1,15,16
 470 35 470 35 411.5 10.5 c 128,-1,17
 353 -14 353 -14 272 -14 c 0,18,19
 155 -14 155 -14 92.5 32 c 128,-1,20
 30 78 30 78 30 163 c 0,21,22
 30 221 30 221 62.5 262 c 128,-1,23
 95 303 95 303 177 363 c 0,24,25
 229 401 229 401 235 422 c 0,26,27
 243 449 243 449 228 479 c 1,28,-1
 237 485 l 1,29,30
 302 468 302 468 327 419 c 0,31,32
 338 398 338 398 338 382.5 c 128,-1,33
 338 367 338 367 336.5 353 c 128,-1,34
 335 339 335 339 324 320.5 c 128,-1,35
 313 302 313 302 300 288 c 128,-1,36
 287 274 287 274 274 258 c 0,37,38
 245 222 245 222 245 161 c 0,9,10
EndSplineSet
EndChar

StartChar: Agrave
Encoding: 192 192 128
Width: 720
GlyphClass: 2
Flags: W
LayerCount: 2
Fore
SplineSet
376 771 m 1,0,-1
 369 764 l 1,1,2
 316 770 316 770 251 797 c 128,-1,3
 186 824 186 824 136 857 c 1,4,5
 157 930 157 930 221 957 c 1,6,7
 264 920 264 920 310.5 867.5 c 128,-1,8
 357 815 357 815 376 771 c 1,0,-1
752 10 m 2,9,-1
 760 10 l 1,10,-1
 760 0 l 1,11,-1
 381 0 l 1,12,-1
 381 10 l 1,13,-1
 390 10 l 2,14,15
 412 10 412 10 423 23.5 c 128,-1,16
 434 37 434 37 434 48.5 c 128,-1,17
 434 60 434 60 429 73 c 2,18,-1
 390 166 l 1,19,-1
 176 166 l 1,20,-1
 136 73 l 2,21,22
 131 60 131 60 131 52 c 128,-1,23
 131 44 131 44 134.5 34.5 c 128,-1,24
 138 25 138 25 149.5 17.5 c 128,-1,25
 161 10 161 10 174 10 c 2,26,-1
 183 10 l 1,27,-1
 183 0 l 1,28,-1
 -40 0 l 1,29,-1
 -40 10 l 1,30,-1
 -31 10 l 2,31,32
 -8 10 -8 10 14.5 23.5 c 128,-1,33
 37 37 37 37 52 64 c 1,34,-1
 285 575 l 1,35,36
 338 687 338 687 342 724 c 1,37,-1
 351 724 l 1,38,-1
 668 65 l 1,39,40
 700 10 700 10 752 10 c 2,9,-1
198 216 m 1,41,-1
 369 216 l 1,42,-1
 285 416 l 1,43,-1
 198 216 l 1,41,-1
EndSplineSet
EndChar

StartChar: Aacute
Encoding: 193 193 129
Width: 720
GlyphClass: 2
Flags: W
LayerCount: 2
Fore
SplineSet
332 761 m 1,0,-1
 325 768 l 1,1,2
 344 812 344 812 390 864.5 c 128,-1,3
 436 917 436 917 480 954 c 1,4,5
 544 927 544 927 565 854 c 1,6,7
 515 821 515 821 450 794 c 128,-1,8
 385 767 385 767 332 761 c 1,0,-1
752 10 m 2,9,-1
 760 10 l 1,10,-1
 760 0 l 1,11,-1
 381 0 l 1,12,-1
 381 10 l 1,13,-1
 390 10 l 2,14,15
 412 10 412 10 423 23.5 c 128,-1,16
 434 37 434 37 434 48.5 c 128,-1,17
 434 60 434 60 429 73 c 2,18,-1
 390 166 l 1,19,-1
 176 166 l 1,20,-1
 136 73 l 2,21,22
 131 60 131 60 131 52 c 128,-1,23
 131 44 131 44 134.5 34.5 c 128,-1,24
 138 25 138 25 149.5 17.5 c 128,-1,25
 161 10 161 10 174 10 c 2,26,-1
 183 10 l 1,27,-1
 183 0 l 1,28,-1
 -40 0 l 1,29,-1
 -40 10 l 1,30,-1
 -31 10 l 2,31,32
 -8 10 -8 10 14.5 23.5 c 128,-1,33
 37 37 37 37 52 64 c 1,34,-1
 285 575 l 1,35,36
 338 687 338 687 342 724 c 1,37,-1
 351 724 l 1,38,-1
 668 65 l 1,39,40
 700 10 700 10 752 10 c 2,9,-1
198 216 m 1,41,-1
 369 216 l 1,42,-1
 285 416 l 1,43,-1
 198 216 l 1,41,-1
EndSplineSet
EndChar

StartChar: Acircumflex
Encoding: 194 194 130
Width: 720
GlyphClass: 2
Flags: W
LayerCount: 2
Fore
SplineSet
342 932 m 1,0,-1
 353 932 l 1,1,-1
 532 756 l 1,2,-1
 525 748 l 1,3,-1
 347 813 l 1,4,-1
 180 748 l 1,5,-1
 173 756 l 1,6,-1
 342 932 l 1,0,-1
752 10 m 2,7,-1
 760 10 l 1,8,-1
 760 0 l 1,9,-1
 381 0 l 1,10,-1
 381 10 l 1,11,-1
 390 10 l 2,12,13
 412 10 412 10 423 23.5 c 128,-1,14
 434 37 434 37 434 48.5 c 128,-1,15
 434 60 434 60 429 73 c 2,16,-1
 390 166 l 1,17,-1
 176 166 l 1,18,-1
 136 73 l 2,19,20
 131 60 131 60 131 52 c 128,-1,21
 131 44 131 44 134.5 34.5 c 128,-1,22
 138 25 138 25 149.5 17.5 c 128,-1,23
 161 10 161 10 174 10 c 2,24,-1
 183 10 l 1,25,-1
 183 0 l 1,26,-1
 -40 0 l 1,27,-1
 -40 10 l 1,28,-1
 -31 10 l 2,29,30
 -8 10 -8 10 14.5 23.5 c 128,-1,31
 37 37 37 37 52 64 c 1,32,-1
 285 575 l 1,33,34
 338 687 338 687 342 724 c 1,35,-1
 351 724 l 1,36,-1
 668 65 l 1,37,38
 700 10 700 10 752 10 c 2,7,-1
198 216 m 1,39,-1
 369 216 l 1,40,-1
 285 416 l 1,41,-1
 198 216 l 1,39,-1
EndSplineSet
EndChar

StartChar: Atilde
Encoding: 195 195 131
Width: 720
GlyphClass: 2
Flags: W
LayerCount: 2
Fore
SplineSet
544 919 m 1,0,-1
 556 919 l 1,1,2
 562 902 562 902 562 882.5 c 128,-1,3
 562 863 562 863 554 844 c 0,4,5
 532 794 532 794 493 776 c 0,6,7
 469 764 469 764 437.5 764 c 128,-1,8
 406 764 406 764 357 789 c 0,9,10
 307 814 307 814 289.5 816.5 c 128,-1,11
 272 819 272 819 257 819 c 128,-1,12
 242 819 242 819 218 803 c 128,-1,13
 194 787 194 787 186 767 c 1,14,-1
 174 767 l 1,15,16
 170 781 170 781 170 796 c 0,17,18
 170 856 170 856 215 899 c 0,19,20
 246 929 246 929 283.5 929 c 128,-1,21
 321 929 321 929 375 902 c 128,-1,22
 429 875 429 875 474 875 c 0,23,24
 489 875 489 875 513.5 889.5 c 128,-1,25
 538 904 538 904 544 919 c 1,0,-1
752 10 m 2,27,-1
 760 10 l 1,28,-1
 760 0 l 1,29,-1
 381 0 l 1,30,-1
 381 10 l 1,31,-1
 390 10 l 2,32,33
 412 10 412 10 423 23.5 c 128,-1,34
 434 37 434 37 434 48.5 c 128,-1,35
 434 60 434 60 429 73 c 2,36,-1
 390 166 l 1,37,-1
 176 166 l 1,38,-1
 136 73 l 2,39,40
 130 60 130 60 130 48.5 c 128,-1,41
 130 37 130 37 141 23.5 c 128,-1,42
 152 10 152 10 174 10 c 2,43,-1
 183 10 l 1,44,-1
 183 0 l 1,45,-1
 -40 0 l 1,46,-1
 -40 10 l 1,47,-1
 -31 10 l 2,48,49
 -8 10 -8 10 14.5 23.5 c 128,-1,50
 37 37 37 37 52 64 c 1,51,-1
 285 575 l 1,52,53
 338 687 338 687 342 724 c 1,54,-1
 351 724 l 1,55,-1
 668 65 l 1,56,26
 700 10 700 10 752 10 c 2,27,-1
198 216 m 1,57,-1
 369 216 l 1,58,-1
 285 416 l 1,59,-1
 198 216 l 1,57,-1
EndSplineSet
EndChar

StartChar: Adieresis
Encoding: 196 196 132
Width: 720
GlyphClass: 2
Flags: W
LayerCount: 2
Fore
SplineSet
213.5 755 m 128,-1,1
 183 755 183 755 161.5 777 c 128,-1,2
 140 799 140 799 140 829.5 c 128,-1,3
 140 860 140 860 161.5 881.5 c 128,-1,4
 183 903 183 903 213.5 903 c 128,-1,5
 244 903 244 903 266 881.5 c 128,-1,6
 288 860 288 860 288 829.5 c 128,-1,7
 288 799 288 799 266 777 c 128,-1,0
 244 755 244 755 213.5 755 c 128,-1,1
476.5 755 m 128,-1,9
 446 755 446 755 424.5 777 c 128,-1,10
 403 799 403 799 403 829.5 c 128,-1,11
 403 860 403 860 424.5 881.5 c 128,-1,12
 446 903 446 903 476.5 903 c 128,-1,13
 507 903 507 903 528.5 881.5 c 128,-1,14
 550 860 550 860 550 829.5 c 128,-1,15
 550 799 550 799 528.5 777 c 128,-1,8
 507 755 507 755 476.5 755 c 128,-1,9
752 10 m 2,16,-1
 760 10 l 1,17,-1
 760 0 l 1,18,-1
 381 0 l 1,19,-1
 381 10 l 1,20,-1
 390 10 l 2,21,22
 412 10 412 10 423 23.5 c 128,-1,23
 434 37 434 37 434 48.5 c 128,-1,24
 434 60 434 60 429 73 c 2,25,-1
 390 166 l 1,26,-1
 176 166 l 1,27,-1
 136 73 l 2,28,29
 131 60 131 60 131 52 c 128,-1,30
 131 44 131 44 134.5 34.5 c 128,-1,31
 138 25 138 25 149.5 17.5 c 128,-1,32
 161 10 161 10 174 10 c 2,33,-1
 183 10 l 1,34,-1
 183 0 l 1,35,-1
 -40 0 l 1,36,-1
 -40 10 l 1,37,-1
 -31 10 l 2,38,39
 -8 10 -8 10 14.5 23.5 c 128,-1,40
 37 37 37 37 52 64 c 1,41,-1
 285 575 l 1,42,43
 338 687 338 687 342 724 c 1,44,-1
 351 724 l 1,45,-1
 668 65 l 1,46,47
 700 10 700 10 752 10 c 2,16,-1
198 216 m 1,48,-1
 369 216 l 1,49,-1
 285 416 l 1,50,-1
 198 216 l 1,48,-1
EndSplineSet
EndChar

StartChar: Aring
Encoding: 197 197 133
Width: 720
GlyphClass: 2
Flags: W
LayerCount: 2
Fore
SplineSet
752 10 m 2,0,-1
 760 10 l 1,1,-1
 760 0 l 1,2,-1
 381 0 l 1,3,-1
 381 10 l 1,4,-1
 390 10 l 2,5,6
 412 10 412 10 422.5 23.5 c 128,-1,7
 433 37 433 37 433 48.5 c 128,-1,8
 433 60 433 60 429 72 c 1,9,-1
 388 166 l 1,10,-1
 178 166 l 1,11,-1
 135 71 l 1,12,13
 131 59 131 59 131 48 c 128,-1,14
 131 37 131 37 141.5 23.5 c 128,-1,15
 152 10 152 10 174 10 c 2,16,-1
 183 10 l 1,17,-1
 183 0 l 1,18,-1
 -40 0 l 1,19,-1
 -40 10 l 1,20,-1
 -31 10 l 2,21,22
 -6 10 -6 10 18 25.5 c 128,-1,23
 42 41 42 41 57 73 c 2,24,-1
 285 565 l 1,25,26
 325 648 325 648 338 694 c 1,27,28
 300 696 300 696 274.5 717 c 128,-1,29
 249 738 249 738 249 769.5 c 128,-1,30
 249 801 249 801 277.5 822 c 128,-1,31
 306 843 306 843 347.5 843 c 128,-1,32
 389 843 389 843 417.5 822.5 c 128,-1,33
 446 802 446 802 446 771 c 128,-1,34
 446 740 446 740 421.5 719 c 128,-1,35
 397 698 397 698 361 694 c 1,36,-1
 664 73 l 2,37,38
 695 10 695 10 752 10 c 2,0,-1
348 821 m 0,39,40
 347 821 347 821 347 821 c 129,-1,41
 347 821 347 821 346 821 c 0,42,43
 329 821 329 821 317 806 c 128,-1,44
 305 791 305 791 305 775.5 c 128,-1,45
 305 760 305 760 307 752 c 128,-1,46
 309 744 309 744 312.5 737.5 c 128,-1,47
 316 731 316 731 322 726 c 0,48,49
 332 716 332 716 349 716 c 128,-1,50
 366 716 366 716 378.5 731 c 128,-1,51
 391 746 391 746 391 768.5 c 128,-1,52
 391 791 391 791 378.5 806 c 128,-1,53
 366 821 366 821 348 821 c 0,39,40
200 216 m 1,54,-1
 367 216 l 1,55,-1
 285 408 l 1,56,-1
 200 216 l 1,54,-1
EndSplineSet
EndChar

StartChar: AE
Encoding: 198 198 134
Width: 1017
GlyphClass: 2
Flags: W
LayerCount: 2
Fore
SplineSet
416 10 m 2,0,1
 436 10 436 10 450.5 24 c 128,-1,2
 465 38 465 38 466 58 c 1,3,-1
 466 317 l 1,4,-1
 309 317 l 1,5,-1
 158 73 l 2,6,7
 141 44 141 44 158 26 c 0,8,9
 174 10 174 10 196 10 c 2,10,-1
 205 10 l 1,11,-1
 205 0 l 1,12,-1
 -33 0 l 1,13,-1
 -33 10 l 1,14,-1
 -24 10 l 2,15,16
 19 10 19 10 62 71 c 2,17,-1
 453 641 l 2,18,19
 461 654 461 654 461 662 c 0,20,21
 461 690 461 690 432 690 c 2,22,-1
 427 690 l 1,23,-1
 427 700 l 1,24,-1
 821 700 l 2,25,26
 865 700 865 700 898 707 c 128,-1,27
 931 714 931 714 940 718 c 1,28,-1
 940 512 l 1,29,-1
 930 512 l 1,30,-1
 930 520 l 1,31,32
 931 600 931 600 873 632 c 0,33,34
 845 648 845 648 805 649 c 1,35,-1
 671 649 l 1,36,-1
 671 367 l 1,37,-1
 773 367 l 1,38,39
 819 369 819 369 848.5 399.5 c 128,-1,40
 878 430 878 430 878 476 c 2,41,-1
 878 481 l 1,42,-1
 888 481 l 1,43,-1
 888 203 l 1,44,-1
 878 203 l 1,45,-1
 878 208 l 2,46,47
 878 254 878 254 849 284.5 c 128,-1,48
 820 315 820 315 775 317 c 1,49,-1
 671 317 l 1,50,-1
 671 51 l 1,51,-1
 784 51 l 2,52,53
 857 51 857 51 912.5 99 c 128,-1,54
 968 147 968 147 991 232 c 1,55,-1
 1001 232 l 1,56,-1
 963 0 l 1,57,-1
 406 0 l 1,58,-1
 407 10 l 1,59,-1
 416 10 l 2,0,1
466 367 m 1,60,-1
 466 569 l 1,61,-1
 340 367 l 1,62,-1
 466 367 l 1,60,-1
EndSplineSet
EndChar

StartChar: Ccedilla
Encoding: 199 199 135
Width: 793
GlyphClass: 2
Flags: W
LayerCount: 2
Fore
SplineSet
472 -14 m 2,0,-1
 460 -14 l 1,1,-1
 423 -57 l 1,2,3
 437 -52 437 -52 447 -52 c 128,-1,4
 457 -52 457 -52 467 -52 c 128,-1,5
 477 -52 477 -52 497.5 -57.5 c 128,-1,6
 518 -63 518 -63 530 -78 c 128,-1,7
 542 -93 542 -93 542 -105 c 0,8,9
 542 -151 542 -151 510 -178 c 0,10,11
 468 -213 468 -213 410 -213 c 0,12,13
 382 -213 382 -213 353 -205 c 1,14,-1
 354 -195 l 1,15,16
 390 -195 390 -195 424 -174.5 c 128,-1,17
 458 -154 458 -154 458 -114 c 0,18,19
 458 -98 458 -98 441 -86 c 0,20,21
 411 -65 411 -65 360 -81 c 1,22,-1
 355 -71 l 1,23,-1
 402 -11 l 1,24,25
 229 6 229 6 132 100 c 128,-1,26
 35 194 35 194 35 351 c 0,27,28
 35 464 35 464 87 546 c 128,-1,29
 139 628 139 628 237.5 671 c 128,-1,30
 336 714 336 714 479 714 c 128,-1,31
 622 714 622 714 730 668 c 1,32,-1
 720 477 l 1,33,-1
 711 477 l 1,34,35
 682 578 682 578 627 621 c 128,-1,36
 572 664 572 664 490 664 c 0,37,38
 379 664 379 664 317 582 c 128,-1,39
 255 500 255 500 255 353.5 c 128,-1,40
 255 207 255 207 312.5 123 c 128,-1,41
 370 39 370 39 472 36 c 1,42,43
 590 36 590 36 643 92 c 0,44,45
 693 144 693 144 721 292 c 1,46,-1
 729 292 l 1,47,-1
 753 110 l 1,48,49
 679 -14 679 -14 472 -14 c 2,0,-1
EndSplineSet
EndChar

StartChar: Egrave
Encoding: 200 200 136
Width: 667
GlyphClass: 2
Flags: W
LayerCount: 2
Fore
SplineSet
393 771 m 1,0,-1
 386 764 l 1,1,2
 333 770 333 770 269 797 c 128,-1,3
 205 824 205 824 156 857 c 1,4,5
 180 930 180 930 245 957 c 1,6,7
 286 920 286 920 330.5 867.5 c 128,-1,8
 375 815 375 815 393 771 c 1,0,-1
43 10 m 2,9,10
 69 10 69 10 87.5 28.5 c 128,-1,11
 106 47 106 47 107 73 c 1,12,-1
 107 627 l 1,13,14
 106 664 106 664 75 682 c 0,15,16
 60 690 60 690 43 690 c 2,17,-1
 30 690 l 1,18,-1
 30 700 l 1,19,-1
 473 700 l 2,20,21
 516 700 516 700 549.5 707 c 128,-1,22
 583 714 583 714 592 718 c 1,23,-1
 592 512 l 1,24,-1
 582 512 l 1,25,-1
 582 520 l 2,26,27
 582 600 582 600 524 632 c 0,28,29
 496 648 496 648 457 649 c 1,30,-1
 312 649 l 1,31,-1
 312 370 l 1,32,-1
 421 370 l 1,33,34
 469 371 469 371 499 401.5 c 128,-1,35
 529 432 529 432 529 480 c 2,36,-1
 529 484 l 1,37,-1
 539 484 l 1,38,-1
 539 206 l 1,39,-1
 529 206 l 1,40,-1
 529 211 l 2,41,42
 529 258 529 258 499 288.5 c 128,-1,43
 469 319 469 319 422 320 c 1,44,-1
 312 320 l 1,45,-1
 312 51 l 1,46,-1
 435 51 l 2,47,48
 508 51 508 51 564 99 c 128,-1,49
 620 147 620 147 643 232 c 1,50,-1
 653 232 l 1,51,-1
 615 0 l 1,52,-1
 30 0 l 1,53,-1
 30 10 l 1,54,-1
 43 10 l 2,9,10
EndSplineSet
EndChar

StartChar: Eacute
Encoding: 201 201 137
Width: 667
GlyphClass: 2
Flags: W
LayerCount: 2
Fore
SplineSet
322 761 m 1,0,-1
 315 768 l 1,1,2
 334 812 334 812 380.5 864.5 c 128,-1,3
 427 917 427 917 470 954 c 1,4,5
 534 927 534 927 555 854 c 1,6,7
 505 821 505 821 440 794 c 128,-1,8
 375 767 375 767 322 761 c 1,0,-1
43 10 m 2,9,10
 69 10 69 10 87.5 28.5 c 128,-1,11
 106 47 106 47 107 73 c 1,12,-1
 107 627 l 1,13,14
 106 653 106 653 87.5 671.5 c 128,-1,15
 69 690 69 690 43 690 c 2,16,-1
 30 690 l 1,17,-1
 30 700 l 1,18,-1
 473 700 l 2,19,20
 504 700 504 700 540.5 706 c 128,-1,21
 577 712 577 712 592 718 c 1,22,-1
 592 512 l 1,23,-1
 582 512 l 1,24,-1
 582 520 l 2,25,26
 582 600 582 600 524 632 c 0,27,28
 496 648 496 648 457 649 c 1,29,-1
 312 649 l 1,30,-1
 312 370 l 1,31,-1
 421 370 l 1,32,33
 469 371 469 371 499 401.5 c 128,-1,34
 529 432 529 432 529 480 c 2,35,-1
 529 484 l 1,36,-1
 539 484 l 1,37,-1
 539 206 l 1,38,-1
 529 206 l 1,39,-1
 529 211 l 2,40,41
 529 258 529 258 499 288.5 c 128,-1,42
 469 319 469 319 422 320 c 1,43,-1
 312 320 l 1,44,-1
 312 51 l 1,45,-1
 435 51 l 2,46,47
 508 51 508 51 564 99 c 128,-1,48
 620 147 620 147 643 232 c 1,49,-1
 653 232 l 1,50,-1
 615 0 l 1,51,-1
 30 0 l 1,52,-1
 30 10 l 1,53,-1
 43 10 l 2,9,10
EndSplineSet
EndChar

StartChar: Ecircumflex
Encoding: 202 202 138
Width: 667
GlyphClass: 2
Flags: W
LayerCount: 2
Fore
SplineSet
332 932 m 1,0,-1
 344 932 l 1,1,-1
 522 756 l 1,2,-1
 515 748 l 1,3,-1
 337 813 l 1,4,-1
 170 748 l 1,5,-1
 163 756 l 1,6,-1
 332 932 l 1,0,-1
43 10 m 2,7,8
 69 10 69 10 87.5 28.5 c 128,-1,9
 106 47 106 47 107 73 c 1,10,-1
 107 627 l 1,11,12
 106 653 106 653 87.5 671.5 c 128,-1,13
 69 690 69 690 43 690 c 2,14,-1
 30 690 l 1,15,-1
 30 700 l 1,16,-1
 473 700 l 2,17,18
 504 700 504 700 540.5 706 c 128,-1,19
 577 712 577 712 592 718 c 1,20,-1
 592 512 l 1,21,-1
 582 512 l 1,22,-1
 582 520 l 2,23,24
 582 600 582 600 524 632 c 0,25,26
 496 648 496 648 457 649 c 1,27,-1
 312 649 l 1,28,-1
 312 370 l 1,29,-1
 421 370 l 1,30,31
 469 371 469 371 499 401.5 c 128,-1,32
 529 432 529 432 529 480 c 2,33,-1
 529 484 l 1,34,-1
 539 484 l 1,35,-1
 539 206 l 1,36,-1
 529 206 l 1,37,-1
 529 211 l 2,38,39
 529 258 529 258 499 288.5 c 128,-1,40
 469 319 469 319 422 320 c 1,41,-1
 312 320 l 1,42,-1
 312 51 l 1,43,-1
 435 51 l 2,44,45
 508 51 508 51 564 99 c 128,-1,46
 620 147 620 147 643 232 c 1,47,-1
 653 232 l 1,48,-1
 615 0 l 1,49,-1
 30 0 l 1,50,-1
 30 10 l 1,51,-1
 43 10 l 2,7,8
EndSplineSet
EndChar

StartChar: Edieresis
Encoding: 203 203 139
Width: 667
GlyphClass: 2
Flags: W
LayerCount: 2
Fore
SplineSet
204.5 755 m 128,-1,1
 174 755 174 755 152.5 777 c 128,-1,2
 131 799 131 799 131 829.5 c 128,-1,3
 131 860 131 860 152.5 881.5 c 128,-1,4
 174 903 174 903 204.5 903 c 128,-1,5
 235 903 235 903 256.5 881.5 c 128,-1,6
 278 860 278 860 278 829.5 c 128,-1,7
 278 799 278 799 256.5 777 c 128,-1,0
 235 755 235 755 204.5 755 c 128,-1,1
466.5 755 m 128,-1,9
 436 755 436 755 414.5 777 c 128,-1,10
 393 799 393 799 393 829.5 c 128,-1,11
 393 860 393 860 414.5 881.5 c 128,-1,12
 436 903 436 903 466.5 903 c 128,-1,13
 497 903 497 903 518.5 881.5 c 128,-1,14
 540 860 540 860 540 829.5 c 128,-1,15
 540 799 540 799 518.5 777 c 128,-1,8
 497 755 497 755 466.5 755 c 128,-1,9
43 10 m 2,16,17
 69 10 69 10 87.5 28.5 c 128,-1,18
 106 47 106 47 107 73 c 1,19,-1
 107 627 l 1,20,21
 106 653 106 653 87.5 671.5 c 128,-1,22
 69 690 69 690 43 690 c 2,23,-1
 30 690 l 1,24,-1
 30 700 l 1,25,-1
 473 700 l 2,26,27
 516 700 516 700 549.5 707 c 128,-1,28
 583 714 583 714 592 718 c 1,29,-1
 592 512 l 1,30,-1
 582 512 l 1,31,-1
 582 520 l 2,32,33
 582 600 582 600 524 632 c 0,34,35
 496 648 496 648 457 649 c 1,36,-1
 312 649 l 1,37,-1
 312 370 l 1,38,-1
 421 370 l 1,39,40
 469 371 469 371 499 401.5 c 128,-1,41
 529 432 529 432 529 480 c 2,42,-1
 529 484 l 1,43,-1
 539 484 l 1,44,-1
 539 206 l 1,45,-1
 529 206 l 1,46,-1
 529 211 l 2,47,48
 529 258 529 258 499 288.5 c 128,-1,49
 469 319 469 319 422 320 c 1,50,-1
 312 320 l 1,51,-1
 312 51 l 1,52,-1
 435 51 l 2,53,54
 508 51 508 51 564 99 c 128,-1,55
 620 147 620 147 643 232 c 1,56,-1
 653 232 l 1,57,-1
 615 0 l 1,58,-1
 30 0 l 1,59,-1
 30 10 l 1,60,-1
 43 10 l 2,16,17
EndSplineSet
EndChar

StartChar: Igrave
Encoding: 204 204 140
Width: 418
GlyphClass: 2
Flags: W
LayerCount: 2
Fore
SplineSet
245 771 m 1,0,-1
 238 764 l 1,1,2
 185 770 185 770 120 797 c 128,-1,3
 55 824 55 824 5 857 c 1,4,5
 26 930 26 930 90 957 c 1,6,7
 134 920 134 920 180 867.5 c 128,-1,8
 226 815 226 815 245 771 c 1,0,-1
43 10 m 2,9,10
 69 10 69 10 87.5 28.5 c 128,-1,11
 106 47 106 47 107 73 c 1,12,-1
 107 628 l 1,13,14
 106 654 106 654 87.5 672 c 128,-1,15
 69 690 69 690 43 690 c 2,16,-1
 30 690 l 1,17,-1
 30 700 l 1,18,-1
 389 700 l 1,19,-1
 389 690 l 1,20,-1
 376 690 l 2,21,22
 350 690 350 690 331.5 672 c 128,-1,23
 313 654 313 654 312 628 c 1,24,-1
 312 73 l 2,25,26
 312 47 312 47 331 28.5 c 128,-1,27
 350 10 350 10 376 10 c 2,28,-1
 389 10 l 1,29,-1
 389 0 l 1,30,-1
 30 0 l 1,31,-1
 30 10 l 1,32,-1
 43 10 l 2,9,10
EndSplineSet
EndChar

StartChar: Iacute
Encoding: 205 205 141
Width: 418
GlyphClass: 2
Flags: W
LayerCount: 2
Fore
SplineSet
191 761 m 1,0,-1
 184 768 l 1,1,2
 213 836 213 836 309 926 c 0,3,4
 325 941 325 941 339 954 c 1,5,6
 403 927 403 927 424 854 c 1,7,8
 374 821 374 821 309 794 c 128,-1,9
 244 767 244 767 191 761 c 1,0,-1
43 10 m 2,10,11
 69 10 69 10 87.5 28.5 c 128,-1,12
 106 47 106 47 107 73 c 1,13,-1
 107 628 l 1,14,15
 106 654 106 654 87.5 672 c 128,-1,16
 69 690 69 690 43 690 c 2,17,-1
 30 690 l 1,18,-1
 30 700 l 1,19,-1
 389 700 l 1,20,-1
 389 690 l 1,21,-1
 376 690 l 2,22,23
 350 690 350 690 331.5 672 c 128,-1,24
 313 654 313 654 312 628 c 1,25,-1
 312 73 l 2,26,27
 312 47 312 47 331 28.5 c 128,-1,28
 350 10 350 10 376 10 c 2,29,-1
 389 10 l 1,30,-1
 389 0 l 1,31,-1
 30 0 l 1,32,-1
 30 10 l 1,33,-1
 43 10 l 2,10,11
EndSplineSet
EndChar

StartChar: Icircumflex
Encoding: 206 206 142
Width: 418
GlyphClass: 2
Flags: W
LayerCount: 2
Fore
SplineSet
201 932 m 1,0,-1
 213 932 l 1,1,-1
 391 756 l 1,2,-1
 384 748 l 1,3,-1
 206 813 l 1,4,-1
 39 748 l 1,5,-1
 32 756 l 1,6,-1
 201 932 l 1,0,-1
43 10 m 2,7,8
 69 10 69 10 87.5 28.5 c 128,-1,9
 106 47 106 47 107 73 c 1,10,-1
 107 628 l 1,11,12
 106 654 106 654 87.5 672 c 128,-1,13
 69 690 69 690 43 690 c 2,14,-1
 30 690 l 1,15,-1
 30 700 l 1,16,-1
 389 700 l 1,17,-1
 389 690 l 1,18,-1
 376 690 l 2,19,20
 350 690 350 690 331.5 672 c 128,-1,21
 313 654 313 654 312 628 c 1,22,-1
 312 73 l 2,23,24
 312 47 312 47 331 28.5 c 128,-1,25
 350 10 350 10 376 10 c 2,26,-1
 389 10 l 1,27,-1
 389 0 l 1,28,-1
 30 0 l 1,29,-1
 30 10 l 1,30,-1
 43 10 l 2,7,8
EndSplineSet
EndChar

StartChar: Idieresis
Encoding: 207 207 143
Width: 418
GlyphClass: 2
Flags: W
LayerCount: 2
Fore
SplineSet
73.5 755 m 128,-1,1
 43 755 43 755 21.5 777 c 128,-1,2
 0 799 0 799 0 829.5 c 128,-1,3
 0 860 0 860 21.5 881.5 c 128,-1,4
 43 903 43 903 73.5 903 c 128,-1,5
 104 903 104 903 125.5 881.5 c 128,-1,6
 147 860 147 860 147 829.5 c 128,-1,7
 147 799 147 799 125.5 777 c 128,-1,0
 104 755 104 755 73.5 755 c 128,-1,1
336.5 755 m 128,-1,9
 306 755 306 755 284 777 c 128,-1,10
 262 799 262 799 262 829.5 c 128,-1,11
 262 860 262 860 284 881.5 c 128,-1,12
 306 903 306 903 336.5 903 c 128,-1,13
 367 903 367 903 388.5 881.5 c 128,-1,14
 410 860 410 860 410 829.5 c 128,-1,15
 410 799 410 799 388.5 777 c 128,-1,8
 367 755 367 755 336.5 755 c 128,-1,9
43 10 m 2,16,17
 69 10 69 10 87.5 28.5 c 128,-1,18
 106 47 106 47 107 73 c 1,19,-1
 107 628 l 1,20,21
 106 654 106 654 87.5 672 c 128,-1,22
 69 690 69 690 43 690 c 2,23,-1
 30 690 l 1,24,-1
 30 700 l 1,25,-1
 389 700 l 1,26,-1
 389 690 l 1,27,-1
 376 690 l 2,28,29
 350 690 350 690 331.5 672 c 128,-1,30
 313 654 313 654 312 628 c 1,31,-1
 312 73 l 2,32,33
 312 47 312 47 331 28.5 c 128,-1,34
 350 10 350 10 376 10 c 2,35,-1
 389 10 l 1,36,-1
 389 0 l 1,37,-1
 30 0 l 1,38,-1
 30 10 l 1,39,-1
 43 10 l 2,16,17
EndSplineSet
EndChar

StartChar: Eth
Encoding: 208 208 144
Width: 842
GlyphClass: 2
Flags: W
LayerCount: 2
Fore
SplineSet
808 350 m 128,-1,1
 808 185 808 185 702.5 92.5 c 128,-1,2
 597 0 597 0 409 0 c 2,3,-1
 30 0 l 1,4,-1
 30 10 l 1,5,-1
 43 10 l 2,6,7
 69 10 69 10 87.5 28.5 c 128,-1,8
 106 47 106 47 107 73 c 1,9,-1
 107 325 l 1,10,-1
 30 325 l 1,11,-1
 30 375 l 1,12,-1
 107 375 l 1,13,-1
 107 633 l 2,14,15
 107 657 107 657 87.5 673.5 c 128,-1,16
 68 690 68 690 43 690 c 2,17,-1
 31 690 l 1,18,-1
 30 700 l 1,19,-1
 409 700 l 2,20,21
 597 700 597 700 702.5 607.5 c 128,-1,0
 808 515 808 515 808 350 c 128,-1,1
312 325 m 1,22,-1
 312 50 l 1,23,-1
 389 50 l 2,24,25
 483 50 483 50 538 129.5 c 128,-1,26
 593 209 593 209 593 350 c 128,-1,27
 593 491 593 491 538 570.5 c 128,-1,28
 483 650 483 650 389 650 c 2,29,-1
 312 650 l 1,30,-1
 312 375 l 1,31,-1
 420 375 l 1,32,-1
 420 325 l 1,33,-1
 312 325 l 1,22,-1
EndSplineSet
EndChar

StartChar: Ntilde
Encoding: 209 209 145
Width: 881
GlyphClass: 2
Flags: W
LayerCount: 2
Fore
SplineSet
607 919 m 1,0,-1
 619 919 l 1,1,2
 625 902 625 902 625 882.5 c 128,-1,3
 625 863 625 863 617 844 c 0,4,5
 595 794 595 794 556 776 c 0,6,7
 532 764 532 764 500.5 764 c 128,-1,8
 469 764 469 764 420 789 c 0,9,10
 370 814 370 814 352.5 816.5 c 128,-1,11
 335 819 335 819 320 819 c 128,-1,12
 305 819 305 819 281 803 c 128,-1,13
 257 787 257 787 249 767 c 1,14,-1
 237 767 l 1,15,16
 233 781 233 781 233 796 c 0,17,18
 233 856 233 856 278 899 c 0,19,20
 309 929 309 929 346.5 929 c 128,-1,21
 384 929 384 929 438 902 c 128,-1,22
 492 875 492 875 537 875 c 0,23,24
 552 875 552 875 576.5 889.5 c 128,-1,25
 601 904 601 904 607 919 c 1,0,-1
843 690 m 2,26,27
 818 690 818 690 800 672.5 c 128,-1,28
 782 655 782 655 781 630 c 1,29,-1
 781 114 l 2,30,31
 781 40 781 40 791 0 c 1,32,-1
 794 -14 l 1,33,-1
 785 -14 l 1,34,-1
 306 412 l 1,35,-1
 306 71 l 2,36,37
 306 35 306 35 337 18 c 0,38,39
 351 10 351 10 367 10 c 2,40,-1
 386 10 l 1,41,-1
 386 0 l 1,42,-1
 20 0 l 1,43,-1
 20 10 l 1,44,-1
 39 10 l 2,45,46
 64 10 64 10 82 27.5 c 128,-1,47
 100 45 100 45 100 71 c 2,48,-1
 100 590 l 2,49,50
 100 660 100 660 90 701 c 1,51,-1
 87 715 l 1,52,-1
 97 715 l 1,53,-1
 576 289 l 1,54,-1
 576 629 l 1,55,56
 575 655 575 655 557 672.5 c 128,-1,57
 539 690 539 690 514 690 c 2,58,-1
 495 690 l 1,59,-1
 495 700 l 1,60,-1
 861 700 l 1,61,-1
 861 690 l 1,62,-1
 843 690 l 2,26,27
EndSplineSet
EndChar

StartChar: Ograve
Encoding: 210 210 146
Width: 905
GlyphClass: 2
Flags: W
LayerCount: 2
Fore
SplineSet
477 785 m 1,0,-1
 470 778 l 1,1,2
 398 787 398 787 309 830 c 0,3,4
 270 849 270 849 237 871 c 1,5,6
 259 944 259 944 323 971 c 1,7,8
 384 918 384 918 424 866.5 c 128,-1,9
 464 815 464 815 477 785 c 1,0,-1
450 714 m 0,10,11
 579 714 579 714 672.5 671 c 128,-1,12
 766 628 766 628 816 545.5 c 128,-1,13
 866 463 866 463 866 350 c 0,14,15
 866 179 866 179 755.5 82.5 c 128,-1,16
 645 -14 645 -14 450.5 -14 c 128,-1,17
 256 -14 256 -14 145.5 82.5 c 128,-1,18
 35 179 35 179 35 350 c 128,-1,19
 35 521 35 521 145.5 617.5 c 128,-1,20
 256 714 256 714 450 714 c 0,10,11
450 36 m 0,21,22
 546 36 546 36 598 118.5 c 128,-1,23
 650 201 650 201 650 350 c 0,24,25
 650 551 650 551 559 627 c 0,26,27
 514 664 514 664 450 664 c 0,28,29
 354 664 354 664 302.5 581.5 c 128,-1,30
 251 499 251 499 251 350 c 0,31,32
 251 149 251 149 342 73 c 0,33,34
 387 36 387 36 450 36 c 0,21,22
EndSplineSet
EndChar

StartChar: Oacute
Encoding: 211 211 147
Width: 905
GlyphClass: 2
Flags: W
LayerCount: 2
Fore
SplineSet
433 775 m 1,0,-1
 426 782 l 1,1,2
 445 826 445 826 491.5 878.5 c 128,-1,3
 538 931 538 931 581 968 c 1,4,5
 645 941 645 941 666 868 c 1,6,7
 616 835 616 835 551 808 c 128,-1,8
 486 781 486 781 433 775 c 1,0,-1
450 714 m 0,9,10
 579 714 579 714 672.5 671 c 128,-1,11
 766 628 766 628 816 545.5 c 128,-1,12
 866 463 866 463 866 350 c 0,13,14
 866 179 866 179 755.5 82.5 c 128,-1,15
 645 -14 645 -14 450.5 -14 c 128,-1,16
 256 -14 256 -14 145.5 82.5 c 128,-1,17
 35 179 35 179 35 350 c 128,-1,18
 35 521 35 521 145.5 617.5 c 128,-1,19
 256 714 256 714 450 714 c 0,9,10
450.5 36 m 128,-1,21
 542 36 542 36 593.5 119 c 128,-1,22
 645 202 645 202 645 350 c 128,-1,23
 645 498 645 498 593.5 581 c 128,-1,24
 542 664 542 664 450.5 664 c 128,-1,25
 359 664 359 664 307.5 581 c 128,-1,26
 256 498 256 498 256 350 c 128,-1,27
 256 202 256 202 307.5 119 c 128,-1,20
 359 36 359 36 450.5 36 c 128,-1,21
EndSplineSet
EndChar

StartChar: Ocircumflex
Encoding: 212 212 148
Width: 905
GlyphClass: 2
Flags: W
LayerCount: 2
Fore
SplineSet
443 946 m 1,0,-1
 455 946 l 1,1,-1
 634 770 l 1,2,-1
 626 762 l 1,3,-1
 449 827 l 1,4,-1
 281 762 l 1,5,-1
 274 770 l 1,6,-1
 443 946 l 1,0,-1
450 714 m 0,7,8
 579 714 579 714 672.5 671 c 128,-1,9
 766 628 766 628 816 545.5 c 128,-1,10
 866 463 866 463 866 350 c 0,11,12
 866 179 866 179 755 82.5 c 128,-1,13
 644 -14 644 -14 450 -14 c 128,-1,14
 256 -14 256 -14 145.5 82.5 c 128,-1,15
 35 179 35 179 35 350 c 128,-1,16
 35 521 35 521 145.5 617.5 c 128,-1,17
 256 714 256 714 450 714 c 0,7,8
450.5 36 m 128,-1,19
 542 36 542 36 593.5 119 c 128,-1,20
 645 202 645 202 645 350 c 128,-1,21
 645 498 645 498 593.5 581 c 128,-1,22
 542 664 542 664 450.5 664 c 128,-1,23
 359 664 359 664 307.5 581 c 128,-1,24
 256 498 256 498 256 350 c 128,-1,25
 256 202 256 202 307.5 119 c 128,-1,18
 359 36 359 36 450.5 36 c 128,-1,19
EndSplineSet
EndChar

StartChar: Otilde
Encoding: 213 213 149
Width: 905
GlyphClass: 2
Flags: W
LayerCount: 2
Fore
SplineSet
645 933 m 1,0,-1
 658 933 l 1,1,2
 664 916 664 916 664 896.5 c 128,-1,3
 664 877 664 877 655 858 c 0,4,5
 634 808 634 808 594 790 c 1,6,7
 570 778 570 778 542.5 778 c 128,-1,8
 515 778 515 778 488 789 c 0,9,10
 462 800 462 800 434 814 c 128,-1,11
 406 828 406 828 389.5 830.5 c 128,-1,12
 373 833 373 833 358.5 833 c 128,-1,13
 344 833 344 833 320 817 c 128,-1,14
 296 801 296 801 288 781 c 1,15,-1
 275 781 l 1,16,17
 272 795 272 795 272 810 c 0,18,19
 272 870 272 870 316 913 c 0,20,21
 347 943 347 943 384.5 943 c 128,-1,22
 422 943 422 943 476.5 916 c 128,-1,23
 531 889 531 889 576 889 c 0,24,25
 590 889 590 889 614.5 903.5 c 128,-1,26
 639 918 639 918 645 933 c 1,0,-1
450 714 m 128,-1,28
 644 714 644 714 755 617.5 c 128,-1,29
 866 521 866 521 866 350 c 128,-1,30
 866 179 866 179 755 82.5 c 128,-1,31
 644 -14 644 -14 450 -14 c 128,-1,32
 256 -14 256 -14 145.5 82.5 c 128,-1,33
 35 179 35 179 35 350 c 128,-1,34
 35 521 35 521 145.5 617.5 c 128,-1,27
 256 714 256 714 450 714 c 128,-1,28
450.5 36 m 128,-1,36
 542 36 542 36 593.5 119 c 128,-1,37
 645 202 645 202 645 350 c 128,-1,38
 645 498 645 498 593.5 581 c 128,-1,39
 542 664 542 664 450.5 664 c 128,-1,40
 359 664 359 664 307.5 581 c 128,-1,41
 256 498 256 498 256 350 c 128,-1,42
 256 202 256 202 307.5 119 c 128,-1,35
 359 36 359 36 450.5 36 c 128,-1,36
EndSplineSet
EndChar

StartChar: Odieresis
Encoding: 214 214 150
Width: 905
GlyphClass: 2
Flags: W
LayerCount: 2
Fore
SplineSet
315.5 769 m 128,-1,1
 285 769 285 769 263.5 791 c 128,-1,2
 242 813 242 813 242 843.5 c 128,-1,3
 242 874 242 874 263.5 895.5 c 128,-1,4
 285 917 285 917 315.5 917 c 128,-1,5
 346 917 346 917 367.5 895.5 c 128,-1,6
 389 874 389 874 389 843.5 c 128,-1,7
 389 813 389 813 367.5 791 c 128,-1,0
 346 769 346 769 315.5 769 c 128,-1,1
578.5 769 m 128,-1,9
 548 769 548 769 526 791 c 128,-1,10
 504 813 504 813 504 843.5 c 128,-1,11
 504 874 504 874 526 895.5 c 128,-1,12
 548 917 548 917 578.5 917 c 128,-1,13
 609 917 609 917 630.5 895.5 c 128,-1,14
 652 874 652 874 652 843.5 c 128,-1,15
 652 813 652 813 630.5 791 c 128,-1,8
 609 769 609 769 578.5 769 c 128,-1,9
450 714 m 0,16,17
 579 714 579 714 672.5 671 c 128,-1,18
 766 628 766 628 816 545.5 c 128,-1,19
 866 463 866 463 866 350 c 0,20,21
 866 179 866 179 755 82.5 c 128,-1,22
 644 -14 644 -14 450 -14 c 128,-1,23
 256 -14 256 -14 145.5 82.5 c 128,-1,24
 35 179 35 179 35 350 c 128,-1,25
 35 521 35 521 145.5 617.5 c 128,-1,26
 256 714 256 714 450 714 c 0,16,17
450.5 36 m 128,-1,28
 542 36 542 36 593.5 119 c 128,-1,29
 645 202 645 202 645 350 c 128,-1,30
 645 498 645 498 593.5 581 c 128,-1,31
 542 664 542 664 450.5 664 c 128,-1,32
 359 664 359 664 307.5 581 c 128,-1,33
 256 498 256 498 256 350 c 128,-1,34
 256 202 256 202 307.5 119 c 128,-1,27
 359 36 359 36 450.5 36 c 128,-1,28
EndSplineSet
EndChar

StartChar: multiply
Encoding: 215 215 151
Width: 410
GlyphClass: 2
Flags: W
LayerCount: 2
Fore
SplineSet
370 429 m 1,0,-1
 251 310 l 1,1,-1
 370 191 l 1,2,-1
 324 145 l 1,3,-1
 205 264 l 1,4,-1
 86 145 l 1,5,-1
 40 191 l 1,6,-1
 159 310 l 1,7,-1
 40 429 l 1,8,-1
 86 475 l 1,9,-1
 205 356 l 1,10,-1
 324 475 l 1,11,-1
 370 429 l 1,0,-1
EndSplineSet
EndChar

StartChar: Oslash
Encoding: 216 216 152
Width: 905
GlyphClass: 2
Flags: W
LayerCount: 2
Fore
SplineSet
866 350 m 0,0,1
 866 179 866 179 755 82.5 c 128,-1,2
 644 -14 644 -14 450 -14 c 0,3,4
 307 -14 307 -14 207 40 c 1,5,-1
 153 -23 l 1,6,-1
 109 13 l 1,7,-1
 159 71 l 1,8,9
 35 168 35 168 35 344.5 c 128,-1,10
 35 521 35 521 145.5 617.5 c 128,-1,11
 256 714 256 714 450 714 c 0,12,13
 580 714 580 714 674 670 c 1,14,-1
 722 726 l 1,15,-1
 766 692 l 1,16,-1
 723 642 l 1,17,18
 866 546 866 546 866 350 c 0,0,1
598 582 m 1,19,20
 546 664 546 664 450 664 c 128,-1,21
 354 664 354 664 302.5 581.5 c 128,-1,22
 251 499 251 499 251 350 c 0,23,24
 251 264 251 264 269 199 c 1,25,-1
 598 582 l 1,19,20
291 138 m 1,26,27
 343 36 343 36 444.5 36 c 128,-1,28
 546 36 546 36 598 118.5 c 128,-1,29
 650 201 650 201 650 350 c 0,30,31
 650 454 650 454 624 527 c 1,32,-1
 291 138 l 1,26,27
EndSplineSet
EndChar

StartChar: Ugrave
Encoding: 217 217 153
Width: 845
GlyphClass: 2
Flags: W
LayerCount: 2
Fore
SplineSet
510 771 m 1,0,-1
 503 764 l 1,1,2
 450 770 450 770 385 797 c 128,-1,3
 320 824 320 824 270 857 c 1,4,5
 291 930 291 930 355 957 c 1,6,7
 398 920 398 920 444.5 867.5 c 128,-1,8
 491 815 491 815 510 771 c 1,0,-1
600 700 m 1,9,-1
 825 700 l 1,10,-1
 825 690 l 1,11,-1
 809 690 l 2,12,13
 788 690 788 690 772.5 676.5 c 128,-1,14
 757 663 757 663 756 643 c 1,15,-1
 756 257 l 2,16,17
 756 130 756 130 677.5 58 c 128,-1,18
 599 -14 599 -14 456 -14 c 0,19,20
 277 -14 277 -14 188 56 c 128,-1,21
 99 126 99 126 99 256 c 2,22,-1
 99 640 l 2,23,24
 99 670 99 670 73 684 c 0,25,26
 61 690 61 690 46 690 c 2,27,-1
 30 690 l 1,28,-1
 30 700 l 1,29,-1
 373 700 l 1,30,-1
 373 690 l 1,31,-1
 357 690 l 2,32,33
 335 690 335 690 320 676.5 c 128,-1,34
 305 663 305 663 304 642 c 1,35,-1
 304 260 l 2,36,37
 304 155 304 155 352 96 c 128,-1,38
 400 37 400 37 486 37 c 128,-1,39
 572 37 572 37 620.5 92.5 c 128,-1,40
 669 148 669 148 669 247 c 2,41,-1
 669 642 l 1,42,43
 668 663 668 663 653 676.5 c 128,-1,44
 638 690 638 690 616 690 c 2,45,-1
 600 690 l 1,46,-1
 600 700 l 1,9,-1
EndSplineSet
EndChar

StartChar: Uacute
Encoding: 218 218 154
Width: 845
GlyphClass: 2
Flags: W
LayerCount: 2
Fore
SplineSet
466 761 m 1,0,-1
 459 768 l 1,1,2
 478 812 478 812 524.5 864.5 c 128,-1,3
 571 917 571 917 614 954 c 1,4,5
 678 927 678 927 699 854 c 1,6,7
 649 821 649 821 584 794 c 128,-1,8
 519 767 519 767 466 761 c 1,0,-1
600 700 m 1,9,-1
 825 700 l 1,10,-1
 825 690 l 1,11,-1
 809 690 l 2,12,13
 788 690 788 690 772.5 676.5 c 128,-1,14
 757 663 757 663 756 643 c 1,15,-1
 756 257 l 2,16,17
 756 130 756 130 677.5 58 c 128,-1,18
 599 -14 599 -14 456 -14 c 0,19,20
 277 -14 277 -14 188 56 c 128,-1,21
 99 126 99 126 99 256 c 2,22,-1
 99 640 l 2,23,24
 99 670 99 670 73 684 c 0,25,26
 61 690 61 690 46 690 c 2,27,-1
 30 690 l 1,28,-1
 30 700 l 1,29,-1
 373 700 l 1,30,-1
 373 690 l 1,31,-1
 357 690 l 2,32,33
 335 690 335 690 320 676.5 c 128,-1,34
 305 663 305 663 304 642 c 1,35,-1
 304 260 l 2,36,37
 304 155 304 155 352 96 c 128,-1,38
 400 37 400 37 486 37 c 128,-1,39
 572 37 572 37 620.5 92.5 c 128,-1,40
 669 148 669 148 669 247 c 2,41,-1
 669 642 l 1,42,43
 668 675 668 675 637 686 c 0,44,45
 627 690 627 690 616 690 c 2,46,-1
 600 690 l 1,47,-1
 600 700 l 1,9,-1
EndSplineSet
EndChar

StartChar: Ucircumflex
Encoding: 219 219 155
Width: 845
GlyphClass: 2
Flags: W
LayerCount: 2
Fore
SplineSet
476 932 m 1,0,-1
 488 932 l 1,1,-1
 666 756 l 1,2,-1
 659 748 l 1,3,-1
 481 813 l 1,4,-1
 314 748 l 1,5,-1
 307 756 l 1,6,-1
 476 932 l 1,0,-1
600 700 m 1,7,-1
 825 700 l 1,8,-1
 825 690 l 1,9,-1
 809 690 l 2,10,11
 788 690 788 690 772.5 676.5 c 128,-1,12
 757 663 757 663 756 643 c 1,13,-1
 756 257 l 2,14,15
 756 130 756 130 677.5 58 c 128,-1,16
 599 -14 599 -14 456 -14 c 0,17,18
 277 -14 277 -14 188 56 c 128,-1,19
 99 126 99 126 99 256 c 2,20,-1
 99 640 l 2,21,22
 99 670 99 670 73 684 c 0,23,24
 61 690 61 690 46 690 c 2,25,-1
 30 690 l 1,26,-1
 30 700 l 1,27,-1
 373 700 l 1,28,-1
 373 690 l 1,29,-1
 357 690 l 2,30,31
 335 690 335 690 320 676.5 c 128,-1,32
 305 663 305 663 304 642 c 1,33,-1
 304 260 l 2,34,35
 304 155 304 155 352 96 c 128,-1,36
 400 37 400 37 486 37 c 128,-1,37
 572 37 572 37 620.5 92.5 c 128,-1,38
 669 148 669 148 669 247 c 2,39,-1
 669 642 l 1,40,41
 668 663 668 663 653 676.5 c 128,-1,42
 638 690 638 690 616 690 c 2,43,-1
 600 690 l 1,44,-1
 600 700 l 1,7,-1
EndSplineSet
EndChar

StartChar: Udieresis
Encoding: 220 220 156
Width: 845
GlyphClass: 2
Flags: W
LayerCount: 2
Fore
SplineSet
348.5 755 m 128,-1,1
 318 755 318 755 296 777 c 128,-1,2
 274 799 274 799 274 829.5 c 128,-1,3
 274 860 274 860 296 881.5 c 128,-1,4
 318 903 318 903 348.5 903 c 128,-1,5
 379 903 379 903 400.5 881.5 c 128,-1,6
 422 860 422 860 422 829.5 c 128,-1,7
 422 799 422 799 400.5 777 c 128,-1,0
 379 755 379 755 348.5 755 c 128,-1,1
610.5 755 m 128,-1,9
 580 755 580 755 558.5 777 c 128,-1,10
 537 799 537 799 537 829.5 c 128,-1,11
 537 860 537 860 558.5 881.5 c 128,-1,12
 580 903 580 903 610.5 903 c 128,-1,13
 641 903 641 903 662.5 881.5 c 128,-1,14
 684 860 684 860 684 829.5 c 128,-1,15
 684 799 684 799 662.5 777 c 128,-1,8
 641 755 641 755 610.5 755 c 128,-1,9
600 700 m 1,16,-1
 825 700 l 1,17,-1
 825 690 l 1,18,-1
 809 690 l 2,19,20
 788 690 788 690 772.5 676.5 c 128,-1,21
 757 663 757 663 756 643 c 1,22,-1
 756 257 l 2,23,24
 756 130 756 130 677.5 58 c 128,-1,25
 599 -14 599 -14 456 -14 c 0,26,27
 277 -14 277 -14 188 56 c 128,-1,28
 99 126 99 126 99 256 c 2,29,-1
 99 640 l 2,30,31
 99 670 99 670 73 684 c 0,32,33
 61 690 61 690 46 690 c 2,34,-1
 30 690 l 1,35,-1
 30 700 l 1,36,-1
 373 700 l 1,37,-1
 373 690 l 1,38,-1
 357 690 l 2,39,40
 335 690 335 690 320 676.5 c 128,-1,41
 305 663 305 663 304 642 c 1,42,-1
 304 260 l 2,43,44
 304 155 304 155 352 96 c 128,-1,45
 400 37 400 37 486 37 c 128,-1,46
 572 37 572 37 620.5 92.5 c 128,-1,47
 669 148 669 148 669 247 c 2,48,-1
 669 642 l 1,49,50
 668 663 668 663 653 676.5 c 128,-1,51
 638 690 638 690 616 690 c 2,52,-1
 600 690 l 1,53,-1
 600 700 l 1,16,-1
EndSplineSet
EndChar

StartChar: Yacute
Encoding: 221 221 157
Width: 729
GlyphClass: 2
Flags: W
LayerCount: 2
Fore
SplineSet
418 761 m 1,0,-1
 411 768 l 1,1,2
 430 812 430 812 476.5 864.5 c 128,-1,3
 523 917 523 917 566 954 c 1,4,5
 630 927 630 927 651 854 c 1,6,7
 601 821 601 821 536 794 c 128,-1,8
 471 767 471 767 418 761 c 1,0,-1
775 690 m 1,9,-1
 761 690 l 2,10,11
 731 690 731 690 703.5 673 c 128,-1,12
 676 656 676 656 660 631 c 2,13,-1
 464 322 l 1,14,-1
 464 73 l 2,15,16
 464 47 464 47 482.5 28.5 c 128,-1,17
 501 10 501 10 528 10 c 2,18,-1
 540 10 l 1,19,-1
 540 0 l 1,20,-1
 182 0 l 1,21,-1
 182 10 l 1,22,-1
 195 10 l 2,23,24
 221 10 221 10 239.5 28 c 128,-1,25
 258 46 258 46 259 72 c 1,26,-1
 259 322 l 1,27,-1
 68 633 l 2,28,29
 53 657 53 657 25.5 673.5 c 128,-1,30
 -2 690 -2 690 -31 690 c 2,31,-1
 -45 690 l 1,32,-1
 -45 700 l 1,33,-1
 341 700 l 1,34,-1
 341 690 l 1,35,-1
 329 690 l 2,36,37
 307 690 307 690 295 670 c 0,38,39
 289 659 289 659 289 648.5 c 128,-1,40
 289 638 289 638 294 628 c 2,41,-1
 431 381 l 1,42,-1
 573 628 l 2,43,44
 579 638 579 638 579 648.5 c 128,-1,45
 579 659 579 659 572 669 c 0,46,47
 559 690 559 690 538 690 c 2,48,-1
 526 690 l 1,49,-1
 526 700 l 1,50,-1
 775 700 l 1,51,-1
 775 690 l 1,9,-1
EndSplineSet
EndChar

StartChar: Thorn
Encoding: 222 222 158
Width: 707
GlyphClass: 2
Flags: W
LayerCount: 2
Fore
SplineSet
693 353 m 0,0,1
 693 307 693 307 674.5 264 c 128,-1,2
 656 221 656 221 621 192 c 0,3,4
 558 141 558 141 487 141 c 0,5,6
 415 141 415 141 351 187 c 1,7,-1
 351 197 l 1,8,9
 387 203 387 203 405.5 216.5 c 128,-1,10
 424 230 424 230 435 241 c 0,11,12
 460 268 460 268 468.5 304 c 128,-1,13
 477 340 477 340 477 355 c 0,14,15
 477 434 477 434 443 471 c 128,-1,16
 409 508 409 508 352 508 c 2,17,-1
 325 508 l 1,18,-1
 325 73 l 2,19,20
 325 36 325 36 357 18 c 0,21,22
 371 10 371 10 389 10 c 2,23,-1
 401 10 l 1,24,-1
 401 0 l 1,25,-1
 43 0 l 1,26,-1
 43 10 l 1,27,-1
 55 10 l 2,28,29
 82 10 82 10 100.5 28.5 c 128,-1,30
 119 47 119 47 120 73 c 1,31,-1
 120 628 l 1,32,33
 119 654 119 654 100.5 672 c 128,-1,34
 82 690 82 690 56 690 c 2,35,-1
 43 690 l 1,36,-1
 43 700 l 1,37,-1
 401 700 l 1,38,-1
 401 690 l 1,39,-1
 389 690 l 2,40,41
 363 690 363 690 344 672 c 128,-1,42
 325 654 325 654 325 628 c 2,43,-1
 325 558 l 1,44,-1
 416 558 l 2,45,46
 582 558 582 558 650 479 c 0,47,48
 693 429 693 429 693 353 c 0,0,1
EndSplineSet
EndChar

StartChar: germandbls
Encoding: 223 223 159
Width: 1098
GlyphClass: 2
Flags: W
LayerCount: 2
Fore
SplineSet
514 202 m 0,0,1
 514 92 514 92 435 37 c 0,2,3
 365 -12 365 -12 241 -12 c 0,4,5
 167 -12 167 -12 117.5 4.5 c 128,-1,6
 68 21 68 21 49 45 c 1,7,8
 40 66 40 66 40 89 c 128,-1,9
 40 112 40 112 44 133 c 0,10,11
 55 186 55 186 79 216 c 1,12,-1
 85 216 l 1,13,14
 85 211 85 211 85 207 c 0,15,16
 85 140 85 140 133 87 c 0,17,18
 182 34 182 34 268 34 c 0,19,20
 319 34 319 34 345 57 c 128,-1,21
 371 80 371 80 371 110 c 128,-1,22
 371 140 371 140 347.5 163 c 128,-1,23
 324 186 324 186 271 209 c 1,24,-1
 166 258 l 1,25,26
 102 285 102 285 72 337 c 0,27,28
 49 377 49 377 49 425 c 0,29,30
 49 441 49 441 51 457 c 0,31,32
 73 612 73 612 241 612 c 0,33,34
 297 612 297 612 392 603 c 1,35,-1
 459 603 l 1,36,-1
 435 457 l 1,37,-1
 429 457 l 1,38,39
 429 506 429 506 393.5 535.5 c 128,-1,40
 358 565 358 565 305 565 c 0,41,42
 203 565 203 565 196 499 c 0,43,44
 193 467 193 467 220 448 c 0,45,46
 241 434 241 434 278 419 c 1,47,-1
 407 360 l 1,48,49
 460 337 460 337 487 296 c 128,-1,50
 514 255 514 255 514 202 c 0,0,1
1063 202 m 0,51,52
 1063 92 1063 92 984 37 c 0,53,54
 914 -12 914 -12 790 -12 c 0,55,56
 716 -12 716 -12 666.5 4.5 c 128,-1,57
 617 21 617 21 598 45 c 1,58,59
 589 66 589 66 589 89 c 128,-1,60
 589 112 589 112 593 133 c 0,61,62
 604 186 604 186 628 216 c 1,63,-1
 634 216 l 1,64,65
 634 211 634 211 634 207 c 0,66,67
 634 140 634 140 682 87 c 0,68,69
 731 34 731 34 817 34 c 0,70,71
 868 34 868 34 894 57 c 128,-1,72
 920 80 920 80 920 110 c 128,-1,73
 920 140 920 140 896.5 163 c 128,-1,74
 873 186 873 186 820 209 c 1,75,-1
 715 258 l 1,76,77
 651 285 651 285 621 337 c 0,78,79
 598 377 598 377 598 425 c 0,80,81
 598 441 598 441 600 457 c 0,82,83
 622 612 622 612 790 612 c 0,84,85
 846 612 846 612 941 603 c 1,86,-1
 1008 603 l 1,87,-1
 984 457 l 1,88,-1
 978 457 l 1,89,90
 978 506 978 506 942.5 535.5 c 128,-1,91
 907 565 907 565 848 565 c 0,92,93
 786 565 786 565 760 534 c 0,94,95
 747 519 747 519 745 501 c 128,-1,96
 743 483 743 483 748.5 470.5 c 128,-1,97
 754 458 754 458 769 448 c 0,98,99
 790 434 790 434 827 419 c 1,100,-1
 956 360 l 1,101,102
 1009 337 1009 337 1036 296 c 128,-1,103
 1063 255 1063 255 1063 202 c 0,51,52
EndSplineSet
EndChar

StartChar: agrave
Encoding: 224 224 160
Width: 632
GlyphClass: 2
Flags: W
LayerCount: 2
Fore
SplineSet
331 671 m 1,0,-1
 324 664 l 1,1,2
 272 670 272 670 206.5 697 c 128,-1,3
 141 724 141 724 92 757 c 1,4,5
 113 830 113 830 177 857 c 1,6,7
 220 820 220 820 266.5 767.5 c 128,-1,8
 313 715 313 715 331 671 c 1,0,-1
668 10 m 2,9,-1
 676 10 l 1,10,-1
 676 0 l 1,11,-1
 325 0 l 1,12,-1
 325 10 l 1,13,-1
 332 10 l 2,14,15
 352 10 352 10 361.5 20.5 c 128,-1,16
 371 31 371 31 371 40.5 c 128,-1,17
 371 50 371 50 366 61 c 2,18,-1
 337 127 l 1,19,-1
 152 127 l 1,20,-1
 122 58 l 2,21,22
 118 49 118 49 118 40 c 128,-1,23
 118 31 118 31 127.5 20.5 c 128,-1,24
 137 10 137 10 157 10 c 2,25,-1
 164 10 l 1,26,-1
 164 0 l 1,27,-1
 -42 0 l 1,28,-1
 -42 10 l 1,29,-1
 -34 10 l 2,30,31
 -13 10 -13 10 8.5 22 c 128,-1,32
 30 34 30 34 42 59 c 2,33,-1
 248 503 l 2,34,35
 297 610 297 610 300 636 c 1,36,-1
 308 636 l 1,37,-1
 590 61 l 2,38,39
 616 10 616 10 668 10 c 2,9,-1
171 172 m 1,40,-1
 317 172 l 1,41,-1
 244 340 l 1,42,-1
 171 172 l 1,40,-1
EndSplineSet
EndChar

StartChar: aacute
Encoding: 225 225 161
Width: 632
GlyphClass: 2
Flags: W
LayerCount: 2
Fore
SplineSet
288 661 m 1,0,-1
 281 668 l 1,1,2
 299 712 299 712 345.5 764.5 c 128,-1,3
 392 817 392 817 435 854 c 1,4,5
 499 827 499 827 520 754 c 1,6,7
 470 721 470 721 405 694 c 128,-1,8
 340 667 340 667 288 661 c 1,0,-1
668 10 m 2,9,-1
 676 10 l 1,10,-1
 676 0 l 1,11,-1
 324 0 l 1,12,-1
 324 10 l 1,13,-1
 332 10 l 2,14,15
 352 10 352 10 361.5 20.5 c 128,-1,16
 371 31 371 31 371 40.5 c 128,-1,17
 371 50 371 50 366 61 c 2,18,-1
 337 127 l 1,19,-1
 152 127 l 1,20,-1
 122 58 l 2,21,22
 118 49 118 49 118 40 c 128,-1,23
 118 31 118 31 127.5 20.5 c 128,-1,24
 137 10 137 10 157 10 c 2,25,-1
 164 10 l 1,26,-1
 164 0 l 1,27,-1
 -42 0 l 1,28,-1
 -42 10 l 1,29,-1
 -34 10 l 2,30,31
 -13 10 -13 10 8.5 22 c 128,-1,32
 30 34 30 34 42 59 c 2,33,-1
 248 503 l 2,34,35
 297 610 297 610 300 636 c 1,36,-1
 308 636 l 1,37,-1
 590 61 l 2,38,39
 616 10 616 10 668 10 c 2,9,-1
171 172 m 1,40,-1
 317 172 l 1,41,-1
 244 340 l 1,42,-1
 171 172 l 1,40,-1
EndSplineSet
EndChar

StartChar: acircumflex
Encoding: 226 226 162
Width: 632
GlyphClass: 2
Flags: W
LayerCount: 2
Fore
SplineSet
297 832 m 1,0,-1
 309 832 l 1,1,-1
 488 656 l 1,2,-1
 480 648 l 1,3,-1
 303 713 l 1,4,-1
 136 648 l 1,5,-1
 128 656 l 1,6,-1
 297 832 l 1,0,-1
668 10 m 2,7,-1
 676 10 l 1,8,-1
 676 0 l 1,9,-1
 324 0 l 1,10,-1
 324 10 l 1,11,-1
 332 10 l 2,12,13
 352 10 352 10 361.5 20.5 c 128,-1,14
 371 31 371 31 371 40.5 c 128,-1,15
 371 50 371 50 366 61 c 2,16,-1
 337 127 l 1,17,-1
 152 127 l 1,18,-1
 122 58 l 2,19,20
 118 49 118 49 118 40 c 128,-1,21
 118 31 118 31 127.5 20.5 c 128,-1,22
 137 10 137 10 157 10 c 2,23,-1
 164 10 l 1,24,-1
 164 0 l 1,25,-1
 -42 0 l 1,26,-1
 -42 10 l 1,27,-1
 -34 10 l 2,28,29
 -13 10 -13 10 8.5 22 c 128,-1,30
 30 34 30 34 42 59 c 2,31,-1
 248 503 l 2,32,33
 297 610 297 610 300 636 c 1,34,-1
 308 636 l 1,35,-1
 590 61 l 2,36,37
 616 10 616 10 668 10 c 2,7,-1
171 172 m 1,38,-1
 317 172 l 1,39,-1
 244 340 l 1,40,-1
 171 172 l 1,38,-1
EndSplineSet
EndChar

StartChar: atilde
Encoding: 227 227 163
Width: 632
GlyphClass: 2
Flags: W
LayerCount: 2
Fore
SplineSet
500 819 m 1,0,-1
 512 819 l 1,1,2
 518 802 518 802 518 782.5 c 128,-1,3
 518 763 518 763 509 744 c 0,4,5
 488 694 488 694 448 676 c 1,6,7
 424 664 424 664 390 664 c 128,-1,8
 356 664 356 664 316 687 c 0,9,10
 300 696 300 696 277.5 705.5 c 128,-1,11
 255 715 255 715 241.5 717 c 128,-1,12
 228 719 228 719 218 719 c 128,-1,13
 208 719 208 719 193 713 c 0,14,15
 154 697 154 697 142 667 c 1,16,-1
 130 667 l 1,17,18
 127 682 127 682 127 703 c 128,-1,19
 127 724 127 724 136 747 c 0,20,21
 158 798 158 798 196 817 c 0,22,23
 219 829 219 829 248 829 c 128,-1,24
 277 829 277 829 331 802 c 128,-1,25
 385 775 385 775 430 775 c 0,26,27
 444 775 444 775 468.5 789.5 c 128,-1,28
 493 804 493 804 500 819 c 1,0,-1
668 10 m 2,29,-1
 676 10 l 1,30,-1
 676 0 l 1,31,-1
 324 0 l 1,32,-1
 324 10 l 1,33,-1
 332 10 l 2,34,35
 352 10 352 10 361.5 20.5 c 128,-1,36
 371 31 371 31 371 40.5 c 128,-1,37
 371 50 371 50 366 61 c 2,38,-1
 337 127 l 1,39,-1
 151 127 l 1,40,-1
 122 58 l 2,41,42
 118 49 118 49 118 40 c 128,-1,43
 118 31 118 31 127.5 20.5 c 128,-1,44
 137 10 137 10 157 10 c 2,45,-1
 164 10 l 1,46,-1
 164 0 l 1,47,-1
 -42 0 l 1,48,-1
 -42 10 l 1,49,-1
 -34 10 l 2,50,51
 -13 10 -13 10 8.5 22 c 128,-1,52
 30 34 30 34 42 59 c 2,53,-1
 248 503 l 1,54,55
 296 610 296 610 300 636 c 1,56,-1
 308 636 l 1,57,-1
 590 61 l 2,58,59
 616 10 616 10 668 10 c 2,29,-1
171 172 m 1,60,-1
 317 172 l 1,61,-1
 244 340 l 1,62,-1
 171 172 l 1,60,-1
EndSplineSet
EndChar

StartChar: adieresis
Encoding: 228 228 164
Width: 632
GlyphClass: 2
Flags: W
LayerCount: 2
Fore
SplineSet
169.5 655 m 128,-1,1
 139 655 139 655 117.5 677 c 128,-1,2
 96 699 96 699 96 729.5 c 128,-1,3
 96 760 96 760 117.5 781.5 c 128,-1,4
 139 803 139 803 169.5 803 c 128,-1,5
 200 803 200 803 221.5 781.5 c 128,-1,6
 243 760 243 760 243 729.5 c 128,-1,7
 243 699 243 699 221.5 677 c 128,-1,0
 200 655 200 655 169.5 655 c 128,-1,1
432.5 655 m 128,-1,9
 402 655 402 655 380.5 677 c 128,-1,10
 359 699 359 699 359 729.5 c 128,-1,11
 359 760 359 760 380.5 781.5 c 128,-1,12
 402 803 402 803 432.5 803 c 128,-1,13
 463 803 463 803 484.5 781.5 c 128,-1,14
 506 760 506 760 506 729.5 c 128,-1,15
 506 699 506 699 484.5 677 c 128,-1,8
 463 655 463 655 432.5 655 c 128,-1,9
668 10 m 2,16,-1
 676 10 l 1,17,-1
 676 0 l 1,18,-1
 324 0 l 1,19,-1
 324 10 l 1,20,-1
 332 10 l 2,21,22
 352 10 352 10 361.5 20.5 c 128,-1,23
 371 31 371 31 371 40.5 c 128,-1,24
 371 50 371 50 366 61 c 2,25,-1
 337 127 l 1,26,-1
 152 127 l 1,27,-1
 122 58 l 2,28,29
 118 49 118 49 118 40 c 128,-1,30
 118 31 118 31 127.5 20.5 c 128,-1,31
 137 10 137 10 157 10 c 2,32,-1
 164 10 l 1,33,-1
 164 0 l 1,34,-1
 -42 0 l 1,35,-1
 -42 10 l 1,36,-1
 -34 10 l 2,37,38
 -13 10 -13 10 8.5 22 c 128,-1,39
 30 34 30 34 42 59 c 2,40,-1
 248 503 l 2,41,42
 297 610 297 610 300 636 c 1,43,-1
 308 636 l 1,44,-1
 590 61 l 2,45,46
 616 10 616 10 668 10 c 2,16,-1
171 172 m 1,47,-1
 317 172 l 1,48,-1
 244 340 l 1,49,-1
 171 172 l 1,47,-1
EndSplineSet
EndChar

StartChar: aring
Encoding: 229 229 165
Width: 632
GlyphClass: 2
Flags: W
LayerCount: 2
Fore
SplineSet
219 816.5 m 128,-1,1
 253 842 253 842 303.5 842 c 128,-1,2
 354 842 354 842 387.5 817 c 128,-1,3
 421 792 421 792 421 753.5 c 128,-1,4
 421 715 421 715 387.5 689 c 128,-1,5
 354 663 354 663 303.5 663 c 128,-1,6
 253 663 253 663 219 688.5 c 128,-1,7
 185 714 185 714 185 752.5 c 128,-1,0
 185 791 185 791 219 816.5 c 128,-1,1
340 795 m 128,-1,9
 325 812 325 812 307 812 c 128,-1,10
 289 812 289 812 277 804 c 0,11,12
 253 788 253 788 253 757.5 c 128,-1,13
 253 727 253 727 267.5 710.5 c 128,-1,14
 282 694 282 694 303.5 694 c 128,-1,15
 325 694 325 694 340 710.5 c 128,-1,16
 355 727 355 727 355 752.5 c 128,-1,8
 355 778 355 778 340 795 c 128,-1,9
668 10 m 2,17,-1
 676 10 l 1,18,-1
 676 0 l 1,19,-1
 324 0 l 1,20,-1
 324 10 l 1,21,-1
 332 10 l 2,22,23
 352 10 352 10 361.5 20.5 c 128,-1,24
 371 31 371 31 371 40.5 c 128,-1,25
 371 50 371 50 366 61 c 2,26,-1
 337 127 l 1,27,-1
 151 127 l 1,28,-1
 122 58 l 2,29,30
 118 49 118 49 118 40 c 128,-1,31
 118 31 118 31 127.5 20.5 c 128,-1,32
 137 10 137 10 157 10 c 2,33,-1
 164 10 l 1,34,-1
 164 0 l 1,35,-1
 -42 0 l 1,36,-1
 -42 10 l 1,37,-1
 -34 10 l 2,38,39
 -13 10 -13 10 8.5 22 c 128,-1,40
 30 34 30 34 42 59 c 2,41,-1
 248 503 l 1,42,43
 296 610 296 610 300 636 c 1,44,-1
 308 636 l 1,45,-1
 590 61 l 2,46,47
 616 10 616 10 668 10 c 2,17,-1
171 172 m 1,48,-1
 317 172 l 1,49,-1
 244 340 l 1,50,-1
 171 172 l 1,48,-1
EndSplineSet
EndChar

StartChar: ae
Encoding: 230 230 166
Width: 885
GlyphClass: 2
Flags: W
LayerCount: 2
Fore
SplineSet
358 10 m 2,0,1
 382 10 382 10 394 30 c 0,2,3
 400 39 400 39 400 50 c 2,4,-1
 400 271 l 1,5,-1
 266 271 l 1,6,-1
 135 61 l 2,7,8
 129 50 129 50 129 40.5 c 128,-1,9
 129 31 129 31 139.5 20.5 c 128,-1,10
 150 10 150 10 170 10 c 2,11,-1
 178 10 l 1,12,-1
 178 0 l 1,13,-1
 -31 0 l 1,14,-1
 -31 10 l 1,15,-1
 -23 10 l 2,16,17
 14 10 14 10 52 63 c 2,18,-1
 389 547 l 2,19,20
 396 558 396 558 396 566 c 0,21,22
 396 590 396 590 370 590 c 2,23,-1
 366 590 l 1,24,-1
 366 599 l 1,25,-1
 721 599 l 2,26,27
 758 599 758 599 787 605 c 128,-1,28
 816 611 816 611 824 615 c 1,29,-1
 824 427 l 1,30,-1
 815 428 l 1,31,-1
 815 433 l 2,32,33
 815 488 815 488 784.5 519.5 c 128,-1,34
 754 551 754 551 699 553 c 1,35,-1
 592 553 l 1,36,-1
 592 316 l 1,37,-1
 673 316 l 1,38,39
 715 318 715 318 742 345.5 c 128,-1,40
 769 373 769 373 769 416 c 2,41,-1
 769 419 l 1,42,-1
 777 419 l 1,43,-1
 777 167 l 1,44,-1
 769 167 l 1,45,-1
 769 170 l 2,46,47
 769 213 769 213 742.5 240.5 c 128,-1,48
 716 268 716 268 674 271 c 1,49,-1
 592 271 l 1,50,-1
 592 46 l 1,51,-1
 684 46 l 2,52,53
 748 46 748 46 798 89 c 128,-1,54
 848 132 848 132 868 209 c 1,55,-1
 877 209 l 1,56,-1
 845 0 l 1,57,-1
 349 0 l 1,58,-1
 350 10 l 1,59,-1
 358 10 l 2,0,1
400 316 m 1,60,-1
 400 484 l 1,61,-1
 295 316 l 1,62,-1
 400 316 l 1,60,-1
EndSplineSet
EndChar

StartChar: ccedilla
Encoding: 231 231 167
Width: 668
GlyphClass: 2
Flags: W
LayerCount: 2
Fore
SplineSet
365 -57 m 1,0,1
 379 -52 379 -52 389 -52 c 128,-1,2
 399 -52 399 -52 409.5 -52 c 128,-1,3
 420 -52 420 -52 440 -57.5 c 128,-1,4
 460 -63 460 -63 472 -78 c 128,-1,5
 484 -93 484 -93 484 -105 c 0,6,7
 484 -151 484 -151 452 -178 c 0,8,9
 410 -214 410 -214 352 -214 c 0,10,11
 324 -214 324 -214 295 -205 c 1,12,-1
 296 -195 l 1,13,14
 332 -195 332 -195 366 -174.5 c 128,-1,15
 400 -154 400 -154 400 -114 c 0,16,17
 400 -98 400 -98 384 -86 c 0,18,19
 353 -65 353 -65 302 -81 c 1,20,-1
 297 -71 l 1,21,-1
 345 -9 l 1,22,23
 193 4 193 4 108 84 c 128,-1,24
 23 164 23 164 23 306 c 128,-1,25
 23 448 23 448 123 530 c 128,-1,26
 223 612 223 612 404 612 c 0,27,28
 531 612 531 612 622 576 c 1,29,-1
 609 406 l 1,30,-1
 602 406 l 1,31,32
 576 494 576 494 531.5 530.5 c 128,-1,33
 487 567 487 567 421 567 c 0,34,35
 322 567 322 567 274.5 496.5 c 128,-1,36
 227 426 227 426 227 303.5 c 128,-1,37
 227 181 227 181 273.5 108.5 c 128,-1,38
 320 36 320 36 404 33 c 1,39,40
 474 33 474 33 510 54 c 0,41,42
 549 76 549 76 569 122 c 0,43,44
 588 166 588 166 606 250 c 1,45,-1
 613 250 l 1,46,-1
 639 90 l 1,47,48
 579 -12 579 -12 404 -12 c 1,49,-1
 365 -57 l 1,0,1
EndSplineSet
EndChar

StartChar: egrave
Encoding: 232 232 168
Width: 575
GlyphClass: 2
Flags: W
LayerCount: 2
Fore
SplineSet
315 671 m 1,0,-1
 308 664 l 1,1,2
 255 671 255 671 190 697.5 c 128,-1,3
 125 724 125 724 75 757 c 1,4,5
 96 830 96 830 160 857 c 1,6,7
 203 820 203 820 249.5 767.5 c 128,-1,8
 296 715 296 715 315 671 c 1,0,-1
21 0 m 1,9,-1
 21 10 l 1,10,-1
 32 10 l 2,11,12
 53 10 53 10 64 21 c 0,13,14
 84 40 84 40 84 62 c 2,15,-1
 84 537 l 2,16,17
 84 560 84 560 68.5 575 c 128,-1,18
 53 590 53 590 32 590 c 2,19,-1
 21 590 l 1,20,-1
 21 600 l 1,21,-1
 411 600 l 2,22,23
 436 600 436 600 467 605 c 128,-1,24
 498 610 498 610 510 615 c 1,25,-1
 510 426 l 1,26,-1
 500 426 l 1,27,-1
 500 431 l 2,28,29
 500 489 500 489 469.5 521 c 128,-1,30
 439 553 439 553 383 554 c 1,31,-1
 280 554 l 1,32,-1
 280 319 l 1,33,-1
 357 319 l 1,34,35
 401 320 401 320 428.5 348.5 c 128,-1,36
 456 377 456 377 456 422 c 2,37,-1
 456 424 l 1,38,-1
 466 424 l 1,39,-1
 466 166 l 1,40,-1
 456 166 l 1,41,-1
 456 170 l 2,42,43
 456 214 456 214 428.5 243 c 128,-1,44
 401 272 401 272 357 272 c 2,45,-1
 280 272 l 1,46,-1
 280 46 l 1,47,-1
 376 46 l 2,48,49
 436 46 436 46 485 90 c 128,-1,50
 534 134 534 134 552 210 c 1,51,-1
 561 210 l 1,52,-1
 533 0 l 1,53,-1
 21 0 l 1,9,-1
EndSplineSet
EndChar

StartChar: eacute
Encoding: 233 233 169
Width: 575
GlyphClass: 2
Flags: W
LayerCount: 2
Fore
SplineSet
271 661 m 1,0,-1
 264 668 l 1,1,2
 283 713 283 713 329 765 c 128,-1,3
 375 817 375 817 418 854 c 1,4,5
 482 827 482 827 504 754 c 1,6,7
 434 708 434 708 370 687 c 128,-1,8
 306 666 306 666 271 661 c 1,0,-1
21 0 m 1,9,-1
 21 10 l 1,10,-1
 32 10 l 2,11,12
 53 10 53 10 64 21 c 0,13,14
 84 40 84 40 84 62 c 2,15,-1
 84 537 l 2,16,17
 84 560 84 560 68.5 575 c 128,-1,18
 53 590 53 590 32 590 c 2,19,-1
 21 590 l 1,20,-1
 21 600 l 1,21,-1
 411 600 l 2,22,23
 436 600 436 600 467 605 c 128,-1,24
 498 610 498 610 510 615 c 1,25,-1
 510 426 l 1,26,-1
 500 426 l 1,27,-1
 500 431 l 2,28,29
 500 489 500 489 469.5 521 c 128,-1,30
 439 553 439 553 383 554 c 1,31,-1
 280 554 l 1,32,-1
 280 319 l 1,33,-1
 357 319 l 1,34,35
 401 320 401 320 428.5 348.5 c 128,-1,36
 456 377 456 377 456 422 c 2,37,-1
 456 424 l 1,38,-1
 466 424 l 1,39,-1
 466 166 l 1,40,-1
 456 166 l 1,41,-1
 456 170 l 2,42,43
 456 214 456 214 428.5 243 c 128,-1,44
 401 272 401 272 357 272 c 2,45,-1
 280 272 l 1,46,-1
 280 46 l 1,47,-1
 376 46 l 2,48,49
 436 46 436 46 485 90 c 128,-1,50
 534 134 534 134 552 210 c 1,51,-1
 561 210 l 1,52,-1
 533 0 l 1,53,-1
 21 0 l 1,9,-1
EndSplineSet
EndChar

StartChar: ecircumflex
Encoding: 234 234 170
Width: 575
GlyphClass: 2
Flags: W
LayerCount: 2
Fore
SplineSet
280 832 m 1,0,-1
 292 832 l 1,1,-1
 471 657 l 1,2,-1
 464 649 l 1,3,-1
 286 713 l 1,4,-1
 119 649 l 1,5,-1
 112 657 l 1,6,-1
 280 832 l 1,0,-1
21 0 m 1,7,-1
 21 10 l 1,8,-1
 32 10 l 2,9,10
 53 10 53 10 64 21 c 0,11,12
 84 40 84 40 84 62 c 2,13,-1
 84 537 l 2,14,15
 84 560 84 560 68.5 575 c 128,-1,16
 53 590 53 590 32 590 c 2,17,-1
 21 590 l 1,18,-1
 21 600 l 1,19,-1
 411 600 l 2,20,21
 436 600 436 600 467 605 c 128,-1,22
 498 610 498 610 510 615 c 1,23,-1
 510 426 l 1,24,-1
 500 426 l 1,25,-1
 500 431 l 2,26,27
 500 489 500 489 469.5 521 c 128,-1,28
 439 553 439 553 383 554 c 1,29,-1
 280 554 l 1,30,-1
 280 319 l 1,31,-1
 357 319 l 1,32,33
 401 320 401 320 428.5 348.5 c 128,-1,34
 456 377 456 377 456 422 c 2,35,-1
 456 424 l 1,36,-1
 466 424 l 1,37,-1
 466 166 l 1,38,-1
 456 166 l 1,39,-1
 456 170 l 2,40,41
 456 214 456 214 428.5 243 c 128,-1,42
 401 272 401 272 357 272 c 2,43,-1
 280 272 l 1,44,-1
 280 46 l 1,45,-1
 376 46 l 2,46,47
 436 46 436 46 485 90 c 128,-1,48
 534 134 534 134 552 210 c 1,49,-1
 561 210 l 1,50,-1
 533 0 l 1,51,-1
 21 0 l 1,7,-1
EndSplineSet
EndChar

StartChar: edieresis
Encoding: 235 235 171
Width: 575
GlyphClass: 2
Flags: W
LayerCount: 2
Fore
SplineSet
152.5 656 m 128,-1,1
 122 656 122 656 100.5 677.5 c 128,-1,2
 79 699 79 699 79 729.5 c 128,-1,3
 79 760 79 760 100.5 781.5 c 128,-1,4
 122 803 122 803 152.5 803 c 128,-1,5
 183 803 183 803 205 781.5 c 128,-1,6
 227 760 227 760 227 729.5 c 128,-1,7
 227 699 227 699 205 677.5 c 128,-1,0
 183 656 183 656 152.5 656 c 128,-1,1
415.5 656 m 128,-1,9
 385 656 385 656 363.5 677.5 c 128,-1,10
 342 699 342 699 342 729.5 c 128,-1,11
 342 760 342 760 363.5 781.5 c 128,-1,12
 385 803 385 803 415.5 803 c 128,-1,13
 446 803 446 803 467.5 781.5 c 128,-1,14
 489 760 489 760 489 729.5 c 128,-1,15
 489 699 489 699 467.5 677.5 c 128,-1,8
 446 656 446 656 415.5 656 c 128,-1,9
21 0 m 1,16,-1
 21 10 l 1,17,-1
 32 10 l 2,18,19
 53 10 53 10 64 21 c 0,20,21
 84 40 84 40 84 62 c 2,22,-1
 84 537 l 2,23,24
 84 560 84 560 68.5 575 c 128,-1,25
 53 590 53 590 32 590 c 2,26,-1
 21 590 l 1,27,-1
 21 600 l 1,28,-1
 411 600 l 2,29,30
 436 600 436 600 467 605 c 128,-1,31
 498 610 498 610 510 615 c 1,32,-1
 510 426 l 1,33,-1
 500 426 l 1,34,-1
 500 431 l 2,35,36
 500 509 500 509 447 538 c 0,37,38
 421 553 421 553 383 554 c 1,39,-1
 280 554 l 1,40,-1
 280 319 l 1,41,-1
 357 319 l 1,42,43
 401 320 401 320 428.5 348.5 c 128,-1,44
 456 377 456 377 456 422 c 2,45,-1
 456 424 l 1,46,-1
 466 424 l 1,47,-1
 466 166 l 1,48,-1
 456 166 l 1,49,-1
 456 170 l 2,50,51
 456 214 456 214 428.5 243 c 128,-1,52
 401 272 401 272 357 272 c 2,53,-1
 280 272 l 1,54,-1
 280 46 l 1,55,-1
 376 46 l 2,56,57
 436 46 436 46 485 90 c 128,-1,58
 534 134 534 134 552 210 c 1,59,-1
 561 210 l 1,60,-1
 533 0 l 1,61,-1
 21 0 l 1,16,-1
EndSplineSet
EndChar

StartChar: igrave
Encoding: 236 236 172
Width: 362
GlyphClass: 2
Flags: W
LayerCount: 2
Fore
SplineSet
206 671 m 1,0,-1
 199 664 l 1,1,2
 146 671 146 671 81 697.5 c 128,-1,3
 16 724 16 724 -34 757 c 1,4,5
 -14 830 -14 830 51 857 c 1,6,7
 94 820 94 820 140.5 768 c 128,-1,8
 187 716 187 716 206 671 c 1,0,-1
331 10 m 2,9,-1
 342 10 l 1,10,-1
 342 0 l 1,11,-1
 21 0 l 1,12,-1
 21 10 l 1,13,-1
 32 10 l 2,14,15
 53 10 53 10 68 25 c 128,-1,16
 83 40 83 40 83 62 c 2,17,-1
 83 538 l 2,18,19
 83 560 83 560 68 575 c 128,-1,20
 53 590 53 590 32 590 c 2,21,-1
 21 590 l 1,22,-1
 21 600 l 1,23,-1
 341 600 l 1,24,-1
 341 590 l 1,25,-1
 331 590 l 2,26,27
 301 590 301 590 287 565 c 0,28,29
 280 553 280 553 279 538 c 1,30,-1
 279 62 l 1,31,32
 280 27 280 27 311 14 c 0,33,34
 321 10 321 10 331 10 c 2,9,-1
EndSplineSet
EndChar

StartChar: iacute
Encoding: 237 237 173
Width: 362
GlyphClass: 2
Flags: W
LayerCount: 2
Fore
SplineSet
162 662 m 1,0,-1
 155 669 l 1,1,2
 174 713 174 713 220 765 c 128,-1,3
 266 817 266 817 310 854 c 1,4,5
 374 827 374 827 395 754 c 1,6,7
 345 721 345 721 280 694.5 c 128,-1,8
 215 668 215 668 162 662 c 1,0,-1
331 10 m 2,9,-1
 342 10 l 1,10,-1
 342 0 l 1,11,-1
 21 0 l 1,12,-1
 21 10 l 1,13,-1
 32 10 l 2,14,15
 53 10 53 10 68 25 c 128,-1,16
 83 40 83 40 83 62 c 2,17,-1
 83 538 l 2,18,19
 83 560 83 560 68 575 c 128,-1,20
 53 590 53 590 32 590 c 2,21,-1
 21 590 l 1,22,-1
 21 600 l 1,23,-1
 341 600 l 1,24,-1
 341 590 l 1,25,-1
 331 590 l 2,26,27
 301 590 301 590 287 565 c 0,28,29
 280 553 280 553 279 538 c 1,30,-1
 279 62 l 1,31,32
 280 27 280 27 311 14 c 0,33,34
 321 10 321 10 331 10 c 2,9,-1
EndSplineSet
EndChar

StartChar: icircumflex
Encoding: 238 238 174
Width: 362
GlyphClass: 2
Flags: W
LayerCount: 2
Fore
SplineSet
172 832 m 1,0,-1
 184 832 l 1,1,-1
 362 657 l 1,2,-1
 355 649 l 1,3,-1
 177 713 l 1,4,-1
 10 649 l 1,5,-1
 3 657 l 1,6,-1
 172 832 l 1,0,-1
331 10 m 2,7,-1
 342 10 l 1,8,-1
 342 0 l 1,9,-1
 21 0 l 1,10,-1
 21 10 l 1,11,-1
 32 10 l 2,12,13
 53 10 53 10 68 25 c 128,-1,14
 83 40 83 40 83 62 c 2,15,-1
 83 538 l 2,16,17
 83 560 83 560 68 575 c 128,-1,18
 53 590 53 590 32 590 c 2,19,-1
 21 590 l 1,20,-1
 21 600 l 1,21,-1
 341 600 l 1,22,-1
 341 590 l 1,23,-1
 331 590 l 2,24,25
 310 590 310 590 295 575 c 128,-1,26
 280 560 280 560 279 538 c 1,27,-1
 279 62 l 1,28,29
 280 27 280 27 311 14 c 0,30,31
 321 10 321 10 331 10 c 2,7,-1
EndSplineSet
EndChar

StartChar: idieresis
Encoding: 239 239 175
Width: 362
GlyphClass: 2
Flags: W
LayerCount: 2
Fore
SplineSet
44.5 656 m 128,-1,1
 14 656 14 656 -8 677.5 c 128,-1,2
 -30 699 -30 699 -30 729.5 c 128,-1,3
 -30 760 -30 760 -8 781.5 c 128,-1,4
 14 803 14 803 44.5 803 c 128,-1,5
 75 803 75 803 96.5 781.5 c 128,-1,6
 118 760 118 760 118 729.5 c 128,-1,7
 118 699 118 699 96.5 677.5 c 128,-1,0
 75 656 75 656 44.5 656 c 128,-1,1
306.5 656 m 128,-1,9
 276 656 276 656 254.5 677.5 c 128,-1,10
 233 699 233 699 233 729.5 c 128,-1,11
 233 760 233 760 254.5 781.5 c 128,-1,12
 276 803 276 803 306.5 803 c 128,-1,13
 337 803 337 803 358.5 781.5 c 128,-1,14
 380 760 380 760 380 729.5 c 128,-1,15
 380 699 380 699 358.5 677.5 c 128,-1,8
 337 656 337 656 306.5 656 c 128,-1,9
331 10 m 2,16,-1
 342 10 l 1,17,-1
 342 0 l 1,18,-1
 21 0 l 1,19,-1
 21 10 l 1,20,-1
 32 10 l 2,21,22
 53 10 53 10 68 25 c 128,-1,23
 83 40 83 40 83 62 c 2,24,-1
 83 538 l 2,25,26
 83 560 83 560 68 575 c 128,-1,27
 53 590 53 590 32 590 c 2,28,-1
 21 590 l 1,29,-1
 21 600 l 1,30,-1
 341 600 l 1,31,-1
 341 590 l 1,32,-1
 331 590 l 2,33,34
 301 590 301 590 287 565 c 0,35,36
 280 553 280 553 279 538 c 1,37,-1
 279 62 l 1,38,39
 280 40 280 40 295 25 c 128,-1,40
 310 10 310 10 331 10 c 2,16,-1
EndSplineSet
EndChar

StartChar: eth
Encoding: 240 240 176
Width: 741
GlyphClass: 2
Flags: W
LayerCount: 2
Fore
SplineSet
717 299.5 m 128,-1,1
 717 157 717 157 623 78.5 c 128,-1,2
 529 0 529 0 359 0 c 2,3,-1
 19 0 l 1,4,-1
 19 10 l 1,5,-1
 31 10 l 2,6,7
 54 10 54 10 66 21 c 0,8,9
 87 40 87 40 87 62 c 2,10,-1
 87 278 l 1,11,-1
 20 278 l 1,12,-1
 20 323 l 1,13,-1
 87 323 l 1,14,-1
 87 539 l 1,15,16
 86 561 86 561 69.5 575.5 c 128,-1,17
 53 590 53 590 30 590 c 2,18,-1
 18 590 l 1,19,-1
 18 600 l 1,20,-1
 359 600 l 2,21,22
 529 600 529 600 623 521 c 128,-1,0
 717 442 717 442 717 299.5 c 128,-1,1
283 278 m 1,23,-1
 283 46 l 1,24,-1
 340 46 l 2,25,26
 420 46 420 46 466 113 c 128,-1,27
 512 180 512 180 512 300 c 0,28,29
 512 462 512 462 432 525 c 0,30,31
 393 555 393 555 340 555 c 2,32,-1
 283 555 l 1,33,-1
 283 323 l 1,34,-1
 388 323 l 1,35,-1
 388 278 l 1,36,-1
 283 278 l 1,23,-1
EndSplineSet
EndChar

StartChar: ntilde
Encoding: 241 241 177
Width: 779
GlyphClass: 2
Flags: W
LayerCount: 2
Fore
SplineSet
557 819 m 1,0,-1
 570 819 l 1,1,2
 576 802 576 802 576 782.5 c 128,-1,3
 576 763 576 763 567 744 c 0,4,5
 545 694 545 694 506 676 c 0,6,7
 482 664 482 664 451 664 c 128,-1,8
 420 664 420 664 370 689 c 0,9,10
 321 714 321 714 303 716.5 c 128,-1,11
 285 719 285 719 270.5 719 c 128,-1,12
 256 719 256 719 232 703 c 128,-1,13
 208 687 208 687 200 667 c 1,14,-1
 187 667 l 1,15,16
 184 681 184 681 184 696 c 0,17,18
 184 756 184 756 228 799 c 0,19,20
 259 829 259 829 296.5 829 c 128,-1,21
 334 829 334 829 388 802 c 128,-1,22
 442 775 442 775 487 775 c 0,23,24
 502 775 502 775 526.5 789.5 c 128,-1,25
 551 804 551 804 557 819 c 1,0,-1
768 590 m 1,26,-1
 751 590 l 2,27,28
 728 590 728 590 712 576 c 128,-1,29
 696 562 696 562 696 541 c 2,30,-1
 696 97 l 2,31,32
 696 32 696 32 705 -1 c 2,33,-1
 708 -12 l 1,34,-1
 699 -12 l 1,35,-1
 279 341 l 1,36,-1
 279 60 l 1,37,38
 280 39 280 39 295.5 24.5 c 128,-1,39
 311 10 311 10 334 10 c 2,40,-1
 350 10 l 1,41,-1
 350 0 l 1,42,-1
 12 0 l 1,43,-1
 12 10 l 1,44,-1
 28 10 l 2,45,46
 51 10 51 10 67 24.5 c 128,-1,47
 83 39 83 39 83 60 c 2,48,-1
 83 507 l 2,49,50
 83 567 83 567 74 602 c 2,51,-1
 71 613 l 1,52,-1
 80 613 l 1,53,-1
 499 259 l 1,54,-1
 499 540 l 2,55,56
 499 570 499 570 472 584 c 0,57,58
 460 590 460 590 445 590 c 2,59,-1
 428 590 l 1,60,-1
 428 600 l 1,61,-1
 768 600 l 1,62,-1
 768 590 l 1,26,-1
EndSplineSet
EndChar

StartChar: ograve
Encoding: 242 242 178
Width: 779
GlyphClass: 2
Flags: W
LayerCount: 2
Fore
SplineSet
417 672 m 1,0,-1
 410 665 l 1,1,2
 357 671 357 671 292 698 c 128,-1,3
 227 725 227 725 177 758 c 1,4,5
 198 831 198 831 262 857 c 1,6,7
 305 820 305 820 351.5 768 c 128,-1,8
 398 716 398 716 417 672 c 1,0,-1
121.5 530 m 128,-1,10
 218 612 218 612 389.5 612 c 128,-1,11
 561 612 561 612 657.5 530 c 128,-1,12
 754 448 754 448 754 300 c 128,-1,13
 754 152 754 152 657.5 70 c 128,-1,14
 561 -12 561 -12 389.5 -12 c 128,-1,15
 218 -12 218 -12 121.5 70 c 128,-1,16
 25 152 25 152 25 300 c 128,-1,9
 25 448 25 448 121.5 530 c 128,-1,10
270 102.5 m 128,-1,18
 311 33 311 33 389 33 c 128,-1,19
 467 33 467 33 508 102.5 c 128,-1,20
 549 172 549 172 549 299 c 0,21,22
 549 472 549 472 477 535 c 0,23,24
 441 567 441 567 389 567 c 0,25,26
 311 567 311 567 270 497.5 c 128,-1,27
 229 428 229 428 229 300 c 128,-1,17
 229 172 229 172 270 102.5 c 128,-1,18
EndSplineSet
EndChar

StartChar: oacute
Encoding: 243 243 179
Width: 779
GlyphClass: 2
Flags: W
LayerCount: 2
Fore
SplineSet
373 662 m 1,0,-1
 366 669 l 1,1,2
 385 713 385 713 431 765.5 c 128,-1,3
 477 818 477 818 521 855 c 1,4,5
 585 828 585 828 606 755 c 1,6,7
 556 722 556 722 491 695 c 128,-1,8
 426 668 426 668 373 662 c 1,0,-1
121.5 530 m 128,-1,10
 218 612 218 612 389.5 612 c 128,-1,11
 561 612 561 612 657.5 530 c 128,-1,12
 754 448 754 448 754 300 c 128,-1,13
 754 152 754 152 657.5 70 c 128,-1,14
 561 -12 561 -12 389.5 -12 c 128,-1,15
 218 -12 218 -12 121.5 70 c 128,-1,16
 25 152 25 152 25 300 c 128,-1,9
 25 448 25 448 121.5 530 c 128,-1,10
270 102.5 m 128,-1,18
 311 33 311 33 389 33 c 128,-1,19
 467 33 467 33 508 102.5 c 128,-1,20
 549 172 549 172 549 299 c 0,21,22
 549 472 549 472 477 535 c 0,23,24
 441 567 441 567 389 567 c 0,25,26
 311 567 311 567 270 497.5 c 128,-1,27
 229 428 229 428 229 300 c 128,-1,17
 229 172 229 172 270 102.5 c 128,-1,18
EndSplineSet
EndChar

StartChar: ocircumflex
Encoding: 244 244 180
Width: 779
GlyphClass: 2
Flags: W
LayerCount: 2
Fore
SplineSet
383 833 m 1,0,-1
 395 833 l 1,1,-1
 573 657 l 1,2,-1
 566 649 l 1,3,-1
 388 714 l 1,4,-1
 221 649 l 1,5,-1
 214 657 l 1,6,-1
 383 833 l 1,0,-1
121.5 530 m 128,-1,8
 218 612 218 612 389.5 612 c 128,-1,9
 561 612 561 612 657.5 530 c 128,-1,10
 754 448 754 448 754 300 c 128,-1,11
 754 152 754 152 657.5 70 c 128,-1,12
 561 -12 561 -12 389.5 -12 c 128,-1,13
 218 -12 218 -12 121.5 70 c 128,-1,14
 25 152 25 152 25 300 c 128,-1,7
 25 448 25 448 121.5 530 c 128,-1,8
270 102.5 m 128,-1,16
 311 33 311 33 389 33 c 128,-1,17
 467 33 467 33 508 102.5 c 128,-1,18
 549 172 549 172 549 300 c 128,-1,19
 549 428 549 428 508 497.5 c 128,-1,20
 467 567 467 567 389 567 c 128,-1,21
 311 567 311 567 270 497.5 c 128,-1,22
 229 428 229 428 229 300 c 128,-1,15
 229 172 229 172 270 102.5 c 128,-1,16
EndSplineSet
EndChar

StartChar: otilde
Encoding: 245 245 181
Width: 779
GlyphClass: 2
Flags: W
LayerCount: 2
Fore
SplineSet
585 820 m 1,0,-1
 597 820 l 1,1,2
 603 803 603 803 603 783.5 c 128,-1,3
 603 764 603 764 595 745 c 0,4,5
 573 695 573 695 534 676 c 0,6,7
 510 665 510 665 478.5 665 c 128,-1,8
 447 665 447 665 398 690 c 0,9,10
 349 714 349 714 331 717 c 128,-1,11
 313 720 313 720 298.5 720 c 128,-1,12
 284 720 284 720 260 704 c 128,-1,13
 236 688 236 688 227 668 c 1,14,-1
 215 668 l 1,15,16
 211 681 211 681 211 697 c 0,17,18
 211 757 211 757 256 800 c 0,19,20
 287 830 287 830 324.5 830 c 128,-1,21
 362 830 362 830 416 803 c 128,-1,22
 470 776 470 776 515 776 c 0,23,24
 530 776 530 776 554.5 790.5 c 128,-1,25
 579 805 579 805 585 820 c 1,0,-1
121.5 530 m 128,-1,27
 218 612 218 612 389.5 612 c 128,-1,28
 561 612 561 612 657.5 530 c 128,-1,29
 754 448 754 448 754 300 c 128,-1,30
 754 152 754 152 657.5 70 c 128,-1,31
 561 -12 561 -12 389.5 -12 c 128,-1,32
 218 -12 218 -12 121.5 70 c 128,-1,33
 25 152 25 152 25 300 c 128,-1,26
 25 448 25 448 121.5 530 c 128,-1,27
270 102.5 m 128,-1,35
 311 33 311 33 389 33 c 128,-1,36
 467 33 467 33 508 102.5 c 128,-1,37
 549 172 549 172 549 299 c 0,38,39
 549 472 549 472 477 535 c 0,40,41
 441 567 441 567 389 567 c 0,42,43
 311 567 311 567 270 497 c 128,-1,44
 229 427 229 427 229 299.5 c 128,-1,34
 229 172 229 172 270 102.5 c 128,-1,35
EndSplineSet
EndChar

StartChar: odieresis
Encoding: 246 246 182
Width: 779
GlyphClass: 2
Flags: W
LayerCount: 2
Fore
SplineSet
255.5 656 m 128,-1,1
 225 656 225 656 203 678 c 128,-1,2
 181 700 181 700 181 730.5 c 128,-1,3
 181 761 181 761 203 782.5 c 128,-1,4
 225 804 225 804 255.5 804 c 128,-1,5
 286 804 286 804 307.5 782.5 c 128,-1,6
 329 761 329 761 329 730.5 c 128,-1,7
 329 700 329 700 307.5 678 c 128,-1,0
 286 656 286 656 255.5 656 c 128,-1,1
517.5 656 m 128,-1,9
 487 656 487 656 465.5 678 c 128,-1,10
 444 700 444 700 444 730.5 c 128,-1,11
 444 761 444 761 465.5 782.5 c 128,-1,12
 487 804 487 804 517.5 804 c 128,-1,13
 548 804 548 804 569.5 782.5 c 128,-1,14
 591 761 591 761 591 730.5 c 128,-1,15
 591 700 591 700 569.5 678 c 128,-1,8
 548 656 548 656 517.5 656 c 128,-1,9
121.5 530 m 128,-1,17
 218 612 218 612 389.5 612 c 128,-1,18
 561 612 561 612 657.5 530 c 128,-1,19
 754 448 754 448 754 300 c 128,-1,20
 754 152 754 152 657.5 70 c 128,-1,21
 561 -12 561 -12 389.5 -12 c 128,-1,22
 218 -12 218 -12 121.5 70 c 128,-1,23
 25 152 25 152 25 300 c 128,-1,16
 25 448 25 448 121.5 530 c 128,-1,17
270 102.5 m 128,-1,25
 311 33 311 33 389 33 c 128,-1,26
 467 33 467 33 508 102.5 c 128,-1,27
 549 172 549 172 549 299 c 0,28,29
 549 472 549 472 477 535 c 0,30,31
 441 567 441 567 389 567 c 0,32,33
 311 567 311 567 270 497.5 c 128,-1,34
 229 428 229 428 229 300 c 128,-1,24
 229 172 229 172 270 102.5 c 128,-1,25
EndSplineSet
EndChar

StartChar: divide
Encoding: 247 247 183
Width: 481
GlyphClass: 2
Flags: W
LayerCount: 2
Fore
SplineSet
240.5 416 m 128,-1,1
 219 416 219 416 203.5 431.5 c 128,-1,2
 188 447 188 447 188 468.5 c 128,-1,3
 188 490 188 490 203.5 505 c 128,-1,4
 219 520 219 520 240.5 520 c 128,-1,5
 262 520 262 520 277.5 505 c 128,-1,6
 293 490 293 490 293 468.5 c 128,-1,7
 293 447 293 447 277.5 431.5 c 128,-1,0
 262 416 262 416 240.5 416 c 128,-1,1
40 277 m 1,8,-1
 40 342 l 1,9,-1
 442 342 l 1,10,-1
 442 277 l 1,11,-1
 40 277 l 1,8,-1
240.5 100 m 128,-1,13
 219 100 219 100 203.5 115.5 c 128,-1,14
 188 131 188 131 188 152.5 c 128,-1,15
 188 174 188 174 203.5 189 c 128,-1,16
 219 204 219 204 240.5 204 c 128,-1,17
 262 204 262 204 277.5 189 c 128,-1,18
 293 174 293 174 293 152.5 c 128,-1,19
 293 131 293 131 277.5 115.5 c 128,-1,12
 262 100 262 100 240.5 100 c 128,-1,13
EndSplineSet
EndChar

StartChar: oslash
Encoding: 248 248 184
Width: 779
GlyphClass: 2
Flags: W
LayerCount: 2
Fore
SplineSet
754 299 m 0,0,1
 754 152 754 152 657.5 70 c 128,-1,2
 561 -12 561 -12 389 -12 c 0,3,4
 275 -12 275 -12 192 25 c 1,5,-1
 143 -33 l 1,6,-1
 99 3 l 1,7,-1
 142 54 l 1,8,9
 25 136 25 136 25 292 c 128,-1,10
 25 448 25 448 121.5 530 c 128,-1,11
 218 612 218 612 389 612 c 0,12,13
 500 612 500 612 583 574 c 1,14,-1
 641 643 l 1,15,-1
 684 608 l 1,16,-1
 632 546 l 1,17,18
 754 462 754 462 754 299 c 0,0,1
512 490 m 1,19,20
 471 567 471 567 391 567 c 128,-1,21
 311 567 311 567 270 497.5 c 128,-1,22
 229 428 229 428 229 299 c 0,23,24
 229 227 229 227 243 173 c 1,25,-1
 512 490 l 1,19,20
265 112 m 1,26,27
 306 33 306 33 386.5 33 c 128,-1,28
 467 33 467 33 508 102.5 c 128,-1,29
 549 172 549 172 549 299 c 0,30,31
 549 375 549 375 534 431 c 1,32,-1
 265 112 l 1,26,27
EndSplineSet
EndChar

StartChar: ugrave
Encoding: 249 249 185
Width: 708
GlyphClass: 2
Flags: W
LayerCount: 2
Fore
SplineSet
425 671 m 1,0,-1
 418 664 l 1,1,2
 365 670 365 670 300 697 c 128,-1,3
 235 724 235 724 185 757 c 1,4,5
 206 830 206 830 270 857 c 1,6,7
 332 804 332 804 372 752.5 c 128,-1,8
 412 701 412 701 425 671 c 1,0,-1
697 592 m 1,9,-1
 684 592 l 2,10,11
 666 592 666 592 653 579.5 c 128,-1,12
 640 567 640 567 640 549 c 2,13,-1
 640 223 l 2,14,15
 640 112 640 112 574 50 c 128,-1,16
 508 -12 508 -12 386 -12 c 0,17,18
 76 -12 76 -12 76 221 c 2,19,-1
 76 549 l 2,20,21
 76 575 76 575 54 587 c 0,22,23
 44 592 44 592 32 592 c 2,24,-1
 19 592 l 1,25,-1
 19 600 l 1,26,-1
 329 600 l 1,27,-1
 329 592 l 1,28,-1
 315 592 l 2,29,30
 297 592 297 592 285 580 c 128,-1,31
 273 568 273 568 272 549 c 1,32,-1
 272 223 l 2,33,34
 272 103 272 103 339 58 c 0,35,36
 372 36 372 36 418 36 c 0,37,38
 486 36 486 36 523 82 c 128,-1,39
 560 128 560 128 561 212 c 1,40,-1
 561 549 l 1,41,42
 560 575 560 575 539 587 c 0,43,44
 529 592 529 592 517 592 c 2,45,-1
 504 592 l 1,46,-1
 504 600 l 1,47,-1
 697 600 l 1,48,-1
 697 592 l 1,9,-1
EndSplineSet
EndChar

StartChar: uacute
Encoding: 250 250 186
Width: 708
GlyphClass: 2
Flags: W
LayerCount: 2
Fore
SplineSet
381 661 m 1,0,-1
 374 668 l 1,1,2
 393 712 393 712 439 764.5 c 128,-1,3
 485 817 485 817 528 854 c 1,4,5
 592 827 592 827 614 754 c 1,6,7
 564 721 564 721 498.5 694 c 128,-1,8
 433 667 433 667 381 661 c 1,0,-1
697 592 m 1,9,-1
 684 592 l 2,10,11
 666 592 666 592 653 579.5 c 128,-1,12
 640 567 640 567 640 549 c 2,13,-1
 640 223 l 2,14,15
 640 112 640 112 574 50 c 128,-1,16
 508 -12 508 -12 386 -12 c 0,17,18
 76 -12 76 -12 76 221 c 2,19,-1
 76 549 l 2,20,21
 76 575 76 575 54 587 c 0,22,23
 44 592 44 592 32 592 c 2,24,-1
 19 592 l 1,25,-1
 19 600 l 1,26,-1
 329 600 l 1,27,-1
 329 592 l 1,28,-1
 315 592 l 2,29,30
 297 592 297 592 285 580 c 128,-1,31
 273 568 273 568 272 549 c 1,32,-1
 272 223 l 2,33,34
 272 103 272 103 339 58 c 0,35,36
 372 36 372 36 418 36 c 0,37,38
 486 36 486 36 523 82 c 128,-1,39
 560 128 560 128 561 212 c 1,40,-1
 561 549 l 1,41,42
 560 575 560 575 539 587 c 0,43,44
 529 592 529 592 517 592 c 2,45,-1
 504 592 l 1,46,-1
 504 600 l 1,47,-1
 697 600 l 1,48,-1
 697 592 l 1,9,-1
EndSplineSet
EndChar

StartChar: ucircumflex
Encoding: 251 251 187
Width: 708
GlyphClass: 2
Flags: W
LayerCount: 2
Fore
SplineSet
390 832 m 1,0,-1
 402 832 l 1,1,-1
 581 656 l 1,2,-1
 574 648 l 1,3,-1
 396 713 l 1,4,-1
 229 648 l 1,5,-1
 222 656 l 1,6,-1
 390 832 l 1,0,-1
697 592 m 1,7,-1
 684 592 l 2,8,9
 666 592 666 592 653 579.5 c 128,-1,10
 640 567 640 567 640 549 c 2,11,-1
 640 223 l 2,12,13
 640 112 640 112 574 50 c 128,-1,14
 508 -12 508 -12 386 -12 c 0,15,16
 76 -12 76 -12 76 221 c 2,17,-1
 76 549 l 2,18,19
 76 575 76 575 54 587 c 0,20,21
 44 592 44 592 32 592 c 2,22,-1
 19 592 l 1,23,-1
 19 600 l 1,24,-1
 329 600 l 1,25,-1
 329 592 l 1,26,-1
 315 592 l 2,27,28
 297 592 297 592 284.5 580 c 128,-1,29
 272 568 272 568 272 549 c 2,30,-1
 272 223 l 2,31,32
 272 134 272 134 310.5 85 c 128,-1,33
 349 36 349 36 417.5 36 c 128,-1,34
 486 36 486 36 523 82 c 128,-1,35
 560 128 560 128 561 212 c 1,36,-1
 561 549 l 1,37,38
 560 568 560 568 547.5 580 c 128,-1,39
 535 592 535 592 517 592 c 2,40,-1
 504 592 l 1,41,-1
 504 600 l 1,42,-1
 697 600 l 1,43,-1
 697 592 l 1,7,-1
EndSplineSet
EndChar

StartChar: udieresis
Encoding: 252 252 188
Width: 708
GlyphClass: 2
Flags: W
LayerCount: 2
Fore
SplineSet
262.5 655 m 128,-1,1
 232 655 232 655 210.5 677 c 128,-1,2
 189 699 189 699 189 729.5 c 128,-1,3
 189 760 189 760 210.5 781.5 c 128,-1,4
 232 803 232 803 262.5 803 c 128,-1,5
 293 803 293 803 315 781.5 c 128,-1,6
 337 760 337 760 337 729.5 c 128,-1,7
 337 699 337 699 315 677 c 128,-1,0
 293 655 293 655 262.5 655 c 128,-1,1
525.5 655 m 128,-1,9
 495 655 495 655 473.5 677 c 128,-1,10
 452 699 452 699 452 729.5 c 128,-1,11
 452 760 452 760 473.5 781.5 c 128,-1,12
 495 803 495 803 525.5 803 c 128,-1,13
 556 803 556 803 577.5 781.5 c 128,-1,14
 599 760 599 760 599 729.5 c 128,-1,15
 599 699 599 699 577.5 677 c 128,-1,8
 556 655 556 655 525.5 655 c 128,-1,9
697 592 m 1,16,-1
 684 592 l 2,17,18
 666 592 666 592 653 579.5 c 128,-1,19
 640 567 640 567 640 549 c 2,20,-1
 640 223 l 2,21,22
 640 112 640 112 574 50 c 128,-1,23
 508 -12 508 -12 386 -12 c 0,24,25
 76 -12 76 -12 76 221 c 2,26,-1
 76 549 l 2,27,28
 76 578 76 578 49 589 c 0,29,30
 41 592 41 592 32 592 c 2,31,-1
 19 592 l 1,32,-1
 19 600 l 1,33,-1
 329 600 l 1,34,-1
 329 592 l 1,35,-1
 315 592 l 2,36,37
 297 592 297 592 284.5 580 c 128,-1,38
 272 568 272 568 272 549 c 2,39,-1
 272 223 l 2,40,41
 272 103 272 103 339 58 c 0,42,43
 372 36 372 36 418 36 c 0,44,45
 486 36 486 36 523 82 c 128,-1,46
 560 128 560 128 561 212 c 1,47,-1
 561 549 l 1,48,49
 560 568 560 568 547.5 580 c 128,-1,50
 535 592 535 592 517 592 c 2,51,-1
 504 592 l 1,52,-1
 504 600 l 1,53,-1
 697 600 l 1,54,-1
 697 592 l 1,16,-1
EndSplineSet
EndChar

StartChar: yacute
Encoding: 253 253 189
Width: 633
GlyphClass: 2
Flags: W
LayerCount: 2
Fore
SplineSet
356 661 m 1,0,-1
 349 668 l 1,1,2
 368 712 368 712 414.5 764.5 c 128,-1,3
 461 817 461 817 504 854 c 1,4,5
 568 827 568 827 589 754 c 1,6,7
 539 721 539 721 474 694 c 128,-1,8
 409 667 409 667 356 661 c 1,0,-1
684 590 m 1,9,-1
 671 590 l 2,10,11
 645 590 645 590 622.5 576.5 c 128,-1,12
 600 563 600 563 586 543 c 1,13,-1
 417 279 l 1,14,-1
 417 62 l 1,15,16
 418 31 418 31 445 17 c 0,17,18
 457 10 457 10 472 10 c 2,19,-1
 483 10 l 1,20,-1
 483 0 l 1,21,-1
 155 0 l 1,22,-1
 155 10 l 1,23,-1
 167 10 l 2,24,25
 189 10 189 10 205 25 c 128,-1,26
 221 40 221 40 221 62 c 2,27,-1
 221 278 l 1,28,-1
 49 543 l 2,29,30
 35 563 35 563 12 576.5 c 128,-1,31
 -11 590 -11 590 -36 590 c 2,32,-1
 -48 590 l 1,33,-1
 -48 600 l 1,34,-1
 302 600 l 1,35,-1
 302 590 l 1,36,-1
 292 590 l 2,37,38
 273 590 273 590 265 577.5 c 128,-1,39
 257 565 257 565 257 556 c 128,-1,40
 257 547 257 547 262 539 c 2,41,-1
 386 329 l 1,42,-1
 507 539 l 2,43,44
 512 547 512 547 512 555.5 c 128,-1,45
 512 564 512 564 503.5 577 c 128,-1,46
 495 590 495 590 477 590 c 2,47,-1
 467 590 l 1,48,-1
 467 600 l 1,49,-1
 684 600 l 1,50,-1
 684 590 l 1,9,-1
EndSplineSet
EndChar

StartChar: thorn
Encoding: 254 254 190
Width: 600
GlyphClass: 2
Flags: W
LayerCount: 2
Fore
SplineSet
616 303 m 0,0,1
 616 264 616 264 601 226 c 0,2,3
 570 152 570 152 484 126 c 0,4,5
 462 119 462 119 441 119 c 0,6,7
 373 119 373 119 317 161 c 1,8,-1
 316 169 l 1,9,10
 361 174 361 174 391 225 c 0,11,12
 415 264 415 264 415 316 c 0,13,14
 415 373 415 373 386 404.5 c 128,-1,15
 357 436 357 436 309 436 c 2,16,-1
 295 436 l 1,17,-1
 295 63 l 2,18,19
 295 32 295 32 322 17 c 0,20,21
 335 10 335 10 350 10 c 2,22,-1
 360 10 l 1,23,-1
 361 0 l 1,24,-1
 37 0 l 1,25,-1
 37 10 l 1,26,-1
 48 10 l 2,27,28
 71 10 71 10 87 25 c 128,-1,29
 103 40 103 40 103 63 c 2,30,-1
 103 538 l 2,31,32
 103 560 103 560 87 575 c 128,-1,33
 71 590 71 590 48 590 c 2,34,-1
 37 590 l 1,35,-1
 37 600 l 1,36,-1
 361 600 l 1,37,-1
 360 590 l 1,38,-1
 350 590 l 2,39,40
 318 590 318 590 302 565 c 0,41,42
 295 553 295 553 294 538 c 1,43,-1
 294 481 l 1,44,-1
 370 481 l 2,45,46
 495 481 495 481 553 435 c 0,47,48
 616 386 616 386 616 303 c 0,0,1
EndSplineSet
EndChar

StartChar: ydieresis
Encoding: 255 255 191
Width: 633
GlyphClass: 2
Flags: W
LayerCount: 2
Fore
SplineSet
238.5 655 m 128,-1,1
 208 655 208 655 186.5 677 c 128,-1,2
 165 699 165 699 165 729.5 c 128,-1,3
 165 760 165 760 186.5 781.5 c 128,-1,4
 208 803 208 803 238.5 803 c 128,-1,5
 269 803 269 803 290.5 781.5 c 128,-1,6
 312 760 312 760 312 729.5 c 128,-1,7
 312 699 312 699 290.5 677 c 128,-1,0
 269 655 269 655 238.5 655 c 128,-1,1
501.5 655 m 128,-1,9
 471 655 471 655 449 677 c 128,-1,10
 427 699 427 699 427 729.5 c 128,-1,11
 427 760 427 760 449 781.5 c 128,-1,12
 471 803 471 803 501.5 803 c 128,-1,13
 532 803 532 803 553.5 781.5 c 128,-1,14
 575 760 575 760 575 729.5 c 128,-1,15
 575 699 575 699 553.5 677 c 128,-1,8
 532 655 532 655 501.5 655 c 128,-1,9
684 590 m 1,16,-1
 671 590 l 2,17,18
 645 590 645 590 622.5 576.5 c 128,-1,19
 600 563 600 563 586 543 c 1,20,-1
 417 279 l 1,21,-1
 417 62 l 2,22,23
 417 40 417 40 433 25 c 128,-1,24
 449 10 449 10 472 10 c 2,25,-1
 483 10 l 1,26,-1
 483 0 l 1,27,-1
 155 0 l 1,28,-1
 155 10 l 1,29,-1
 167 10 l 2,30,31
 189 10 189 10 205 25 c 128,-1,32
 221 40 221 40 221 62 c 2,33,-1
 221 278 l 1,34,-1
 49 543 l 2,35,36
 30 571 30 571 5.5 580.5 c 128,-1,37
 -19 590 -19 590 -36 590 c 2,38,-1
 -48 590 l 1,39,-1
 -48 600 l 1,40,-1
 302 600 l 1,41,-1
 302 590 l 1,42,-1
 292 590 l 2,43,44
 273 590 273 590 265 577.5 c 128,-1,45
 257 565 257 565 257 556 c 128,-1,46
 257 547 257 547 262 539 c 2,47,-1
 386 329 l 1,48,-1
 507 539 l 2,49,50
 512 547 512 547 512 555.5 c 128,-1,51
 512 564 512 564 503.5 577 c 128,-1,52
 495 590 495 590 477 590 c 2,53,-1
 466 590 l 1,54,-1
 466 600 l 1,55,-1
 684 600 l 1,56,-1
 684 590 l 1,16,-1
EndSplineSet
EndChar

StartChar: Amacron
Encoding: 256 256 192
Width: 720
GlyphClass: 2
Flags: W
LayerCount: 2
Fore
SplineSet
207 795 m 1,0,-1
 207 880 l 1,1,-1
 497 880 l 1,2,-1
 497 795 l 1,3,-1
 207 795 l 1,0,-1
752 10 m 2,4,-1
 760 10 l 1,5,-1
 760 0 l 1,6,-1
 381 0 l 1,7,-1
 381 10 l 1,8,-1
 390 10 l 2,9,10
 412 10 412 10 423 23.5 c 128,-1,11
 434 37 434 37 434 48.5 c 128,-1,12
 434 60 434 60 429 73 c 2,13,-1
 390 166 l 1,14,-1
 176 166 l 1,15,-1
 136 73 l 2,16,17
 131 60 131 60 131 52 c 128,-1,18
 131 44 131 44 134.5 34.5 c 128,-1,19
 138 25 138 25 149.5 17.5 c 128,-1,20
 161 10 161 10 174 10 c 2,21,-1
 183 10 l 1,22,-1
 183 0 l 1,23,-1
 -40 0 l 1,24,-1
 -40 10 l 1,25,-1
 -31 10 l 2,26,27
 -8 10 -8 10 14.5 23.5 c 128,-1,28
 37 37 37 37 52 64 c 1,29,-1
 285 575 l 1,30,31
 338 687 338 687 342 724 c 1,32,-1
 351 724 l 1,33,-1
 668 65 l 1,34,35
 700 10 700 10 752 10 c 2,4,-1
198 216 m 1,36,-1
 369 216 l 1,37,-1
 285 416 l 1,38,-1
 198 216 l 1,36,-1
EndSplineSet
EndChar

StartChar: amacron
Encoding: 257 257 193
Width: 632
GlyphClass: 2
Flags: W
LayerCount: 2
Fore
SplineSet
162 695 m 1,0,-1
 162 780 l 1,1,-1
 452 780 l 1,2,-1
 452 695 l 1,3,-1
 162 695 l 1,0,-1
668 10 m 2,4,-1
 676 10 l 1,5,-1
 676 0 l 1,6,-1
 324 0 l 1,7,-1
 324 10 l 1,8,-1
 332 10 l 2,9,10
 352 10 352 10 361.5 20.5 c 128,-1,11
 371 31 371 31 371 40.5 c 128,-1,12
 371 50 371 50 366 61 c 2,13,-1
 337 127 l 1,14,-1
 152 127 l 1,15,-1
 122 58 l 2,16,17
 118 49 118 49 118 40 c 128,-1,18
 118 31 118 31 127.5 20.5 c 128,-1,19
 137 10 137 10 157 10 c 2,20,-1
 164 10 l 1,21,-1
 164 0 l 1,22,-1
 -42 0 l 1,23,-1
 -42 10 l 1,24,-1
 -34 10 l 2,25,26
 -13 10 -13 10 8.5 22 c 128,-1,27
 30 34 30 34 42 59 c 2,28,-1
 248 503 l 2,29,30
 297 610 297 610 300 636 c 1,31,-1
 308 636 l 1,32,-1
 590 61 l 2,33,34
 616 10 616 10 668 10 c 2,4,-1
171 172 m 1,35,-1
 317 172 l 1,36,-1
 244 340 l 1,37,-1
 171 172 l 1,35,-1
EndSplineSet
EndChar

StartChar: Abreve
Encoding: 258 258 194
Width: 720
GlyphClass: 2
Flags: W
LayerCount: 2
Fore
SplineSet
492 897 m 0,0,1
 492 851 492 851 459 814 c 0,2,3
 416 764 416 764 348.5 764 c 128,-1,4
 281 764 281 764 238 814 c 0,5,6
 206 852 206 852 206 897 c 0,7,8
 206 912 206 912 209 928 c 1,9,-1
 222 928 l 1,10,11
 236 895 236 895 283 876 c 0,12,13
 313 864 313 864 352.5 864 c 128,-1,14
 392 864 392 864 428 882 c 128,-1,15
 464 900 464 900 476 928 c 1,16,-1
 488 928 l 1,17,18
 492 912 492 912 492 897 c 0,0,1
752 10 m 2,20,-1
 760 10 l 1,21,-1
 760 0 l 1,22,-1
 381 0 l 1,23,-1
 381 10 l 1,24,-1
 390 10 l 2,25,26
 412 10 412 10 423 23.5 c 128,-1,27
 434 37 434 37 434 48.5 c 128,-1,28
 434 60 434 60 429 73 c 2,29,-1
 390 166 l 1,30,-1
 176 166 l 1,31,-1
 136 73 l 2,32,33
 131 60 131 60 131 52 c 128,-1,34
 131 44 131 44 134.5 34.5 c 128,-1,35
 138 25 138 25 149.5 17.5 c 128,-1,36
 161 10 161 10 174 10 c 2,37,-1
 183 10 l 1,38,-1
 183 0 l 1,39,-1
 -40 0 l 1,40,-1
 -40 10 l 1,41,-1
 -31 10 l 2,42,43
 -8 10 -8 10 14.5 23.5 c 128,-1,44
 37 37 37 37 52 64 c 1,45,-1
 285 575 l 1,46,47
 338 687 338 687 342 724 c 1,48,-1
 351 724 l 1,49,-1
 668 65 l 1,50,19
 700 10 700 10 752 10 c 2,20,-1
198 216 m 1,51,-1
 369 216 l 1,52,-1
 285 416 l 1,53,-1
 198 216 l 1,51,-1
EndSplineSet
EndChar

StartChar: abreve
Encoding: 259 259 195
Width: 632
GlyphClass: 2
Flags: W
LayerCount: 2
Fore
SplineSet
448 797 m 0,0,1
 448 751 448 751 415 714 c 0,2,3
 371 664 371 664 304 664 c 128,-1,4
 237 664 237 664 194 714 c 0,5,6
 162 752 162 752 162 797 c 0,7,8
 162 812 162 812 165 828 c 1,9,-1
 178 828 l 1,10,11
 190 800 190 800 225.5 782 c 128,-1,12
 261 764 261 764 297 764 c 128,-1,13
 333 764 333 764 359 772 c 0,14,15
 415 790 415 790 431 828 c 1,16,-1
 444 828 l 1,17,18
 448 812 448 812 448 797 c 0,0,1
668 10 m 2,19,-1
 676 10 l 1,20,-1
 676 0 l 1,21,-1
 324 0 l 1,22,-1
 324 10 l 1,23,-1
 332 10 l 2,24,25
 352 10 352 10 361.5 20.5 c 128,-1,26
 371 31 371 31 371 40.5 c 128,-1,27
 371 50 371 50 366 61 c 2,28,-1
 337 127 l 1,29,-1
 152 127 l 1,30,-1
 122 58 l 2,31,32
 118 49 118 49 118 40 c 128,-1,33
 118 31 118 31 127.5 20.5 c 128,-1,34
 137 10 137 10 157 10 c 2,35,-1
 164 10 l 1,36,-1
 164 0 l 1,37,-1
 -42 0 l 1,38,-1
 -42 10 l 1,39,-1
 -34 10 l 2,40,41
 -13 10 -13 10 8.5 22 c 128,-1,42
 30 34 30 34 42 59 c 2,43,-1
 248 503 l 2,44,45
 297 610 297 610 300 636 c 1,46,-1
 308 636 l 1,47,-1
 590 61 l 2,48,49
 616 10 616 10 668 10 c 2,19,-1
171 172 m 1,50,-1
 317 172 l 1,51,-1
 244 340 l 1,52,-1
 171 172 l 1,50,-1
EndSplineSet
EndChar

StartChar: Aogonek
Encoding: 260 260 196
Width: 720
GlyphClass: 2
Flags: W
LayerCount: 2
Fore
SplineSet
720 2.5 m 128,-1,1
 681 5 681 5 654.5 6.5 c 128,-1,2
 628 8 628 8 609 8 c 0,3,4
 534 8 534 8 501 0 c 0,5,6
 437 -15 437 -15 437 -65 c 0,7,8
 437 -116 437 -116 477 -132 c 0,9,10
 488 -136 488 -136 506 -136 c 128,-1,11
 524 -136 524 -136 549 -115 c 1,12,-1
 555 -121 l 1,13,14
 552 -184 552 -184 495 -202 c 0,15,16
 478 -207 478 -207 452.5 -207 c 128,-1,17
 427 -207 427 -207 395 -186 c 0,18,19
 349 -156 349 -156 349 -105 c 0,20,21
 349 -64 349 -64 368 -42 c 0,22,23
 374 -36 374 -36 376 -33 c 128,-1,24
 378 -30 378 -30 386.5 -23.5 c 128,-1,25
 395 -17 395 -17 396.5 -16 c 128,-1,26
 398 -15 398 -15 409 -8 c 128,-1,27
 420 -1 420 -1 421 0 c 0,28,29
 439 12 439 12 439 28.5 c 128,-1,30
 439 45 439 45 430 69 c 1,31,-1
 388 166 l 1,32,-1
 178 166 l 1,33,-1
 135 71 l 1,34,35
 124 43 124 43 139 26 c 0,36,37
 153 10 153 10 174 10 c 2,38,-1
 183 10 l 1,39,-1
 183 0 l 1,40,-1
 -40 0 l 1,41,-1
 -40 10 l 1,42,-1
 -31 10 l 2,43,44
 -6 10 -6 10 18 25.5 c 128,-1,45
 42 41 42 41 57 73 c 2,46,-1
 285 565 l 2,47,48
 338 677 338 677 342 714 c 1,49,-1
 351 714 l 1,50,-1
 664 73 l 2,51,52
 674 52 674 52 690 39 c 0,53,54
 714 19 714 19 760 10 c 1,55,-1
 760 0 l 1,56,0
 759 0 759 0 720 2.5 c 128,-1,1
200 216 m 1,57,-1
 367 216 l 1,58,-1
 285 408 l 1,59,-1
 200 216 l 1,57,-1
EndSplineSet
EndChar

StartChar: aogonek
Encoding: 261 261 197
Width: 632
GlyphClass: 2
Flags: W
LayerCount: 2
Fore
SplineSet
596 1 m 128,-1,1
 574 2 574 2 558.5 2 c 128,-1,2
 543 2 543 2 529 2 c 0,3,4
 378 2 378 2 378 -72 c 0,5,6
 378 -123 378 -123 418 -139 c 0,7,8
 430 -143 430 -143 448 -143 c 128,-1,9
 466 -143 466 -143 491 -122 c 1,10,-1
 497 -128 l 1,11,12
 494 -191 494 -191 437 -209 c 0,13,14
 419 -214 419 -214 394 -214 c 128,-1,15
 369 -214 369 -214 337 -193 c 0,16,17
 291 -163 291 -163 291 -112 c 0,18,19
 291 -71 291 -71 310 -49 c 0,20,21
 316 -43 316 -43 318 -40 c 128,-1,22
 320 -37 320 -37 328.5 -30.5 c 128,-1,23
 337 -24 337 -24 338.5 -23 c 128,-1,24
 340 -22 340 -22 351 -15 c 128,-1,25
 362 -8 362 -8 363 -7 c 0,26,27
 380 5 380 5 380 22 c 128,-1,28
 380 39 380 39 370 66 c 1,29,-1
 341 133 l 1,30,-1
 151 133 l 1,31,-1
 118 59 l 2,32,33
 114 50 114 50 114 40.5 c 128,-1,34
 114 31 114 31 123.5 20.5 c 128,-1,35
 133 10 133 10 153 10 c 2,36,-1
 160 10 l 1,37,-1
 160 0 l 1,38,-1
 -36 0 l 1,39,-1
 -36 10 l 1,40,-1
 -28 10 l 2,41,42
 -7 10 -7 10 14 22 c 128,-1,43
 35 34 35 34 48 60 c 2,44,-1
 250 495 l 2,45,46
 297 598 297 598 300 625 c 1,47,-1
 308 625 l 1,48,-1
 585 59 l 1,49,50
 596 39 596 39 616 26 c 128,-1,51
 636 13 636 13 651 10 c 2,52,-1
 666 7 l 1,53,-1
 666 -3 l 1,54,55
 663 -3 663 -3 640.5 -1.5 c 128,-1,0
 618 0 618 0 596 1 c 128,-1,1
170 177 m 1,56,-1
 322 177 l 1,57,-1
 247 350 l 1,58,-1
 170 177 l 1,56,-1
EndSplineSet
EndChar

StartChar: Cacute
Encoding: 262 262 198
Width: 793
GlyphClass: 2
Flags: W
LayerCount: 2
Fore
SplineSet
419 761 m 1,0,-1
 412 768 l 1,1,2
 431 812 431 812 477.5 864.5 c 128,-1,3
 524 917 524 917 567 954 c 1,4,5
 631 927 631 927 652 854 c 1,6,7
 602 821 602 821 537 794 c 128,-1,8
 472 767 472 767 419 761 c 1,0,-1
35 351 m 0,9,10
 35 464 35 464 87 546 c 128,-1,11
 139 628 139 628 237.5 671 c 128,-1,12
 336 714 336 714 479 714 c 128,-1,13
 622 714 622 714 730 668 c 1,14,-1
 720 477 l 1,15,-1
 711 477 l 1,16,17
 682 578 682 578 627 621 c 128,-1,18
 572 664 572 664 490 664 c 0,19,20
 379 664 379 664 317 582 c 128,-1,21
 255 500 255 500 255 353.5 c 128,-1,22
 255 207 255 207 312.5 123 c 128,-1,23
 370 39 370 39 472 36 c 1,24,25
 590 36 590 36 643 92 c 0,26,27
 693 144 693 144 721 292 c 1,28,-1
 729 292 l 1,29,-1
 753 110 l 1,30,31
 679 -14 679 -14 473.5 -13.5 c 128,-1,32
 268 -13 268 -13 151.5 82.5 c 128,-1,33
 35 178 35 178 35 351 c 0,9,10
EndSplineSet
EndChar

StartChar: cacute
Encoding: 263 263 199
Width: 668
GlyphClass: 2
Flags: W
LayerCount: 2
Fore
SplineSet
360 676 m 1,0,-1
 353 683 l 1,1,2
 372 727 372 727 418.5 779.5 c 128,-1,3
 465 832 465 832 508 869 c 1,4,5
 572 842 572 842 593 769 c 1,6,7
 543 736 543 736 478 709.5 c 128,-1,8
 413 683 413 683 360 676 c 1,0,-1
23 301 m 0,9,10
 23 448 23 448 123 530 c 128,-1,11
 223 612 223 612 404 612 c 0,12,13
 531 612 531 612 622 576 c 1,14,-1
 609 406 l 1,15,-1
 602 406 l 1,16,17
 576 494 576 494 531.5 530.5 c 128,-1,18
 487 567 487 567 421 567 c 0,19,20
 322 567 322 567 274.5 496.5 c 128,-1,21
 227 426 227 426 227 304 c 0,22,23
 227 138 227 138 308 69 c 0,24,25
 348 35 348 35 393.5 34 c 128,-1,26
 439 33 439 33 464.5 37.5 c 128,-1,27
 490 42 490 42 510 53.5 c 128,-1,28
 530 65 530 65 543.5 80.5 c 128,-1,29
 557 96 557 96 569 122 c 0,30,31
 588 166 588 166 606 250 c 1,32,-1
 613 250 l 1,33,-1
 639 90 l 1,34,35
 579 -12 579 -12 404 -12 c 0,36,37
 162 -11 162 -11 69 131 c 0,38,39
 23 201 23 201 23 301 c 0,9,10
EndSplineSet
EndChar

StartChar: Cdotaccent
Encoding: 266 266 200
Width: 793
GlyphClass: 2
Flags: W
LayerCount: 2
Fore
SplineSet
436 764 m 128,-1,1
 405 764 405 764 383.5 785.5 c 128,-1,2
 362 807 362 807 362 837.5 c 128,-1,3
 362 868 362 868 383.5 889.5 c 128,-1,4
 405 911 405 911 436 911 c 128,-1,5
 467 911 467 911 488.5 889.5 c 128,-1,6
 510 868 510 868 510 837.5 c 128,-1,7
 510 807 510 807 488.5 785.5 c 128,-1,0
 467 764 467 764 436 764 c 128,-1,1
35 351 m 0,8,9
 35 464 35 464 87 546 c 128,-1,10
 139 628 139 628 237.5 671 c 128,-1,11
 336 714 336 714 479 714 c 128,-1,12
 622 714 622 714 730 668 c 1,13,-1
 720 477 l 1,14,-1
 711 477 l 1,15,16
 682 578 682 578 627 621 c 128,-1,17
 572 664 572 664 490 664 c 0,18,19
 379 664 379 664 317 582 c 128,-1,20
 255 500 255 500 255 353.5 c 128,-1,21
 255 207 255 207 312.5 123 c 128,-1,22
 370 39 370 39 472 36 c 1,23,24
 590 36 590 36 643 92 c 0,25,26
 693 144 693 144 721 292 c 1,27,-1
 729 292 l 1,28,-1
 753 110 l 1,29,30
 679 -14 679 -14 473.5 -13.5 c 128,-1,31
 268 -13 268 -13 151.5 82.5 c 128,-1,32
 35 178 35 178 35 351 c 0,8,9
EndSplineSet
EndChar

StartChar: cdotaccent
Encoding: 267 267 201
Width: 668
GlyphClass: 2
Flags: W
LayerCount: 2
Fore
SplineSet
377.5 679 m 128,-1,1
 347 679 347 679 325 700.5 c 128,-1,2
 303 722 303 722 303 752.5 c 128,-1,3
 303 783 303 783 325 805 c 128,-1,4
 347 827 347 827 377.5 827 c 128,-1,5
 408 827 408 827 429.5 805 c 128,-1,6
 451 783 451 783 451 752.5 c 128,-1,7
 451 722 451 722 429.5 700.5 c 128,-1,0
 408 679 408 679 377.5 679 c 128,-1,1
124 70 m 128,-1,9
 23 151 23 151 23 299.5 c 128,-1,10
 23 448 23 448 123 530 c 128,-1,11
 223 612 223 612 404 612 c 0,12,13
 531 612 531 612 622 576 c 1,14,-1
 609 406 l 1,15,-1
 602 406 l 1,16,17
 576 494 576 494 531.5 530.5 c 128,-1,18
 487 567 487 567 421 567 c 0,19,20
 322 567 322 567 274.5 496.5 c 128,-1,21
 227 426 227 426 227 303.5 c 128,-1,22
 227 181 227 181 273.5 108.5 c 128,-1,23
 320 36 320 36 404 33 c 1,24,25
 474 33 474 33 510 54 c 0,26,27
 549 76 549 76 569 122 c 0,28,29
 588 166 588 166 606 250 c 1,30,-1
 613 250 l 1,31,-1
 639 90 l 1,32,33
 579 -12 579 -12 402 -11.5 c 128,-1,8
 225 -11 225 -11 124 70 c 128,-1,9
EndSplineSet
EndChar

StartChar: Ccaron
Encoding: 268 268 202
Width: 793
GlyphClass: 2
Flags: W
LayerCount: 2
Fore
SplineSet
443 764 m 1,0,-1
 431 764 l 1,1,-1
 262 939 l 1,2,-1
 269 947 l 1,3,-1
 437 883 l 1,4,-1
 595 947 l 1,5,-1
 602 939 l 1,6,-1
 443 764 l 1,0,-1
35 351 m 0,7,8
 35 464 35 464 87 546 c 128,-1,9
 139 628 139 628 237.5 671 c 128,-1,10
 336 714 336 714 479 714 c 128,-1,11
 622 714 622 714 730 668 c 1,12,-1
 720 477 l 1,13,-1
 711 477 l 1,14,15
 682 578 682 578 627 621 c 128,-1,16
 572 664 572 664 490 664 c 0,17,18
 379 664 379 664 317 582 c 128,-1,19
 255 500 255 500 255 353.5 c 128,-1,20
 255 207 255 207 312.5 123 c 128,-1,21
 370 39 370 39 472 36 c 1,22,23
 590 36 590 36 643 92 c 0,24,25
 693 144 693 144 721 292 c 1,26,-1
 729 292 l 1,27,-1
 753 110 l 1,28,29
 679 -14 679 -14 473.5 -13.5 c 128,-1,30
 268 -13 268 -13 151.5 82.5 c 128,-1,31
 35 178 35 178 35 351 c 0,7,8
EndSplineSet
EndChar

StartChar: ccaron
Encoding: 269 269 203
Width: 668
GlyphClass: 2
Flags: W
LayerCount: 2
Fore
SplineSet
384 679 m 1,0,-1
 372 679 l 1,1,-1
 203 855 l 1,2,-1
 210 863 l 1,3,-1
 378 798 l 1,4,-1
 536 863 l 1,5,-1
 543 855 l 1,6,-1
 384 679 l 1,0,-1
124 70 m 128,-1,8
 23 151 23 151 23 299.5 c 128,-1,9
 23 448 23 448 123 530 c 128,-1,10
 223 612 223 612 404 612 c 0,11,12
 531 612 531 612 622 576 c 1,13,-1
 609 406 l 1,14,-1
 602 406 l 1,15,16
 576 494 576 494 531.5 530.5 c 128,-1,17
 487 567 487 567 421 567 c 0,18,19
 322 567 322 567 274.5 496.5 c 128,-1,20
 227 426 227 426 227 303.5 c 128,-1,21
 227 181 227 181 273.5 108.5 c 128,-1,22
 320 36 320 36 404 33 c 1,23,24
 474 33 474 33 510 54 c 0,25,26
 549 76 549 76 569 122 c 0,27,28
 588 166 588 166 606 250 c 1,29,-1
 613 250 l 1,30,-1
 639 90 l 1,31,32
 579 -12 579 -12 402 -11.5 c 128,-1,7
 225 -11 225 -11 124 70 c 128,-1,8
EndSplineSet
EndChar

StartChar: Dcaron
Encoding: 270 270 204
Width: 842
GlyphClass: 2
Flags: W
LayerCount: 2
Fore
SplineSet
428 764 m 1,0,-1
 416 764 l 1,1,-1
 247 939 l 1,2,-1
 254 947 l 1,3,-1
 423 883 l 1,4,-1
 580 947 l 1,5,-1
 587 939 l 1,6,-1
 428 764 l 1,0,-1
808 350 m 0,7,8
 808 240 808 240 760.5 161.5 c 128,-1,9
 713 83 713 83 623 41.5 c 128,-1,10
 533 0 533 0 409 0 c 2,11,-1
 30 0 l 1,12,-1
 30 10 l 1,13,-1
 43 10 l 2,14,15
 69 10 69 10 87.5 28.5 c 128,-1,16
 106 47 106 47 107 73 c 1,17,-1
 107 633 l 2,18,19
 107 657 107 657 87.5 673.5 c 128,-1,20
 68 690 68 690 43 690 c 2,21,-1
 30 690 l 1,22,-1
 30 700 l 1,23,-1
 409 700 l 2,24,25
 597 700 597 700 702.5 607.5 c 128,-1,26
 808 515 808 515 808 350 c 0,7,8
312 650 m 1,27,-1
 312 50 l 1,28,-1
 389 50 l 2,29,30
 482 50 482 50 535 129.5 c 128,-1,31
 588 209 588 209 588 350 c 128,-1,32
 588 491 588 491 535 570.5 c 128,-1,33
 482 650 482 650 389 650 c 2,34,-1
 312 650 l 1,27,-1
EndSplineSet
EndChar

StartChar: dcaron
Encoding: 271 271 205
Width: 741
GlyphClass: 2
Flags: W
LayerCount: 2
Fore
SplineSet
366 665 m 1,0,-1
 354 665 l 1,1,-1
 185 840 l 1,2,-1
 192 848 l 1,3,-1
 361 784 l 1,4,-1
 518 848 l 1,5,-1
 525 840 l 1,6,-1
 366 665 l 1,0,-1
717 299.5 m 128,-1,8
 717 157 717 157 623 78.5 c 128,-1,9
 529 0 529 0 359 0 c 2,10,-1
 19 0 l 1,11,-1
 19 10 l 1,12,-1
 31 10 l 2,13,14
 54 10 54 10 70.5 26 c 128,-1,15
 87 42 87 42 87 64 c 2,16,-1
 87 539 l 1,17,18
 85 561 85 561 69 575.5 c 128,-1,19
 53 590 53 590 30 590 c 2,20,-1
 18 590 l 1,21,-1
 18 600 l 1,22,-1
 359 600 l 2,23,24
 529 600 529 600 623 521 c 128,-1,7
 717 442 717 442 717 299.5 c 128,-1,8
283 555 m 1,25,-1
 283 46 l 1,26,-1
 340 46 l 2,27,28
 420 46 420 46 466 113 c 128,-1,29
 512 180 512 180 512 300 c 0,30,31
 512 462 512 462 432 525 c 0,32,33
 393 555 393 555 340 555 c 2,34,-1
 283 555 l 1,25,-1
EndSplineSet
EndChar

StartChar: Dcroat
Encoding: 272 272 206
Width: 842
GlyphClass: 2
Flags: W
LayerCount: 2
Fore
SplineSet
279 795 m 1,0,-1
 279 880 l 1,1,-1
 569 880 l 1,2,-1
 569 795 l 1,3,-1
 279 795 l 1,0,-1
808 350 m 128,-1,5
 808 185 808 185 702.5 92.5 c 128,-1,6
 597 0 597 0 409 0 c 2,7,-1
 30 0 l 1,8,-1
 30 10 l 1,9,-1
 43 10 l 2,10,11
 69 10 69 10 87.5 28.5 c 128,-1,12
 106 47 106 47 107 73 c 1,13,-1
 107 633 l 2,14,15
 107 657 107 657 87.5 673.5 c 128,-1,16
 68 690 68 690 43 690 c 2,17,-1
 31 690 l 1,18,-1
 30 700 l 1,19,-1
 409 700 l 2,20,21
 597 700 597 700 702.5 607.5 c 128,-1,4
 808 515 808 515 808 350 c 128,-1,5
312 650 m 1,22,-1
 312 50 l 1,23,-1
 389 50 l 2,24,25
 482 50 482 50 535 129.5 c 128,-1,26
 588 209 588 209 588 350 c 128,-1,27
 588 491 588 491 535 570.5 c 128,-1,28
 482 650 482 650 389 650 c 2,29,-1
 312 650 l 1,22,-1
EndSplineSet
EndChar

